{
	"asset":{
		"generator":"Khronos glTF Blender I/O v4.3.47",
		"version":"2.0"
	},
	"extensionsUsed":[
		"KHR_lights_punctual",
		"KHR_materials_specular"
	],
	"extensionsRequired":[
		"KHR_lights_punctual"
	],
	"extensions":{
		"KHR_lights_punctual":{
			"lights":[
				{
					"color":[
						1,
						1,
						1
					],
					"intensity":3000.000038555139,
					"type":"point",
					"name":"Area.004"
				},
				{
					"color":[
						1,
						1,
						1
					],
					"intensity":1000.0000474074108,
					"type":"point",
					"name":"Area.006"
				},
				{
					"color":[
						1,
						1,
						1
					],
					"intensity":3000.000038555139,
					"type":"point",
					"name":"Area.009"
				},
				{
					"color":[
						1,
						1,
						1
					],
					"intensity":500.0000237037054,
					"type":"point",
					"name":"Area.011"
				},
				{
					"color":[
						1,
						1,
						1
					],
					"intensity":3000.000038555139,
					"type":"point",
					"name":"Area.012"
				},
				{
					"color":[
						1,
						1,
						1
					],
					"intensity":2000.0000948148215,
					"type":"point",
					"name":"Area.008"
				},
				{
					"color":[
						0.06480225920677185,
						0.06300970166921616,
						1
					],
					"intensity":3000.000038555139,
					"type":"point",
					"name":"Area.013"
				},
				{
					"color":[
						0.06470596045255661,
						0.06361083686351776,
						1
					],
					"intensity":3000.000038555139,
					"type":"point",
					"name":"Area.014"
				},
				{
					"color":[
						0.2866154909133911,
						0.2852494716644287,
						1
					],
					"intensity":3000.000038555139,
					"type":"point",
					"name":"Area.001"
				}
			]
		}
	},
	"scene":0,
	"scenes":[
		{
			"name":"Scene",
			"nodes":[
				0,
				1,
				2,
				3,
				4,
				5,
				6,
				7,
				8,
				9,
				36
			]
		}
	],
	"nodes":[
		{
			"extensions":{
				"KHR_lights_punctual":{
					"light":0
				}
			},
			"name":"Area.003",
			"rotation":[
				-0.5651676058769226,
				0.6988074779510498,
				0.4249531030654907,
				0.10802087187767029
			],
			"translation":[
				-9.142339706420898,
				14.501487731933594,
				-16.914377212524414
			]
		},
		{
			"extensions":{
				"KHR_lights_punctual":{
					"light":1
				}
			},
			"name":"Area.005",
			"rotation":[
				0.9344044327735901,
				0.058618925511837006,
				0.3003101348876953,
				0.1823900192975998
			],
			"translation":[
				5.442770957946777,
				-7.160289764404297,
				-27.565475463867188
			]
		},
		{
			"extensions":{
				"KHR_lights_punctual":{
					"light":2
				}
			},
			"name":"Area.008",
			"rotation":[
				-0.21747387945652008,
				-0.19948121905326843,
				0.1920774132013321,
				0.9359586834907532
			],
			"scale":[
				1.138315200805664,
				1.1383150815963745,
				1.138315200805664
			],
			"translation":[
				-14.140413284301758,
				1.154341220855713,
				17.77381706237793
			]
		},
		{
			"extensions":{
				"KHR_lights_punctual":{
					"light":3
				}
			},
			"name":"Area.009",
			"rotation":[
				0.5183142423629761,
				-0.07328002899885178,
				0.833455502986908,
				0.17700928449630737
			],
			"translation":[
				14.529562950134277,
				8.733272552490234,
				11.902762413024902
			]
		},
		{
			"extensions":{
				"KHR_lights_punctual":{
					"light":4
				}
			},
			"name":"Area.010",
			"rotation":[
				-0.41529375314712524,
				0.1690547615289688,
				-0.8936439752578735,
				0.018763408064842224
			],
			"translation":[
				15.1007080078125,
				-2.1094970703125,
				20.94669532775879
			]
		},
		{
			"extensions":{
				"KHR_lights_punctual":{
					"light":5
				}
			},
			"name":"Area.011",
			"rotation":[
				-0.33511871099472046,
				0.002168855397030711,
				-0.3184206783771515,
				0.8867351412773132
			],
			"scale":[
				1.6905518770217896,
				1.6905518770217896,
				1.6905516386032104
			],
			"translation":[
				6.88137149810791,
				3.2973506450653076,
				4.698934078216553
			]
		},
		{
			"extensions":{
				"KHR_lights_punctual":{
					"light":6
				}
			},
			"name":"Area.012",
			"rotation":[
				-0.5651676058769226,
				0.6988074779510498,
				0.4249531030654907,
				0.10802087187767029
			],
			"translation":[
				-9.142339706420898,
				2.019968032836914,
				-1.9074902534484863
			]
		},
		{
			"extensions":{
				"KHR_lights_punctual":{
					"light":7
				}
			},
			"name":"Area.013",
			"rotation":[
				0.052416734397411346,
				-0.3548128008842468,
				0.7369021773338318,
				0.573005735874176
			],
			"translation":[
				-9.142339706420898,
				-5.4920573234558105,
				1.8079016208648682
			]
		},
		{
			"camera":0,
			"name":"Camera",
			"rotation":[
				0,
				0.7071068286895752,
				0,
				0.7071068286895752
			],
			"translation":[
				20,
				0,
				0
			]
		},
		{
			"extensions":{
				"KHR_lights_punctual":{
					"light":8
				}
			},
			"name":"Area.001",
			"rotation":[
				-0.5651676058769226,
				0.6988074779510498,
				0.4249531030654907,
				0.10802087187767029
			],
			"translation":[
				-4.2845306396484375,
				5.25127649307251,
				-13.464252471923828
			]
		},
		{
			"mesh":0,
			"name":"Circle_microscope_body_0"
		},
		{
			"children":[
				10
			],
			"name":"Circle",
			"rotation":[
				0.5151094198226929,
				-0.0019981632940471172,
				-0.04629374295473099,
				0.8558710217475891
			],
			"scale":[
				0.2324635535478592,
				0.23246361315250397,
				0.23246361315250397
			],
			"translation":[
				1.2025237083435059e-05,
				-1.6045243740081787,
				3.2588887214660645
			]
		},
		{
			"mesh":1,
			"name":"eye_glass_glass_0"
		},
		{
			"children":[
				12
			],
			"name":"eye_glass",
			"scale":[
				0.3962767720222473,
				0.21571055054664612,
				0.21571055054664612
			],
			"translation":[
				-0.0095001719892025,
				-0.6680651903152466,
				1.4644922018051147
			]
		},
		{
			"mesh":2,
			"name":"model_2.001_microscope_body_0",
			"translation":[
				3.0994415283203125e-06,
				0,
				0
			]
		},
		{
			"children":[
				14
			],
			"name":"model_2.001",
			"rotation":[
				0.7071067690849304,
				0,
				0,
				0.7071068286895752
			],
			"scale":[
				0.024196486920118332,
				0.024196486920118332,
				0.024196486920118332
			]
		},
		{
			"children":[
				15
			],
			"name":"EyeRotate",
			"scale":[
				0.8117908239364624,
				0.811790943145752,
				0.8117908835411072
			],
			"translation":[
				0.006697578355669975,
				-0.4708506762981415,
				2.085923910140991
			]
		},
		{
			"mesh":3,
			"name":"model_2.002_microscope_body_0",
			"translation":[
				5.424022674560547e-06,
				0,
				0
			]
		},
		{
			"children":[
				17
			],
			"name":"model_2.002",
			"rotation":[
				-0.2759217619895935,
				0,
				0,
				0.9611801505088806
			],
			"scale":[
				0.09105945378541946,
				0.09105944633483887,
				0.09105945378541946
			]
		},
		{
			"children":[
				18
			],
			"name":"FineAdjustmentKnob",
			"scale":[
				0.21571053564548492,
				0.21571055054664612,
				0.2157105654478073
			],
			"translation":[
				0.5541916489601135,
				-0.6467310190200806,
				2.490556478500366
			]
		},
		{
			"mesh":4,
			"name":"knob_microscope_body_0",
			"translation":[
				-2.86102294921875e-06,
				0,
				2.86102294921875e-06
			]
		},
		{
			"children":[
				20
			],
			"name":"knob",
			"rotation":[
				0.7071066498756409,
				0,
				0,
				0.70710688829422
			],
			"scale":[
				0.043361566960811615,
				0.04336155951023102,
				0.04336155578494072
			],
			"translation":[
				-0.2369006872177124,
				-1.4603137969970703e-05,
				0.009226679801940918
			]
		},
		{
			"children":[
				21
			],
			"name":"KNOB",
			"rotation":[
				0.4281799793243408,
				0,
				0,
				0.9036934971809387
			],
			"scale":[
				0.45299291610717773,
				0.45299288630485535,
				0.4529929459095001
			],
			"translation":[
				0.763473629951477,
				0.46767696738243103,
				0.8946954011917114
			]
		},
		{
			"mesh":5,
			"name":"lenses_glass_0",
			"translation":[
				-1.049041748046875e-05,
				4.0531158447265625e-06,
				0
			]
		},
		{
			"children":[
				23
			],
			"name":"lenses",
			"rotation":[
				0.70710688829422,
				0,
				0,
				0.7071066498756409
			],
			"scale":[
				0.019642483443021774,
				0.019642483443021774,
				0.019642483443021774
			]
		},
		{
			"mesh":6,
			"name":"model_2.005_microscope_body_0",
			"translation":[
				0,
				0,
				2.86102294921875e-06
			]
		},
		{
			"children":[
				25
			],
			"name":"model_2.005",
			"rotation":[
				0.7071068286895752,
				0,
				0,
				0.7071067094802856
			],
			"scale":[
				0.024633726105093956,
				0.024633722379803658,
				0.02463372051715851
			]
		},
		{
			"children":[
				26
			],
			"name":"Mirror_Base",
			"scale":[
				0.797381579875946,
				0.7973817586898804,
				0.7973816990852356
			],
			"translation":[
				4.4852495193481445e-06,
				-0.6400868892669678,
				0.7694834470748901
			]
		},
		{
			"mesh":7,
			"name":"model_2_microscope_body_0",
			"translation":[
				-1.049041748046875e-05,
				4.0531158447265625e-06,
				0
			]
		},
		{
			"children":[
				28
			],
			"name":"model_2",
			"rotation":[
				0.70710688829422,
				0,
				0,
				0.7071066498756409
			],
			"scale":[
				0.019642483443021774,
				0.019642483443021774,
				0.019642483443021774
			]
		},
		{
			"mesh":8,
			"name":"model_2.004_microscope_body_0",
			"translation":[
				0,
				0,
				5.245208740234375e-06
			]
		},
		{
			"children":[
				30
			],
			"name":"model_2.004",
			"rotation":[
				0.6919288635253906,
				-0.05862424522638321,
				0.3244211971759796,
				0.6422994136810303
			],
			"scale":[
				0.019642481580376625,
				0.019642483443021774,
				0.019642485305666924
			],
			"translation":[
				-0.3957042694091797,
				-1.8470954895019531,
				3.4144287109375
			]
		},
		{
			"children":[
				11,
				13,
				16,
				19,
				22,
				24,
				27,
				29,
				31
			],
			"name":"Main_Body",
			"rotation":[
				-0.7071068286895752,
				0,
				0,
				0.7071068286895752
			],
			"scale":[
				463.58416748046875,
				463.5841369628906,
				463.5841979980469
			],
			"translation":[
				3.0517578125e-05,
				-7.2479248046875e-05,
				0
			]
		},
		{
			"children":[
				32
			],
			"name":"RootNode",
			"translation":[
				3.0517578125e-05,
				-7.2479248046875e-05,
				0
			]
		},
		{
			"children":[
				33
			],
			"name":"Object_2",
			"translation":[
				3.0517578125e-05,
				-7.2479248046875e-05,
				0
			]
		},
		{
			"children":[
				34
			],
			"name":"40c56318e74d4bfb9699840a61b57c96.fbx",
			"rotation":[
				0.7071068286895752,
				0,
				0,
				0.7071068286895752
			],
			"scale":[
				0.009999999776482582,
				0.010000000707805157,
				0.010000000707805157
			]
		},
		{
			"children":[
				35
			],
			"name":"Sketchfab_model",
			"rotation":[
				-0.5588791370391846,
				0.40084487199783325,
				0.21712122857570648,
				0.6927018761634827
			],
			"scale":[
				0.5373826622962952,
				0.5373827219009399,
				0.5373827219009399
			],
			"translation":[
				-2.4096522331237793,
				-5.012008190155029,
				-3.191293716430664
			]
		}
	],
	"cameras":[
		{
			"name":"Camera.001",
			"perspective":{
				"aspectRatio":1.7777777777777777,
				"yfov":0.3464913070201874,
				"zfar":1000,
				"znear":0.10000000149011612
			},
			"type":"perspective"
		}
	],
	"materials":[
		{
			"doubleSided":true,
			"extensions":{
				"KHR_materials_specular":{
					"specularFactor":0.728457510471344
				}
			},
			"name":"microscope_body",
			"normalTexture":{
				"index":0
			},
			"occlusionTexture":{
				"index":1
			},
			"pbrMetallicRoughness":{
				"baseColorTexture":{
					"index":2
				},
				"metallicRoughnessTexture":{
					"index":1
				}
			}
		},
		{
			"doubleSided":true,
			"name":"glass",
			"normalTexture":{
				"index":3
			},
			"pbrMetallicRoughness":{
				"baseColorTexture":{
					"index":4
				},
				"metallicFactor":0,
				"metallicRoughnessTexture":{
					"index":5
				}
			}
		}
	],
	"meshes":[
		{
			"name":"Circle_microscope_body_0",
			"primitives":[
				{
					"attributes":{
						"POSITION":0,
						"NORMAL":1,
						"TEXCOORD_0":2
					},
					"indices":3,
					"material":0
				}
			]
		},
		{
			"name":"eye_glass_glass_0",
			"primitives":[
				{
					"attributes":{
						"POSITION":4,
						"NORMAL":5,
						"TEXCOORD_0":6,
						"TEXCOORD_1":7,
						"TEXCOORD_2":8
					},
					"indices":9,
					"material":1
				}
			]
		},
		{
			"name":"model_2.001_microscope_body_0",
			"primitives":[
				{
					"attributes":{
						"POSITION":10,
						"NORMAL":11,
						"TEXCOORD_0":12
					},
					"indices":13,
					"material":0
				}
			]
		},
		{
			"name":"model_2.002_microscope_body_0",
			"primitives":[
				{
					"attributes":{
						"POSITION":14,
						"NORMAL":15,
						"TEXCOORD_0":16
					},
					"indices":17,
					"material":0
				}
			]
		},
		{
			"name":"knob_microscope_body_0",
			"primitives":[
				{
					"attributes":{
						"POSITION":18,
						"NORMAL":19,
						"TEXCOORD_0":20
					},
					"indices":21,
					"material":0
				}
			]
		},
		{
			"name":"lenses_glass_0",
			"primitives":[
				{
					"attributes":{
						"POSITION":22,
						"NORMAL":23,
						"TEXCOORD_0":24,
						"TEXCOORD_1":25,
						"TEXCOORD_2":26
					},
					"indices":27,
					"material":1
				}
			]
		},
		{
			"name":"model_2.005_microscope_body_0",
			"primitives":[
				{
					"attributes":{
						"POSITION":28,
						"NORMAL":29,
						"TEXCOORD_0":30
					},
					"indices":31,
					"material":0
				}
			]
		},
		{
			"name":"model_2_microscope_body_0",
			"primitives":[
				{
					"attributes":{
						"POSITION":32,
						"NORMAL":33,
						"TEXCOORD_0":34
					},
					"indices":35,
					"material":0
				}
			]
		},
		{
			"name":"model_2.004_microscope_body_0",
			"primitives":[
				{
					"attributes":{
						"POSITION":36,
						"NORMAL":37,
						"TEXCOORD_0":38
					},
					"indices":39,
					"material":0
				}
			]
		}
	],
	"textures":[
		{
			"sampler":0,
			"source":0
		},
		{
			"sampler":0,
			"source":1
		},
		{
			"sampler":0,
			"source":2
		},
		{
			"sampler":0,
			"source":3
		},
		{
			"sampler":0,
			"source":4
		},
		{
			"sampler":0,
			"source":5
		}
	],
	"images":[
		{
			"mimeType":"image/png",
			"name":"Image_5",
			"uri":"Image_5.png"
		},
		{
			"mimeType":"image/png",
			"name":"Image_4",
			"uri":"Image_4.png"
		},
		{
			"mimeType":"image/png",
			"name":"Image_3",
			"uri":"Image_3.png"
		},
		{
			"mimeType":"image/png",
			"name":"Image_2",
			"uri":"Image_2.png"
		},
		{
			"mimeType":"image/png",
			"name":"Image_0",
			"uri":"Image_0.png"
		},
		{
			"mimeType":"image/png",
			"name":"Image_1",
			"uri":"Image_1.png"
		}
	],
	"accessors":[
		{
			"bufferView":0,
			"componentType":5126,
			"count":192,
			"max":[
				1,
				1,
				0.08338278532028198
			],
			"min":[
				-1,
				-1,
				-0.08338278532028198
			],
			"type":"VEC3"
		},
		{
			"bufferView":1,
			"componentType":5126,
			"count":192,
			"type":"VEC3"
		},
		{
			"bufferView":2,
			"componentType":5126,
			"count":192,
			"type":"VEC2"
		},
		{
			"bufferView":3,
			"componentType":5123,
			"count":372,
			"type":"SCALAR"
		},
		{
			"bufferView":4,
			"componentType":5126,
			"count":24,
			"max":[
				1.0120636224746704,
				0.7895640134811401,
				0
			],
			"min":[
				-1.032831072807312,
				-0.7970967292785645,
				-0.09922122955322266
			],
			"type":"VEC3"
		},
		{
			"bufferView":5,
			"componentType":5126,
			"count":24,
			"type":"VEC3"
		},
		{
			"bufferView":6,
			"componentType":5126,
			"count":24,
			"type":"VEC2"
		},
		{
			"bufferView":7,
			"componentType":5126,
			"count":24,
			"type":"VEC2"
		},
		{
			"bufferView":8,
			"componentType":5126,
			"count":24,
			"type":"VEC2"
		},
		{
			"bufferView":9,
			"componentType":5123,
			"count":36,
			"type":"SCALAR"
		},
		{
			"bufferView":10,
			"componentType":5126,
			"count":13483,
			"max":[
				20.03093147277832,
				15.267990112304688,
				18.490921020507812
			],
			"min":[
				-19.458768844604492,
				-23.253875732421875,
				-20.77791976928711
			],
			"type":"VEC3"
		},
		{
			"bufferView":11,
			"componentType":5126,
			"count":13483,
			"type":"VEC3"
		},
		{
			"bufferView":12,
			"componentType":5126,
			"count":13483,
			"type":"VEC2"
		},
		{
			"bufferView":13,
			"componentType":5123,
			"count":13584,
			"type":"SCALAR"
		},
		{
			"bufferView":14,
			"componentType":5126,
			"count":489,
			"max":[
				6.75910758972168,
				2.1235580444335938,
				2.0696258544921875
			],
			"min":[
				-10.431310653686523,
				-2.0143356323242188,
				-2.0682621002197266
			],
			"type":"VEC3"
		},
		{
			"bufferView":15,
			"componentType":5126,
			"count":489,
			"type":"VEC3"
		},
		{
			"bufferView":16,
			"componentType":5126,
			"count":489,
			"type":"VEC2"
		},
		{
			"bufferView":17,
			"componentType":5123,
			"count":504,
			"type":"SCALAR"
		},
		{
			"bufferView":18,
			"componentType":5126,
			"count":3354,
			"max":[
				18.77358627319336,
				12.689083099365234,
				12.689034461975098
			],
			"min":[
				-10.736030578613281,
				-12.689010620117188,
				-12.689056396484375
			],
			"type":"VEC3"
		},
		{
			"bufferView":19,
			"componentType":5126,
			"count":3354,
			"type":"VEC3"
		},
		{
			"bufferView":20,
			"componentType":5126,
			"count":3354,
			"type":"VEC2"
		},
		{
			"bufferView":21,
			"componentType":5123,
			"count":3594,
			"type":"SCALAR"
		},
		{
			"bufferView":22,
			"componentType":5126,
			"count":1152,
			"max":[
				24.261512756347656,
				188.1529083251953,
				115.20820617675781
			],
			"min":[
				-24.26150131225586,
				69.28799438476562,
				5.250023365020752
			],
			"type":"VEC3"
		},
		{
			"bufferView":23,
			"componentType":5126,
			"count":1152,
			"type":"VEC3"
		},
		{
			"bufferView":24,
			"componentType":5126,
			"count":1152,
			"type":"VEC2"
		},
		{
			"bufferView":25,
			"componentType":5126,
			"count":1152,
			"type":"VEC2"
		},
		{
			"bufferView":26,
			"componentType":5126,
			"count":1152,
			"type":"VEC2"
		},
		{
			"bufferView":27,
			"componentType":5123,
			"count":1152,
			"type":"SCALAR"
		},
		{
			"bufferView":28,
			"componentType":5126,
			"count":1188,
			"max":[
				11.600275993347168,
				6.0231475830078125,
				11.920539855957031
			],
			"min":[
				-11.600626945495605,
				-6.596122741699219,
				-11.280363082885742
			],
			"type":"VEC3"
		},
		{
			"bufferView":29,
			"componentType":5126,
			"count":1188,
			"type":"VEC3"
		},
		{
			"bufferView":30,
			"componentType":5126,
			"count":1188,
			"type":"VEC2"
		},
		{
			"bufferView":31,
			"componentType":5123,
			"count":3840,
			"type":"SCALAR"
		},
		{
			"bufferView":32,
			"componentType":5126,
			"count":14534,
			"max":[
				44.90339660644531,
				191.64891052246094,
				117.60355377197266
			],
			"min":[
				-52.17879867553711,
				-3.512760877609253,
				-63.05592727661133
			],
			"type":"VEC3"
		},
		{
			"bufferView":33,
			"componentType":5126,
			"count":14534,
			"type":"VEC3"
		},
		{
			"bufferView":34,
			"componentType":5126,
			"count":14534,
			"type":"VEC2"
		},
		{
			"bufferView":35,
			"componentType":5123,
			"count":44394,
			"type":"SCALAR"
		},
		{
			"bufferView":36,
			"componentType":5126,
			"count":1092,
			"max":[
				9.699236869812012,
				10.23044490814209,
				8.232666015625
			],
			"min":[
				-9.700756072998047,
				-9.66317081451416,
				-8.777336120605469
			],
			"type":"VEC3"
		},
		{
			"bufferView":37,
			"componentType":5126,
			"count":1092,
			"type":"VEC3"
		},
		{
			"bufferView":38,
			"componentType":5126,
			"count":1092,
			"type":"VEC2"
		},
		{
			"bufferView":39,
			"componentType":5123,
			"count":1158,
			"type":"SCALAR"
		}
	],
	"bufferViews":[
		{
			"buffer":0,
			"byteLength":2304,
			"byteOffset":0,
			"target":34962
		},
		{
			"buffer":0,
			"byteLength":2304,
			"byteOffset":2304,
			"target":34962
		},
		{
			"buffer":0,
			"byteLength":1536,
			"byteOffset":4608,
			"target":34962
		},
		{
			"buffer":0,
			"byteLength":744,
			"byteOffset":6144,
			"target":34963
		},
		{
			"buffer":0,
			"byteLength":288,
			"byteOffset":6888,
			"target":34962
		},
		{
			"buffer":0,
			"byteLength":288,
			"byteOffset":7176,
			"target":34962
		},
		{
			"buffer":0,
			"byteLength":192,
			"byteOffset":7464,
			"target":34962
		},
		{
			"buffer":0,
			"byteLength":192,
			"byteOffset":7656,
			"target":34962
		},
		{
			"buffer":0,
			"byteLength":192,
			"byteOffset":7848,
			"target":34962
		},
		{
			"buffer":0,
			"byteLength":72,
			"byteOffset":8040,
			"target":34963
		},
		{
			"buffer":0,
			"byteLength":161796,
			"byteOffset":8112,
			"target":34962
		},
		{
			"buffer":0,
			"byteLength":161796,
			"byteOffset":169908,
			"target":34962
		},
		{
			"buffer":0,
			"byteLength":107864,
			"byteOffset":331704,
			"target":34962
		},
		{
			"buffer":0,
			"byteLength":27168,
			"byteOffset":439568,
			"target":34963
		},
		{
			"buffer":0,
			"byteLength":5868,
			"byteOffset":466736,
			"target":34962
		},
		{
			"buffer":0,
			"byteLength":5868,
			"byteOffset":472604,
			"target":34962
		},
		{
			"buffer":0,
			"byteLength":3912,
			"byteOffset":478472,
			"target":34962
		},
		{
			"buffer":0,
			"byteLength":1008,
			"byteOffset":482384,
			"target":34963
		},
		{
			"buffer":0,
			"byteLength":40248,
			"byteOffset":483392,
			"target":34962
		},
		{
			"buffer":0,
			"byteLength":40248,
			"byteOffset":523640,
			"target":34962
		},
		{
			"buffer":0,
			"byteLength":26832,
			"byteOffset":563888,
			"target":34962
		},
		{
			"buffer":0,
			"byteLength":7188,
			"byteOffset":590720,
			"target":34963
		},
		{
			"buffer":0,
			"byteLength":13824,
			"byteOffset":597908,
			"target":34962
		},
		{
			"buffer":0,
			"byteLength":13824,
			"byteOffset":611732,
			"target":34962
		},
		{
			"buffer":0,
			"byteLength":9216,
			"byteOffset":625556,
			"target":34962
		},
		{
			"buffer":0,
			"byteLength":9216,
			"byteOffset":634772,
			"target":34962
		},
		{
			"buffer":0,
			"byteLength":9216,
			"byteOffset":643988,
			"target":34962
		},
		{
			"buffer":0,
			"byteLength":2304,
			"byteOffset":653204,
			"target":34963
		},
		{
			"buffer":0,
			"byteLength":14256,
			"byteOffset":655508,
			"target":34962
		},
		{
			"buffer":0,
			"byteLength":14256,
			"byteOffset":669764,
			"target":34962
		},
		{
			"buffer":0,
			"byteLength":9504,
			"byteOffset":684020,
			"target":34962
		},
		{
			"buffer":0,
			"byteLength":7680,
			"byteOffset":693524,
			"target":34963
		},
		{
			"buffer":0,
			"byteLength":174408,
			"byteOffset":701204,
			"target":34962
		},
		{
			"buffer":0,
			"byteLength":174408,
			"byteOffset":875612,
			"target":34962
		},
		{
			"buffer":0,
			"byteLength":116272,
			"byteOffset":1050020,
			"target":34962
		},
		{
			"buffer":0,
			"byteLength":88788,
			"byteOffset":1166292,
			"target":34963
		},
		{
			"buffer":0,
			"byteLength":13104,
			"byteOffset":1255080,
			"target":34962
		},
		{
			"buffer":0,
			"byteLength":13104,
			"byteOffset":1268184,
			"target":34962
		},
		{
			"buffer":0,
			"byteLength":8736,
			"byteOffset":1281288,
			"target":34962
		},
		{
			"buffer":0,
			"byteLength":2316,
			"byteOffset":1290024,
			"target":34963
		}
	],
	"samplers":[
		{
			"magFilter":9729,
			"minFilter":9987
		}
	],
	"buffers":[
		{
			"byteLength":1292340,
			"uri":"scope.bin"
		}
	]
}
