<svg xmlns="http://www.w3.org/2000/svg" version="1.1" xmlns:xlink="http://www.w3.org/1999/xlink" xmlns:svgjs="http://svgjs.dev/svgjs" width="71" height="35"><svg width="71" height="35" viewBox="0 0 71 35" fill="none" xmlns="http://www.w3.org/2000/svg">
<g clip-path="url(#clip0_1009_19591)">
<rect width="71" height="35" rx="17.5" fill="#1F212D"></rect>
<path fill-rule="evenodd" clip-rule="evenodd" d="M31.1652 12.5507C33.0247 11.5906 35.0419 12.5686 35.7482 13.9684C36.653 15.763 35.7325 17.6001 34.2205 18.412C32.3505 19.4162 30.3525 18.4024 29.6042 17.043C28.6069 15.2319 29.684 13.3161 31.1652 12.5507ZM27.8076 55.6646C27.9744 55.8035 27.9055 55.7256 28.0896 55.8154C28.4446 55.9879 28.9787 56.3571 29.7114 56.6731C30.7749 57.1314 32.1198 57.5647 33.3542 57.7111C35.731 57.9949 38.0543 57.9 40.6137 56.9007C44.3958 55.4254 46.9211 52.854 48.4728 49.4912C48.7045 48.9887 48.8044 48.6209 49.03 48.0955L59.0958 45.3984C59.2015 46.1867 58.0655 49.0053 57.7024 49.7877C55.7236 54.0403 51.8638 57.8594 46.8587 59.5416C41.3619 61.3891 36.1299 60.8274 31.5151 58.3232L29.5515 57.1335C29.2227 56.8974 27.9681 55.9474 27.8061 55.665L27.8076 55.6646ZM47.6449 49.8706C47.8343 49.4727 48.2456 48.6911 48.3023 48.2936C43.0995 49.6081 37.5311 51.1766 32.2691 52.5866C31.7063 52.7374 30.521 53.24 30.0999 53.018C29.9 52.8391 29.8022 52.4921 29.9128 52.23C30.2257 51.9168 37.3705 50.1354 38.417 49.855L59.9309 44.0903C60.6698 43.8924 63.7141 42.9115 64.1859 43.0481C64.4867 43.2749 64.5253 43.6759 64.3522 43.9135C64.0176 44.2234 61.3643 44.7584 60.6689 44.9876C60.3532 46.6397 60.0757 47.8611 59.4377 49.3671C58.3975 51.8266 57.3803 53.4282 55.5837 55.4052C53.9747 57.1745 52.6756 58.1481 50.448 59.4423C48.435 60.6118 47.135 60.8714 44.8914 61.4726C42.9777 61.9854 41.1608 62.0716 39.4292 61.9743C36.2591 61.7991 33.3532 60.9857 30.6829 59.4928C29.0496 58.5801 28.3884 58.089 27.0478 56.9372C23.7809 54.1315 19.1135 40.4447 18.2721 36.1938C17.8257 33.9369 17.844 30.8581 18.3704 28.7625C18.5519 28.0425 18.7011 27.244 18.9652 26.5875C19.753 24.6254 19.6783 24.5735 20.813 22.6041C21.1504 22.0182 21.6054 21.3457 22.0644 20.7899C22.568 20.1793 22.9261 19.6766 23.5206 19.0891C23.9658 18.6486 24.6677 17.8886 25.2135 17.5191C24.9176 16.3489 24.8255 15.1455 25.093 14.1196C25.4141 12.882 25.5978 12.582 26.2308 11.4993C25.96 11.2171 25.5595 11.1256 25.9669 10.5561C26.0937 10.3784 26.4721 9.90383 26.6535 9.73899C26.3849 9.44088 26.1895 9.39842 25.8627 9.13424C25.0108 8.44491 25.0425 8.68264 26.5044 6.86561C28.5466 4.33029 27.5395 5.43821 29.3897 6.24694C29.5982 6.03357 29.7402 5.77531 29.9432 5.53586C30.6606 4.68448 30.8637 5.3825 32.0578 6.17281L37.5719 10.158C37.8205 10.3392 38.0041 10.4811 38.2444 10.6614C38.5121 10.8604 38.7075 10.9686 38.9328 11.1346L45.7349 16.1113C46.0172 16.317 51.1213 19.9304 51.2036 20.124C51.3961 20.5679 50.7185 20.9589 50.2878 21.6922C53.7217 24.2253 53.6219 23.2855 52.0806 25.3914C51.8815 25.6635 51.153 26.7243 50.8535 26.7648C50.4815 26.8155 48.3241 25.0996 47.808 24.8036C47.5006 25.0954 46.9618 25.9984 46.5161 26.1086C46.1154 26.1059 39.1967 20.7062 38.3033 20.2559C37.2482 21.1488 36.6082 21.8892 34.9615 22.4252C33.4285 22.9262 32.0597 22.929 30.7057 22.6587C29.5815 22.4338 30.0242 22.3305 28.6672 22.8073C26.6533 23.5136 24.992 24.6637 23.5467 26.0649C20.8987 28.6326 19.5317 32.553 19.8903 36.2022C20.0714 38.0485 23.7501 50.5413 24.827 52.0527C27.1988 55.3812 31.6982 57.5676 36.1767 57.276C39.1756 57.0811 42.2736 55.8825 44.2843 54.0957C45.7757 52.7709 45.6046 52.9146 46.7532 51.4033C47.1011 50.9461 47.3997 50.3828 47.6464 49.8702L47.6449 49.8706Z" fill="#DFE6EC"></path>
<path fill-rule="evenodd" clip-rule="evenodd" d="M32.8023 21.4481C28.3851 22.7929 25.1712 26.8991 25.1712 31.756C25.1712 36.6127 28.385 40.7189 32.8021 42.0637C31.808 42.3663 30.753 42.5291 29.6599 42.5291C23.7101 42.5291 18.8867 37.7058 18.8867 31.7559C18.8867 25.806 23.7101 20.9827 29.6599 20.9827C30.7531 20.9827 31.8081 21.1455 32.8023 21.4481Z" fill="#DFE6EC"></path>
</g>
<defs>
<clipPath id="SvgjsClipPath1025">
<rect width="71" height="35" rx="17.5" fill="white"></rect>
</clipPath>
</defs>
</svg><style>@media (prefers-color-scheme: light) { :root { filter: none; } }
@media (prefers-color-scheme: dark) { :root { filter: none; } }
</style></svg>