<svg width="867" height="271" fill="none" xmlns="http://www.w3.org/2000/svg"><g style="mix-blend-mode:soft-light"><path stroke="#DDDDEA" stroke-width="2" d="M703 266h-77"/><path fill="#DDDDEA" d="M491 116h4v9h-4zm212 82h4v9h-4zm0-39h4v9h-4zm2-95h4v9h-4zm98-63h4v9h-4zM491 129h4v9h-4z"/><circle cx="494" cy="171" r="4" fill="#DDDDEA"/><circle cx="856" cy="269" r="2" fill="#DDDDEA"/><circle cx="703" cy="266" r="4" transform="rotate(-90 703 266)" fill="#DDDDEA"/><circle cx="859" cy="98" r="2" fill="#DDDDEA"/><circle cx="705" cy="116" r="2" fill="#DDDDEA"/><circle cx="856" cy="202" r="4" fill="#DDDDEA"/><circle cx="819" cy="90" r="2" fill="#DDDDEA"/><circle cx="863" cy="4" r="4" fill="#DDDDEA"/><circle cx="492" cy="69" r="2" fill="#DDDDEA"/><circle cx="494" cy="266" r="4" fill="#DDDDEA"/></g><path stroke="#fff" stroke-width="8" stroke-dasharray="1 8" d="M0 92h753"/></svg>