<svg width="43" height="43" fill="none" xmlns="http://www.w3.org/2000/svg"><g clip-path="url(#clip0_3001_2522)"><path fill="#fff" d="M0 0h43v43H0z"/><g clip-path="url(#clip1_3001_2522)" fill-rule="evenodd" clip-rule="evenodd" fill="#000"><path d="M35.037 24.448l-.005 1.585c0 .132.061.162.148.159.113.002.156-.034.156-.166v-.57l.888.679.016.01c.067.056.215.07.269 0 .044-.054.058-.156-.007-.223l-.902-.678.896-.66c.06-.043.04-.146-.002-.2-.055-.059-.144-.081-.21-.039l-.945.703.01-.616c-.002-.045-.062-.1-.15-.1-.11.002-.16.059-.162.117v-.001zm-1.984-.117c-.084 0-.139.064-.139.119v1.114c0 .167-.011.255.082.41.093.152.247.218.446.208h.696c.118-.008.184.014.252-.112 0 .091.06.125.16.125.107 0 .144-.073.144-.13v-1.609c.002-.065-.061-.125-.157-.125a.138.138 0 00-.144.138v1.057c0 .054.009.115-.056.192-.083.1-.159.1-.28.099a31.785 31.785 0 01-.598-.008c-.045 0-.089 0-.132-.011-.074-.02-.116-.07-.125-.15v-1.194c0-.068-.062-.123-.15-.123h.001zm-.396.155v.067c0 .102-.038.136-.114.136h-.432v1.365c0 .101-.037.152-.112.152h-.08c-.075 0-.113-.05-.113-.152v-1.365h-.44c-.077 0-.1-.03-.1-.134v-.085c0-.101.03-.125.106-.125h1.185c.077 0 .1.039.1.14v.001zm-1.61 1.558c0 .102-.041.154-.126.154h-1.014c-.188 0-.327-.028-.421-.083-.147-.087-.221-.248-.221-.479v-.732c0-.376.195-.564.585-.564h1.086c.068 0 .102.052.102.154v.04c0 .102-.033.152-.102.152h-1.069a.625.625 0 00-.206.024c-.082.031-.123.092-.123.184v.726c0 .156.125.235.375.235h1.032c.069 0 .102.05.102.153v.037-.001zm-2.397-.428v-.723c0-.149-.116-.223-.35-.223h-.46a.547.547 0 00-.227.044c-.1.045-.15.115-.15.211v.692c0 .092.05.156.153.197a.61.61 0 00.225.039h.462a.491.491 0 00.208-.045c.093-.041.14-.106.14-.191v-.001zm.288-.001c0 .217-.076.378-.227.48a.708.708 0 01-.403.104h-.47c-.305 0-.507-.11-.605-.33a.614.614 0 01-.054-.253v-.693c0-.153.05-.285.147-.397.12-.138.29-.207.51-.207h.472c.42 0 .63.2.63.6v.697-.001zm-3.792.458l-.002-1.646c.006-.052.03-.086.07-.1h.15c.042 0 .064.036.068.104v.656h1.091v-.666c.01-.052.032-.083.07-.093h.148c.045.007.068.04.07.098v1.617c0 .099-.039.15-.087.148a3.71 3.71 0 00-.097.002c-.065.002-.107-.043-.103-.142v-.614a993.75 993.75 0 01-1.092-.005v.635c-.002.069-.032.111-.087.126h-.115c-.045-.007-.073-.047-.083-.12zm-1.326.12c-.102 0-.16-.03-.161-.098v-1.367c.045-.264.17-.398.373-.403h.662c.136 0 .174.068.172.202-.002.128-.06.19-.156.184h-.533c-.141 0-.2.055-.206.203v1.17c0 .077-.053.11-.15.11h-.001zm-.791-.534v-.438h-.984a.427.427 0 00-.17.041c-.085.04-.128.093-.128.159v.234c0 .077.05.13.148.163.035.01.087.022.159.035h.687c.192 0 .288-.065.288-.194zm.275-.02c0 .37-.189.556-.566.556h-.676a.65.65 0 01-.214-.04c-.25-.088-.376-.253-.376-.495v-.237c0-.193.068-.337.204-.435a.628.628 0 01.376-.112h.977c-.013-.126-.161-.234-.364-.234l-.474.005c-.068 0-.167-.01-.167-.111l.003-.084c0-.103.104-.11.172-.11h.449c.438 0 .657.19.657.569v.726l-.001.001zm-3.868-1.308c-.085 0-.14.064-.14.119v1.114c0 .167-.012.255.083.41.092.152.245.218.446.208h.695c.12-.008.184.014.252-.112 0 .091.06.125.16.125.107 0 .143-.073.143-.13v-1.609c.001-.065-.06-.125-.156-.124a.137.137 0 00-.144.137v1.057c0 .054.008.115-.057.192-.082.1-.159.1-.279.099a30.155 30.155 0 01-.599-.008c-.044 0-.088 0-.132-.011-.074-.02-.115-.07-.124-.15v-1.194c0-.068-.062-.123-.15-.123h.002zm-2.22 1.502v-1.635h1.101c.172.016.273.094.301.235v1.16c-.033.172-.147.252-.34.24h-1.061zm-.3-1.873c.005-.069.036-.114.095-.137h1.396c.298.056.465.216.5.48v1.34c.003.285-.17.469-.523.55h-1.35c-.079-.007-.117-.058-.117-.153v-2.08zm-2.121 1.156v-.227c0-.07-.052-.123-.159-.161a.619.619 0 00-.213-.04h-.399c-.277 0-.415.073-.415.217v.212h1.185zm.266.185c0 .112-.025.17-.077.17H13.62c0 .254.119.382.356.382l.686-.007c.067 0 .103.039.103.141l-.002.083c0 .103-.052.125-.119.125h-.64a.8.8 0 01-.43-.104c-.158-.097-.238-.259-.238-.482v-.681c0-.214.079-.372.236-.475a.76.76 0 01.422-.112h.513c.138 0 .257.035.357.105.131.09.197.228.197.409v.446zm1.618-.83v.067c0 .103-.038.137-.114.137h-.43v1.364c0 .103-.038.154-.114.154h-.08c-.075 0-.113-.051-.113-.154v-1.364h-.44c-.076 0-.1-.032-.1-.134v-.086c0-.101.029-.124.106-.124h1.185c.077 0 .101.038.101.14h-.001zm-5.341 1.31c0-.37-.002-.557-.002-.557h1.089c.1.013.207.046.207.215v.128c0 .175-.12.204-.22.214h-1.075zm.007-.966v-.558h1.088c.101.015.208.047.208.216v.127c0 .175-.12.204-.218.215h-1.077zm-.35-.836c.01-.077.044-.126.102-.143h1.369c.262.015.534.207.53.645v.156c0 .07-.004.104-.022.172a.42.42 0 01-.104.204c.091.125.134.242.127.349v.2a.63.63 0 01-.563.633h-1.316c-.072-.01-.113-.063-.124-.16V23.98z"/><path d="M18.71 6.269c.277-.214.552-.42.817-.618l.785-.575c.404.48.84 1.033 1.241 1.561l8.598 10.885-2.425 1.875c-.326.246-.503.429-.816.595l-.643-.838a25.81 25.81 0 01-.648-.828c-.991-1.311-2.34-2.869-3.233-4.102-.217-.3-.414-.463-.623-.808 1.934-1.765.484-4.547-1.588-4.547-1.188 0-1.104.337-1.695.448-.12-.261-1.222-1.508-1.375-1.803L18.71 6.27zm1.128 9.63c-.895 0-2.025-.461-2.557-.875-.643-.504-1.1-1.032-1.502-1.924-.383-.854-.44-1.966-.15-2.914.202-.662.856-1.808 1.365-2.054l1.168 1.508c-.197.266-.332.364-.504.746-.559 1.237-.117 2.604 1.017 3.271.966.57 1.724.424 2.704.036l.586.706c.122.17.145.204.27.35.117.136.186.204.269.367l-.145.111c-.707.476-1.676.673-2.522.673v-.001zm-.235-6.554c1.305-.292 2.387.667 2.591 1.671.262 1.287-.61 2.292-1.676 2.55-1.318.317-2.383-.662-2.62-1.647-.315-1.313.665-2.342 1.705-2.574zM9.038 20.038c.172-1.325 1.47-3.5 2.352-4.56.871-1.047 2.52-2.513 3.824-3.041.325 1.03.385 1.22 1.021 2.053.152.2.361.35.473.52-1.42.006-2.602.473-3.787 1.025-1.486.693-2.95 2.266-3.726 3.761l-.157.242zm1.373 9.354c.08.116.05.055.149.143.19.17.458.493.858.817.58.47 1.337.971 2.074 1.273 1.419.581 2.867.914 4.61.716 2.575-.291 4.557-1.489 6.07-3.35.225-.279.347-.494.573-.788h6.652c-.066.516-1.231 2.104-1.585 2.537-1.922 2.352-4.933 4.112-8.296 4.327-3.694.237-6.827-1.004-9.259-3.367l-1.014-1.084c-.164-.205-.78-1.018-.832-1.224zm13.187-.302c.183-.22.565-.644.666-.885-3.425-.05-7.117-.002-10.594-.002-.372 0-1.186.117-1.409-.095a.495.495 0 01.015-.53c.245-.144 4.944-.06 5.635-.06h14.216c.489 0 2.528-.105 2.796.061.148.195.105.455-.04.575-.258.14-1.982.029-2.449.056-.467.99-.84 1.715-1.482 2.558-1.048 1.378-1.94 2.218-3.374 3.163-1.284.846-2.246 1.24-3.833 1.681-1.434.398-2.279.342-3.761.342-1.265 0-2.4-.253-3.45-.607-1.926-.648-3.583-1.654-4.983-3.049-.856-.853-1.183-1.276-1.819-2.23-1.55-2.326-2.167-5.139-1.984-7.967.098-1.502.618-3.444 1.289-4.68.23-.423.454-.903.726-1.273.81-1.106.772-1.152 1.797-2.204a8.94 8.94 0 011.071-.934c.411-.3.715-.558 1.179-.828.347-.203.905-.565 1.303-.706.01-.79.153-1.565.487-2.168.403-.728.565-.886 1.135-1.463-.12-.224-.353-.35-.007-.64.107-.092.419-.327.558-.4-.117-.235-.23-.295-.388-.517-.411-.58-.43-.424.77-1.325 1.678-1.256.875-.726 1.882.098.163-.1.294-.239.458-.356.583-.416.593.06 1.199.76l2.741 3.452c.123.157.213.278.332.432.132.171.234.273.346.416l3.371 4.296c.14.178 2.69 3.325 2.71 3.461.044.313-.438.446-.825.836 1.699 2.182 1.793 1.571.495 2.641-.168.138-.793.685-.984.66-.238-.03-1.284-1.48-1.553-1.755-.238.133-.72.612-1.012.606-.247-.07-3.62-4.653-4.097-5.088-.798.385-1.315.745-2.419.805-1.028.056-1.872-.174-2.662-.574-.656-.332-.366-.322-1.281-.25-1.359.105-2.573.55-3.695 1.19-2.057 1.175-3.548 3.42-3.93 5.787-.193 1.197.011 3.088.426 4.226.912 2.504 3.325 4.647 6.134 5.221 1.881.385 3.99.152 5.524-.636 1.139-.585 1.01-.523 1.967-1.284.29-.23.566-.535.803-.817z"/></g></g><defs><clipPath id="clip0_3001_2522"><path fill="#fff" d="M0 0h43v43H0z"/></clipPath><clipPath id="clip1_3001_2522"><path fill="#fff" transform="translate(-1.71 -1.74)" d="M0 0h46.414v45.64H0z"/></clipPath></defs></svg>