<svg width="110" height="110" fill="none" xmlns="http://www.w3.org/2000/svg"><rect x="8.133" y="8.133" width="93.615" height="93.615" rx="46.808" fill="#fff"/><path d="M53.816 75.625a2.177 2.177 0 01-2.177-2.177V60.013a2.177 2.177 0 00-2.177-2.177H36.436a2.177 2.177 0 01-2.178-2.177v-1.434c0-1.202.975-2.177 2.178-2.177h13.026a2.177 2.177 0 002.177-2.177V36.437c0-1.203.974-2.177 2.177-2.177h2.25c1.203 0 2.177.974 2.177 2.177V49.87c0 1.203.975 2.177 2.177 2.177h13.026c1.203 0 2.178.975 2.178 2.177v1.434a2.177 2.177 0 01-2.178 2.177H60.42a2.177 2.177 0 00-2.177 2.177v13.435a2.177 2.177 0 01-2.177 2.177h-2.25z" fill="#3FA65F"/><g filter="url(#filter0_f_827_22554)"><path d="M53.816 75.625a2.177 2.177 0 01-2.177-2.177V60.013a2.177 2.177 0 00-2.177-2.177H36.436a2.177 2.177 0 01-2.177-2.177v-1.434c0-1.202.975-2.177 2.177-2.177h13.026a2.177 2.177 0 002.177-2.177V36.437c0-1.203.975-2.177 2.177-2.177h2.25c1.203 0 2.178.974 2.178 2.177V49.87c0 1.203.974 2.177 2.177 2.177h13.026c1.202 0 2.177.975 2.177 2.177v1.434a2.177 2.177 0 01-2.177 2.177H60.42a2.177 2.177 0 00-2.177 2.177v13.435a2.177 2.177 0 01-2.177 2.177h-2.25z" fill="#3FA65F"/></g><defs><filter id="filter0_f_827_22554" x=".259" y=".26" width="109.365" height="109.365" filterUnits="userSpaceOnUse" color-interpolation-filters="sRGB"><feFlood flood-opacity="0" result="BackgroundImageFix"/><feBlend in="SourceGraphic" in2="BackgroundImageFix" result="shape"/><feGaussianBlur stdDeviation="17" result="effect1_foregroundBlur_827_22554"/></filter></defs></svg>