<svg width="183" height="133" fill="none" xmlns="http://www.w3.org/2000/svg"><g clip-path="url(#clip0_827_22556)"><rect y="42.543" width="164.371" height="93.615" rx="46.808" transform="rotate(-15 0 42.543)" fill="#fff"/><circle cx="124.621" cy="57.608" r="35.922" transform="rotate(-15 124.621 57.608)" fill="#fff" stroke="#F04D4D" stroke-width="2"/><g filter="url(#filter0_f_827_22556)"><path d="M103.485 59.343c2.626 9.8 12.127 12.851 19.309 15.938 2.534 1.088 4.965 2.102 6.98 1.562 2.016-.54 3.615-2.632 5.264-4.845 4.68-6.26 11.379-13.655 8.754-23.453-2.625-9.799-15.573-13.783-22.117-1.93-11.594-6.993-20.816 2.927-18.19 12.728z" fill="#F04D4D"/></g><g clip-path="url(#clip1_827_22556)"><path d="M103.485 59.343c2.626 9.8 12.127 12.851 19.309 15.938 2.534 1.088 4.965 2.102 6.98 1.562 2.016-.54 3.615-2.632 5.264-4.845 4.68-6.26 11.379-13.655 8.754-23.453-2.625-9.799-15.573-13.783-22.117-1.93-11.594-6.993-20.816 2.927-18.19 12.728z" fill="#F04D4D"/></g></g><defs><clipPath id="clip0_827_22556"><rect y="42.543" width="164.371" height="93.615" rx="46.808" transform="rotate(-15 0 42.543)" fill="#fff"/></clipPath><clipPath id="clip1_827_22556"><path fill="#fff" transform="rotate(-15 206.809 -337.974)" d="M0 0h50.073v50.073H0z"/></clipPath><filter id="filter0_f_827_22556" x="39.035" y="-24.688" width="169.348" height="165.68" filterUnits="userSpaceOnUse" color-interpolation-filters="sRGB"><feFlood flood-opacity="0" result="BackgroundImageFix"/><feBlend in="SourceGraphic" in2="BackgroundImageFix" result="shape"/><feGaussianBlur stdDeviation="32" result="effect1_foregroundBlur_827_22556"/></filter></defs></svg>