<svg width="128" height="128" fill="none" xmlns="http://www.w3.org/2000/svg"><rect x="46.808" width="93.615" height="93.615" rx="46.808" transform="rotate(30 46.808 0)" fill="#fff"/><path d="M52.625 81.291a2.177 2.177 0 01-.797-2.974l6.717-11.634a2.177 2.177 0 00-.797-2.974l-11.28-6.513a2.177 2.177 0 01-.797-2.974l.716-1.242a2.177 2.177 0 012.974-.797l11.281 6.513a2.177 2.177 0 002.974-.796l6.718-11.635a2.177 2.177 0 012.973-.797l1.95 1.125a2.177 2.177 0 01.796 2.974l-6.717 11.635a2.177 2.177 0 00.797 2.974l11.28 6.513a2.177 2.177 0 01.797 2.974l-.716 1.241a2.177 2.177 0 01-2.974.797l-11.281-6.513a2.177 2.177 0 00-2.974.797L57.548 81.62a2.177 2.177 0 01-2.974.796l-1.95-1.125z" fill="#3FA65F"/><g filter="url(#filter0_f_827_22554)"><path d="M52.625 81.291a2.177 2.177 0 01-.797-2.974l6.717-11.634a2.177 2.177 0 00-.797-2.974l-11.28-6.513a2.177 2.177 0 01-.797-2.974l.716-1.242a2.177 2.177 0 012.974-.797l11.281 6.513a2.177 2.177 0 002.974-.796l6.718-11.635a2.177 2.177 0 012.973-.797l1.95 1.125a2.177 2.177 0 01.796 2.974l-6.717 11.635a2.177 2.177 0 00.797 2.974l11.28 6.513a2.177 2.177 0 01.797 2.974l-.716 1.241a2.177 2.177 0 01-2.974.797l-11.281-6.513a2.177 2.177 0 00-2.974.797L57.548 81.62a2.177 2.177 0 01-2.974.796l-1.95-1.125z" fill="#3FA65F"/></g><defs><filter id="filter0_f_827_22554" x="11.379" y="11.176" width="105.124" height="105.533" filterUnits="userSpaceOnUse" color-interpolation-filters="sRGB"><feFlood flood-opacity="0" result="BackgroundImageFix"/><feBlend in="SourceGraphic" in2="BackgroundImageFix" result="shape"/><feGaussianBlur stdDeviation="17" result="effect1_foregroundBlur_827_22554"/></filter></defs></svg>