<svg width="165" height="95" fill="none" xmlns="http://www.w3.org/2000/svg"><g clip-path="url(#clip0_827_22556)"><rect x=".314" y=".678" width="164.371" height="93.615" rx="46.808" fill="#fff"/><circle cx="116.79" cy="47.485" r="35.922" fill="#fff" stroke="#F04D4D" stroke-width="2"/><g filter="url(#filter0_f_827_22556)"><path d="M95.925 43.688c0 10.147 8.388 15.552 14.526 20.393 2.166 1.707 4.252 3.315 6.338 3.315 2.087 0 4.173-1.606 6.339-3.317 6.14-4.836 14.525-10.244 14.525-20.388 0-10.144-11.475-17.345-20.864-7.589-9.388-9.755-20.864-2.56-20.864 7.587z" fill="#F04D4D"/></g><path d="M95.925 43.69c0 10.147 8.388 15.553 14.526 20.393 2.166 1.707 4.252 3.315 6.338 3.315 2.087 0 4.173-1.606 6.339-3.317 6.14-4.837 14.525-10.244 14.525-20.388 0-10.144-11.475-17.345-20.864-7.589-9.388-9.756-20.864-2.56-20.864 7.587z" fill="#F04D4D"/></g><defs><clipPath id="clip0_827_22556"><rect x=".314" y=".678" width="164.371" height="93.615" rx="46.808" fill="#fff"/></clipPath><filter id="filter0_f_827_22556" x="31.925" y="-32.522" width="169.728" height="163.918" filterUnits="userSpaceOnUse" color-interpolation-filters="sRGB"><feFlood flood-opacity="0" result="BackgroundImageFix"/><feBlend in="SourceGraphic" in2="BackgroundImageFix" result="shape"/><feGaussianBlur stdDeviation="32" result="effect1_foregroundBlur_827_22556"/></filter></defs></svg>