<svg width="27" height="34" fill="none" xmlns="http://www.w3.org/2000/svg"><g clip-path="url(#clip0_827_19407)"><path d="M20.445 20.8v-3.804h2.862c.427 1.35.694 2.643.694 3.803h-3.556zm-.747-11.41a77.355 77.355 0 00-2.453-3.802h-.355v3.803h2.808zm.747 7.606v-3.802H16.89v3.802h3.555zm0-6.312v2.51h1.316c-.427-.837-.854-1.693-1.316-2.51zm-7.111 13.918v-3.803h3.556v-3.803h-3.556v-3.802h3.556V9.39h-3.556V5.588h3.556v-.513C14.934 2.28 13.334.359 13.334.359S2.667 13.194 2.667 20.8c0 6.294 4.782 11.408 10.667 11.408v-3.803h3.556v-3.802h-3.556zm3.556 6.94a9.799 9.799 0 003.555-2.263v-.875H16.89v3.138zm0-6.94h3.555v-3.803H16.89v3.803zm3.555 3.802h.818c.96-1.102 1.653-2.376 2.115-3.802h-2.933v3.802z" fill="#fff"/></g><defs><clipPath id="clip0_827_19407"><path fill="#fff" transform="translate(0 .332)" d="M0 0h26.667v33.333H0z"/></clipPath></defs></svg>