<svg width="53" height="28" fill="none" xmlns="http://www.w3.org/2000/svg"><path fill-rule="evenodd" clip-rule="evenodd" d="M23.168 4.454a13.125 13.125 0 00-18.779 0c-5.185 5.272-5.185 13.82 0 19.092a13.125 13.125 0 0018.778 0 13.502 13.502 0 001.983-2.57c.508-.854 2.192-.854 2.7 0 .544.916 1.205 1.78 1.983 2.57a13.125 13.125 0 0018.778 0c5.186-5.272 5.186-13.82 0-19.092a13.125 13.125 0 00-18.778 0 13.502 13.502 0 00-1.983 2.57c-.508.854-2.192.854-2.7 0a13.502 13.502 0 00-1.982-2.57z" fill="#000"/></svg>