<svg width="125" height="125" fill="none" xmlns="http://www.w3.org/2000/svg"><path fill-rule="evenodd" clip-rule="evenodd" d="M54.996 21.949a175.86 175.86 0 012.2-1.691l2.114-1.575a114.45 114.45 0 013.342 4.274L85.807 52.77l-6.53 5.134c-.879.675-1.355 1.175-2.197 1.63l-1.732-2.294a70.262 70.262 0 01-1.745-2.268c-2.67-3.592-6.302-7.858-8.708-11.235-.585-.82-1.113-1.267-1.677-2.215 5.207-4.832 1.302-12.452-4.277-12.452-3.198 0-2.973.924-4.567 1.226-.324-.715-3.288-4.129-3.7-4.936l4.322-3.414v.003zm3.037 26.375c-2.41 0-5.454-1.263-6.886-2.398-1.732-1.379-2.965-2.824-4.046-5.27-1.03-2.336-1.182-5.382-.404-7.978.545-1.813 2.306-4.952 3.677-5.627l3.145 4.131c-.531.728-.892.998-1.357 2.043-1.504 3.388-.314 7.133 2.739 8.959 2.603 1.559 4.643 1.162 7.281.098l1.58 1.934c.328.463.389.559.726.958.316.374.502.559.725 1.006l-.39.304c-1.905 1.302-4.514 1.842-6.793 1.842l.003-.002zM57.4 30.373c3.515-.8 6.43 1.828 6.98 4.578.703 3.525-1.642 6.277-4.514 6.981-3.552.871-6.419-1.81-7.056-4.51-.85-3.596 1.79-6.412 4.59-7.05zM28.946 59.66c.465-3.63 3.96-9.588 6.336-12.491 2.346-2.866 6.785-6.881 10.3-8.329.873 2.822 1.035 3.34 2.749 5.624.409.545.972.958 1.272 1.427-3.822.013-7.008 1.291-10.198 2.805-4.001 1.897-7.946 6.206-10.034 10.3l-.425.664zm3.698 25.619c.215.317.135.15.4.391.514.463 1.236 1.35 2.312 2.237 1.562 1.286 3.602 2.66 5.587 3.485 3.82 1.593 7.72 2.506 12.414 1.964 6.936-.8 12.273-4.079 16.346-9.178.608-.763.938-1.353 1.546-2.157h17.913c-.175 1.413-3.315 5.764-4.266 6.95-5.178 6.441-13.286 11.26-22.345 11.851-9.948.648-18.386-2.75-24.934-9.223l-2.731-2.97c-.441-.56-2.102-2.787-2.245-3.35h.003zm35.515-.829c.492-.6 1.523-1.762 1.794-2.424-9.224-.138-19.168-.005-28.532-.005-1.002 0-3.193.32-3.794-.26-.252-.402-.26-1.048.04-1.45.66-.397 13.315-.167 15.177-.167h38.287c1.315 0 6.806-.285 7.529.17.398.532.284 1.244-.11 1.575-.693.38-5.336.076-6.593.15-1.259 2.713-2.263 4.698-3.993 7.008-2.821 3.774-5.222 6.074-9.085 8.662-3.459 2.316-6.05 3.398-10.324 4.605-3.862 1.091-6.136.937-10.13.937-3.405 0-6.46-.693-9.292-1.665-5.186-1.773-9.649-4.528-13.418-8.35-2.306-2.336-3.186-3.493-4.899-6.107-4.176-6.37-5.836-14.075-5.342-21.82.263-4.114 1.663-9.433 3.47-12.815.62-1.162 1.224-2.475 1.954-3.488 2.181-3.03 2.08-3.155 4.84-6.037a24.169 24.169 0 012.886-2.56c1.107-.822 1.926-1.526 3.174-2.267.935-.556 2.439-1.546 3.51-1.932.029-2.163.411-4.288 1.312-5.94 1.084-1.992 1.522-2.426 3.055-4.006-.324-.614-.948-.958-.018-1.755.289-.248 1.129-.894 1.503-1.095-.313-.64-.619-.805-1.044-1.413-1.108-1.588-1.16-1.162 2.075-3.629 4.519-3.44 2.354-1.99 5.066.267.44-.272.792-.653 1.235-.973 1.57-1.141 1.597.161 3.228 2.082l7.383 9.454c.332.428.573.76.892 1.183.356.468.632.746.933 1.138l9.08 11.766c.377.487 7.244 9.107 7.295 9.48.122.857-1.177 1.22-2.218 2.29 4.574 5.975 4.827 4.302 1.33 7.232-.451.378-2.133 1.876-2.648 1.808-.64-.085-3.459-4.055-4.184-4.806-.64.362-1.937 1.675-2.726 1.659-.664-.19-9.75-12.743-11.033-13.937-2.149 1.056-3.54 2.04-6.514 2.205-2.768.156-5.042-.474-7.17-1.57-1.766-.91-.985-.883-3.45-.688-3.659.289-6.929 1.509-9.952 3.264-5.54 3.215-9.553 9.366-10.581 15.847-.52 3.279.029 8.458 1.145 11.573 2.457 6.86 8.955 12.73 16.521 14.302 5.066 1.053 10.743.415 14.877-1.744 3.066-1.601 2.717-1.432 5.297-3.515.781-.63 1.528-1.466 2.165-2.239h-.003z" fill="#F5F8FF"/><path fill-rule="evenodd" clip-rule="evenodd" d="M41.294 4.153c.005-.73-.125-.487 1.636-1.08C47.41 1.57 53.551.305 58.301.22c.611-.01.627-.122 1.161-.156 1.737-.114 3.732-.08 5.356.132.725.096 1.814.059 2.62.13 4.14.365 7.862 1.05 11.86 2.162 5.736 1.596 11.057 3.988 15.61 6.69 1.321.784 2.147 1.382 3.37 2.202 2.101 1.414 2.871 2.07 4.757 3.536 3.116 2.422 7.21 7.074 9.49 10.073 1.612 2.122 3.007 4.258 4.423 6.714 2.385 4.142 5.138 10.832 6.291 15.977 1.5 6.696 2.13 12.838 1.551 20.211-.67 8.535-3.73 18.274-7.848 25.584-1.381 2.45-2.885 4.605-4.412 6.722-.407.564-.805 1.014-1.182 1.538-.425.598-.824 1.061-1.26 1.593-2.507 3.049-5.44 5.714-8.432 8.278-.943.81-2.135 1.562-3.22 2.353-8.009 5.828-18.274 9.66-28.318 10.719-13.204 1.389-26.43-1.776-36.451-7.429-3.026-1.707-5.72-3.443-8.355-5.51l-4.61-3.814c-1.129-.971-1.766-1.799-2.77-2.797-1.969-1.956-3.414-3.92-5.125-6.013l-2.234-3.271c.871-.109.483-.109 1.392 1.006.486.595.728.833 1.204 1.384.823.947 1.588 1.857 2.457 2.726 5.855 5.851 10.464 9.196 18.136 12.965 15.475 7.603 34.597 7.95 50.855.622 7.505-3.385 12.932-7.429 18.2-12.899.439-.456.885-.837 1.291-1.295 4.737-5.316 7.917-10.35 10.972-17.517 4.312-10.107 5.457-24.067 2.71-35.558-2.45-10.245-6.918-17.84-13.419-25.415-1.596-1.86-4.667-4.655-6.582-6.243-1.852-1.532-3.845-2.869-6.073-4.295C82.428 5.386 71.223 2.18 59.72 1.797c-3.417-.113-6.644.172-9.84.561-1.445.175-2.994.469-4.42.779-1.273.275-2.997.87-4.169 1.018l.003-.002zm37.104 110.693c.003.624-.05.532-.699.704l-2.959.921c-2.011.614-6.578 1.548-8.66 1.752-1.528.148-3.255.28-4.811.346-2.984.125-6.823-.262-9.734-.614-5.579-.677-11.142-2.498-16.179-4.71-1.527-.673-5.49-2.681-6.763-3.608-.861-.624-2.208-1.423-3.148-2.032-3.295-2.128-4.564-3.562-7.181-5.777-1.464-1.239-2.604-2.493-3.895-4.01-1.828-2.144-2.914-3.48-4.558-5.804-1.86-2.628-4.312-7.124-5.492-10.046-5.738-14.214-5.738-29.44-.124-43.268 1.758-4.33 4.906-9.59 7.693-13.15l3-3.478c.19-.198.385-.473.578-.714l3.252-3.229C27.52 9.901 40.143 4.634 52.088 3.404c6.428-.664 13.224-.262 19.201 1.117 8.48 1.955 14.845 4.949 21.691 9.427 1.995 1.304 5.305 4.03 7.181 5.774 1.081 1.003 1.36 1.54 2.532 2.647.818.773 5.262 6.51 5.531 7.341-.513-.045-.423-.127-.707-.51l-2.805-3.285c-.351-.4-.792-.828-1.143-1.19L95.57 18.08c-1.046-.677-1.798-1.183-2.933-1.86-6.08-3.628-14.085-6.698-21.316-7.728-16.74-2.387-32.83 1.342-45.337 11.314-4.285 3.417-6.22 5.497-9.622 9.68-1.493 1.838-2.689 3.759-3.905 5.807-.606 1.02-1.156 1.89-1.73 3.06-2.087 4.27-2.651 6.035-3.937 10.557-.6 2.111-1.153 6.052-1.339 8.37-.704 8.872.627 16.793 3.81 24.68.523 1.296 3.416 6.883 4.157 8.01 1.305 1.983 3.674 5.169 5.202 6.839 1.06 1.156.964 1.193 2.276 2.52 2.192 2.214 5.282 4.752 7.917 6.721l2.893 1.903c8.384 5.317 19.1 8.9 29.568 9.107 4.128.082 9.417-.262 13.347-1.215.982-.238 2.999-.905 3.772-1h.005z" fill="url(#paint0_linear_1009_20223)"/><defs><linearGradient id="paint0_linear_1009_20223" x1="51.895" y1="125.003" x2="123.702" y2="45.964" gradientUnits="userSpaceOnUse"><stop stop-color="#03FF86"/><stop offset="1" stop-color="#076AFF"/></linearGradient></defs></svg>