<svg width="199" height="99" fill="none" xmlns="http://www.w3.org/2000/svg"><g clip-path="url(#clip0_1385_3997)" fill-rule="evenodd" clip-rule="evenodd" fill="#DFE6EC"><path d="M87.35 35.249c5.212-2.691 10.866.05 12.846 3.973 2.536 5.03-.044 10.18-4.282 12.455-5.242 2.815-10.842-.027-12.939-3.837-2.795-5.076.224-10.446 4.376-12.591zm-9.41 120.84c.467.389.274.171.79.423.995.483 2.492 1.518 4.545 2.404 2.981 1.284 6.751 2.499 10.21 2.909 6.662.796 13.174.53 20.348-2.271 10.6-4.135 17.678-11.342 22.027-20.768.65-1.408.93-2.439 1.562-3.912l28.213-7.559c.296 2.209-2.888 10.109-3.906 12.302-5.546 11.92-16.364 22.624-30.393 27.339-15.406 5.178-30.07 3.603-43.005-3.415l-5.504-3.335c-.921-.662-4.437-3.324-4.892-4.116l.005-.001zm55.6-16.239c.531-1.116 1.684-3.306 1.843-4.42-14.583 3.684-30.19 8.08-44.939 12.032-1.577.423-4.9 1.832-6.08 1.209-.56-.501-.834-1.474-.524-2.208.877-.878 20.903-5.871 23.836-6.657l60.299-16.157c2.071-.555 10.604-3.305 11.926-2.922.843.636.952 1.76.466 2.426-.937.868-8.374 2.368-10.323 3.01-.885 4.631-1.663 8.054-3.451 12.275-2.915 6.894-5.766 11.383-10.802 16.924-4.51 4.959-8.151 7.688-14.394 11.315-5.642 3.278-9.286 4.006-15.575 5.691-5.363 1.437-10.456 1.679-15.309 1.406-8.885-.491-17.03-2.771-24.514-6.955-4.578-2.558-6.431-3.935-10.189-7.163-9.157-7.864-22.238-46.226-24.597-58.14-1.25-6.326-1.2-14.955.276-20.828.509-2.018.927-4.257 1.667-6.097 2.208-5.5 1.999-5.644 5.179-11.164.946-1.643 2.22-3.527 3.508-5.085 1.411-1.712 2.415-3.12 4.081-4.767 1.248-1.235 3.215-3.365 4.745-4.4-.83-3.28-1.088-6.653-.338-9.529.9-3.469 1.415-4.31 3.19-7.344-.76-.791-1.882-1.047-.74-2.644.355-.498 1.415-1.828 1.924-2.29-.753-.835-1.3-.954-2.216-1.695-2.388-1.932-2.3-1.266 1.798-6.358 5.724-7.107 2.901-4.001 8.087-1.735.584-.597.982-1.321 1.551-1.992 2.011-2.387 2.58-.43 5.927 1.785l15.455 11.17c.697.507 1.212.905 1.885 1.41.75.558 1.298.861 1.929 1.327l19.066 13.948c.791.577 15.097 10.705 15.327 11.247.54 1.244-1.359 2.34-2.566 4.396 9.624 7.1 9.344 4.465 5.025 10.368-.559.762-2.6 3.736-3.44 3.85-1.043.142-7.089-4.668-8.536-5.498-.861.818-2.372 3.35-3.621 3.658-1.123-.008-20.515-15.142-23.019-16.404-2.957 2.503-4.751 4.578-9.366 6.08-4.297 1.404-8.133 1.412-11.928.655-3.151-.63-1.91-.92-5.714.416-5.645 1.98-10.301 5.203-14.352 9.13-7.422 7.197-11.253 18.186-10.248 28.414.508 5.174 10.818 40.19 13.837 44.426 6.647 9.329 19.258 15.457 31.811 14.64 8.405-.547 17.088-3.906 22.724-8.914 4.18-3.713 3.7-3.311 6.92-7.546.975-1.282 1.812-2.861 2.503-4.298l-.004.002z"/><path d="M91.939 60.185c-12.38 3.77-21.389 15.278-21.389 28.891 0 13.613 9.008 25.122 21.389 28.891a30.201 30.201 0 01-8.807 1.305c-16.677 0-30.196-13.519-30.196-30.196 0-16.676 13.52-30.195 30.196-30.195 3.063 0 6.02.456 8.807 1.304z"/></g><defs><clipPath id="clip0_1385_3997"><rect y=".07" width="199" height="98.099" rx="49.049" fill="#fff"/></clipPath></defs></svg>