<svg width="43" height="42" fill="none" xmlns="http://www.w3.org/2000/svg"><g clip-path="url(#clip0_3102_290)" fill-rule="evenodd" clip-rule="evenodd" fill="#fff"><path d="M33.524 24.1l-.005 1.46c0 .12.056.148.134.145.102.002.141-.031.141-.153v-.525l.803.625.015.01c.06.052.194.064.243 0 .04-.05.053-.144-.006-.205l-.816-.624.81-.607c.055-.04.037-.135-.001-.184-.05-.055-.13-.076-.19-.036l-.855.646.009-.566c-.002-.042-.057-.092-.136-.093-.1.002-.145.054-.146.108V24.1zm-1.796-.108c-.076 0-.125.059-.125.11v1.025c0 .154-.011.235.074.378.084.14.223.2.403.191h.63c.107-.007.166.012.228-.103 0 .083.054.115.145.115.097 0 .13-.067.13-.12v-1.48c.002-.06-.055-.116-.142-.116a.126.126 0 00-.13.127v.973c0 .05.008.106-.051.177-.075.092-.144.092-.253.09-.273 0-.45-.004-.542-.006-.04-.001-.08 0-.12-.01-.066-.02-.104-.066-.112-.138v-1.099c0-.063-.056-.114-.135-.114zm-.358.143v.062c0 .094-.034.125-.104.125h-.39v1.256c0 .093-.034.14-.102.14h-.072c-.068 0-.103-.047-.103-.14v-1.256h-.398c-.07 0-.09-.028-.09-.123v-.079c0-.093.027-.114.096-.114h1.073c.07 0 .09.035.09.128v.001zm-1.457 1.434c0 .094-.038.141-.114.141h-.918c-.17 0-.295-.026-.381-.076-.133-.08-.2-.228-.2-.44v-.674c0-.346.177-.519.53-.519h.982c.062 0 .093.047.093.141v.038c0 .093-.03.14-.093.14h-.967a.557.557 0 00-.186.022c-.074.028-.112.084-.112.169v.668c0 .144.114.216.34.216h.934c.062 0 .092.047.092.14v.035-.001zm-2.17-.394v-.665c0-.137-.104-.206-.315-.206h-.418a.487.487 0 00-.204.041c-.091.041-.137.106-.137.194v.637c0 .084.047.144.14.181a.54.54 0 00.203.036h.418c.067 0 .13-.014.188-.041.084-.038.126-.098.126-.176v-.001zm.262-.001c0 .2-.07.348-.206.441a.633.633 0 01-.365.096h-.426c-.274 0-.457-.101-.547-.303a.574.574 0 01-.048-.233v-.638c0-.141.045-.262.133-.365.108-.127.262-.19.46-.19h.428c.38 0 .57.184.57.552v.64zm-3.432.422l-.001-1.516c.005-.047.026-.078.062-.09h.137c.037 0 .058.032.061.095v.604h.988v-.614c.008-.048.028-.076.063-.085h.134c.04.006.061.036.063.09v1.488c0 .09-.036.139-.08.136a.999.999 0 00-.087.002c-.059.002-.096-.04-.093-.13v-.566l-.988-.004v.584c-.002.063-.03.102-.08.116h-.103c-.04-.006-.066-.043-.075-.11zm-1.2.11c-.092 0-.145-.027-.146-.09v-1.258c.041-.243.154-.367.338-.371h.599c.123 0 .158.062.156.186-.002.118-.055.175-.141.17h-.483c-.128 0-.181.05-.187.185v1.078c0 .07-.047.1-.135.1h-.001zm-.716-.491v-.404h-.89a.39.39 0 00-.154.038c-.077.037-.116.086-.116.146v.215c0 .072.045.12.134.15.032.01.079.021.144.033h.621c.174 0 .26-.06.26-.178zm.249-.02c0 .342-.17.513-.512.513h-.612a.58.58 0 01-.194-.038c-.226-.08-.34-.232-.34-.455v-.218c0-.177.062-.31.185-.4a.56.56 0 01.34-.103h.885c-.013-.116-.147-.215-.33-.215l-.429.004c-.062 0-.15-.009-.15-.102l.002-.078c0-.094.094-.101.155-.101h.406c.397 0 .595.175.595.524v.669h-.001zm-3.5-1.203c-.077 0-.126.059-.126.11v1.025c0 .154-.011.235.074.378.084.14.223.2.404.191h.629c.108-.007.167.012.228-.103 0 .083.054.115.145.115.096 0 .13-.067.13-.12v-1.48c0-.06-.056-.116-.142-.115a.126.126 0 00-.13.126c0 .51-.002.83 0 .973 0 .05.007.106-.052.177-.075.092-.143.092-.252.09a28.53 28.53 0 01-.542-.006c-.04-.001-.08 0-.12-.01-.067-.02-.104-.066-.112-.138v-1.099c0-.063-.056-.114-.136-.114h.002zm-2.008 1.383V23.87h.996c.155.015.246.087.272.216v1.069c-.03.157-.133.23-.307.22h-.961zm-.272-1.724c.004-.063.032-.105.086-.126h1.263c.27.051.42.199.453.441V25.2c.002.262-.155.431-.474.506h-1.222c-.07-.006-.106-.054-.106-.14V23.65zm-1.92 1.064v-.209c0-.065-.047-.114-.143-.148a.55.55 0 00-.193-.037h-.36c-.252 0-.377.067-.377.2v.195h1.073zm.241.17c0 .103-.023.156-.07.156h-1.234c0 .234.107.352.322.352l.62-.006c.061 0 .095.035.095.13l-.002.076c0 .094-.048.115-.108.115h-.579a.714.714 0 01-.389-.096c-.144-.09-.216-.238-.216-.443v-.627c0-.197.072-.343.214-.437a.678.678 0 01.382-.103h.464c.125 0 .233.032.323.096.118.084.178.21.178.376v.411zm1.464-.763v.061c0 .095-.035.126-.103.126h-.39v1.255c0 .095-.033.142-.102.142h-.072c-.068 0-.103-.047-.103-.142V24.31h-.398c-.069 0-.091-.03-.091-.124v-.078c0-.093.027-.115.096-.115h1.073c.07 0 .091.036.091.13zm-4.833 1.205c0-.342-.002-.513-.002-.513h.985c.091.012.188.043.188.198v.118c0 .16-.108.187-.198.197h-.974zm.007-.89l-.001-.512h.985c.091.013.188.042.188.198v.117c0 .161-.108.188-.197.198h-.975zm-.318-.768c.009-.072.04-.116.093-.132h1.239c.237.013.483.19.48.593v.144a.534.534 0 01-.02.158.389.389 0 01-.094.188c.082.115.12.222.114.321v.185a.575.575 0 01-.509.582h-1.19c-.066-.01-.102-.058-.112-.147v-1.892z"/><path d="M18.749 7.373c.25-.197.499-.386.739-.568l.71-.53c.366.441.76.951 1.123 1.437l7.78 10.017-2.194 1.725c-.295.226-.455.395-.738.547l-.582-.77c-.18-.22-.404-.517-.586-.763-.898-1.206-2.118-2.64-2.926-3.774-.197-.276-.374-.426-.564-.745 1.75-1.623.438-4.183-1.437-4.183-1.074 0-.998.31-1.534.411-.109-.24-1.105-1.387-1.243-1.658l1.452-1.147zm1.02 8.862c-.81 0-1.832-.424-2.314-.806-.582-.463-.996-.949-1.36-1.77-.345-.786-.396-1.809-.135-2.681.183-.61.775-1.664 1.236-1.89l1.056 1.387c-.178.245-.3.335-.456.687-.505 1.138-.105 2.396.92 3.01.875.523 1.56.39 2.447.033l.531.65c.11.155.13.187.244.322.106.125.169.187.244.338l-.131.102c-.64.437-1.517.619-2.283.619l.001-.001zm-.212-6.032c1.18-.268 2.16.615 2.345 1.539.236 1.184-.552 2.109-1.517 2.345-1.194.293-2.157-.608-2.37-1.515-.287-1.208.6-2.154 1.542-2.369zm-9.561 9.841c.156-1.22 1.33-3.221 2.129-4.197.788-.963 2.28-2.312 3.46-2.798.294.948.348 1.122.924 1.89.138.182.327.321.428.479-1.285.004-2.355.434-3.427.942-1.344.638-2.67 2.085-3.371 3.461l-.143.223zm1.242 8.608c.073.107.046.05.135.132.172.155.415.453.777.751.525.432 1.21.894 1.877 1.171 1.283.535 2.594.842 4.171.66 2.33-.269 4.124-1.37 5.492-3.084.205-.256.315-.454.52-.725h6.019c-.06.475-1.114 1.937-1.434 2.335-1.74 2.165-4.464 3.784-7.508 3.982-3.342.218-6.177-.924-8.378-3.099l-.917-.997c-.149-.189-.706-.937-.755-1.126h.001zm2.907-27.257c.002-.245-.042-.163.55-.362C16.2.527 18.262.103 19.858.074c.205-.004.21-.04.39-.053a9.812 9.812 0 011.8.045c.243.032.61.02.88.044 1.392.122 2.642.353 3.985.726a21.868 21.868 0 015.245 2.248c.444.263.722.464 1.132.74.706.475.965.695 1.599 1.188 1.047.813 2.422 2.377 3.188 3.384.542.713 1.01 1.431 1.486 2.256.802 1.392 1.727 3.64 2.114 5.368.505 2.25.716 4.314.521 6.791-.224 2.868-1.253 6.14-2.636 8.597-.465.823-.97 1.547-1.483 2.258-.136.19-.27.34-.397.517-.143.2-.277.356-.423.535-.843 1.025-1.828 1.92-2.833 2.782-.317.272-.718.524-1.082.79-2.691 1.958-6.14 3.246-9.515 3.602-4.437.466-8.881-.597-12.248-2.496a21.798 21.798 0 01-2.807-1.852l-1.549-1.281c-.38-.326-.594-.605-.93-.94-.662-.657-1.148-1.317-1.723-2.02l-.75-1.1c.292-.036.162-.036.467.338.164.2.245.28.405.466.276.318.533.624.825.915 1.968 1.967 3.516 3.09 6.094 4.357 5.2 2.554 11.625 2.671 17.087.209 2.522-1.138 4.346-2.496 6.116-4.334.147-.153.297-.281.434-.435 1.591-1.787 2.66-3.478 3.686-5.886 1.449-3.396 1.833-8.087.91-11.948-.823-3.442-2.324-5.994-4.508-8.539-.537-.625-1.569-1.564-2.212-2.098-.622-.514-1.292-.964-2.04-1.443C27.965 1.81 24.2.733 20.335.604c-1.148-.038-2.233.058-3.306.188-.486.06-1.006.158-1.486.262-.427.092-1.007.292-1.4.342zm12.467 37.193c0 .21-.017.179-.235.237l-.994.31c-.676.206-2.21.52-2.91.588-.514.05-1.094.094-1.617.116-1.002.042-2.292-.088-3.27-.206-1.875-.228-3.744-.84-5.436-1.583-.514-.226-1.845-.9-2.273-1.212-.29-.21-.742-.478-1.058-.683-1.106-.715-1.533-1.197-2.412-1.94-.492-.417-.875-.839-1.309-1.348-.614-.72-.98-1.17-1.532-1.95-.624-.883-1.448-2.394-1.845-3.376-1.928-4.776-1.928-9.892-.042-14.538.591-1.454 1.649-3.222 2.585-4.418l1.008-1.169c.064-.066.13-.159.195-.24l1.092-1.085c2.958-2.764 7.2-4.534 11.212-4.947 2.16-.223 4.444-.088 6.452.375 2.85.657 4.988 1.663 7.288 3.167.67.439 1.783 1.355 2.413 1.94.363.338.457.518.85.89.276.26 1.769 2.187 1.86 2.467-.173-.015-.143-.043-.238-.172l-.943-1.104c-.118-.134-.266-.278-.384-.4l-2.687-2.232c-.352-.227-.605-.397-.986-.625-2.043-1.219-4.732-2.25-7.162-2.596-5.625-.802-11.031.45-15.233 3.801-1.44 1.148-2.09 1.847-3.233 3.253-.502.617-.904 1.263-1.313 1.95-.203.343-.388.636-.58 1.029-.702 1.434-.892 2.027-1.324 3.547-.201.71-.387 2.034-.45 2.813-.236 2.98.211 5.642 1.28 8.292.176.435 1.148 2.313 1.398 2.691.438.666 1.234 1.737 1.747 2.298.356.389.324.401.765.847.737.744 1.775 1.597 2.66 2.258l.972.64c2.817 1.786 6.418 2.99 9.935 3.06 1.387.027 3.164-.089 4.485-.409.33-.08 1.007-.304 1.267-.336h.002zm-3.44-10.214c.165-.202.511-.593.602-.815-3.099-.046-6.44-.002-9.587-.002-.336 0-1.072.108-1.274-.087a.462.462 0 01.013-.487c.222-.134 4.474-.056 5.1-.056H30.89c.442 0 2.287-.096 2.53.057.134.178.095.418-.037.529-.233.128-1.793.026-2.215.05-.423.912-.76 1.579-1.342 2.355-.948 1.268-1.755 2.041-3.053 2.91-1.162.779-2.032 1.142-3.468 1.548-1.298.366-2.062.315-3.404.315-1.144 0-2.17-.233-3.122-.56-1.743-.595-3.242-1.521-4.509-2.805-.775-.785-1.07-1.174-1.646-2.053-1.403-2.14-1.96-4.728-1.795-7.331.089-1.382.559-3.17 1.166-4.306.209-.39.411-.831.657-1.172.733-1.018.699-1.06 1.626-2.028.276-.288.63-.608.97-.86.372-.277.647-.513 1.066-.762.315-.187.82-.52 1.18-.65.01-.726.138-1.44.44-1.995.365-.67.512-.815 1.027-1.346-.109-.206-.319-.322-.006-.59.097-.083.379-.3.505-.368-.105-.215-.208-.27-.35-.474-.373-.534-.391-.39.696-1.22 1.518-1.156.791-.668 1.702.09.149-.091.266-.22.416-.327.527-.383.536.054 1.084.7l2.48 3.176c.112.144.193.255.3.398.12.157.213.25.314.382l3.05 3.954c.127.163 2.435 3.06 2.452 3.185.04.288-.396.41-.745.769 1.537 2.008 1.621 1.446.447 2.43-.152.127-.717.63-.89.607-.215-.028-1.162-1.362-1.406-1.614-.215.122-.65.563-.916.557-.223-.064-3.276-4.282-3.707-4.683-.722.355-1.19.686-2.189.741-.93.053-1.694-.159-2.409-.527-.593-.306-.33-.297-1.16-.231-1.228.097-2.327.507-3.343 1.096-1.861 1.08-3.21 3.147-3.555 5.325-.175 1.102.01 2.842.384 3.888.826 2.305 3.01 4.278 5.552 4.806 1.702.354 3.61.14 4.998-.586 1.03-.538.913-.481 1.78-1.181a5.38 5.38 0 00.728-.752h-.001z"/></g><defs><clipPath id="clip0_3102_290"><path fill="#fff" transform="translate(.27)" d="M0 0h42v42H0z"/></clipPath></defs></svg>