<svg width="71" height="35" fill="none" xmlns="http://www.w3.org/2000/svg"><g clip-path="url(#clip0_1009_19591)"><rect width="71" height="35" rx="17.5" fill="#1F212D"/><path fill-rule="evenodd" clip-rule="evenodd" d="M31.165 12.55c1.86-.96 3.877.019 4.583 1.418.905 1.795-.015 3.632-1.527 4.444-1.87 1.004-3.868-.01-4.617-1.369-.997-1.811.08-3.727 1.561-4.492zm-3.357 43.115c.166.139.098.06.282.15.355.173.889.542 1.621.858 1.064.458 2.409.892 3.643 1.038 2.377.284 4.7.189 7.26-.81 3.782-1.476 6.307-4.047 7.859-7.41.232-.502.331-.87.557-1.395l10.066-2.698c.106.789-1.03 3.607-1.394 4.39-1.978 4.252-5.838 8.071-10.843 9.754-5.497 1.847-10.73 1.285-15.344-1.219l-1.963-1.19c-.33-.236-1.584-1.186-1.746-1.468h.002zm19.837-5.794c.19-.398.6-1.18.657-1.577-5.203 1.314-10.77 2.883-16.033 4.293-.563.15-1.748.653-2.17.431-.199-.179-.297-.526-.186-.788.313-.313 7.457-2.095 8.504-2.375l21.514-5.765c.739-.198 3.783-1.179 4.255-1.042.3.227.34.628.166.865-.334.31-2.988.845-3.683 1.075-.316 1.652-.593 2.873-1.231 4.38-1.04 2.459-2.058 4.06-3.854 6.037-1.61 1.77-2.908 2.743-5.136 4.037-2.013 1.17-3.313 1.43-5.557 2.03-1.913.513-3.73.6-5.462.502-3.17-.175-6.076-.988-8.746-2.481-1.633-.913-2.295-1.404-3.635-2.556-3.267-2.805-7.934-16.492-8.776-20.743-.446-2.257-.428-5.336.098-7.432.182-.72.331-1.518.595-2.175.788-1.962.713-2.014 1.848-3.983.337-.586.792-1.258 1.251-1.814.504-.61.862-1.113 1.457-1.7.445-.441 1.147-1.201 1.692-1.57-.295-1.171-.387-2.374-.12-3.4.321-1.238.505-1.538 1.138-2.62-.271-.283-.672-.374-.264-.944.127-.178.505-.652.687-.817-.27-.298-.465-.34-.791-.605-.852-.69-.82-.451.641-2.268 2.043-2.536 1.035-1.428 2.886-.62.208-.212.35-.47.553-.71.718-.852.92-.153 2.115.637l5.514 3.985c.248.181.432.323.672.503.268.2.464.308.689.474l6.802 4.976c.282.206 5.386 3.82 5.469 4.013.192.444-.486.835-.916 1.568 3.434 2.533 3.334 1.593 1.793 3.7-.2.271-.928 1.332-1.228 1.373-.372.05-2.529-1.665-3.045-1.961-.307.291-.846 1.194-1.292 1.305-.4-.003-7.32-5.403-8.213-5.853-1.055.893-1.695 1.633-3.341 2.17-1.534.5-2.902.503-4.256.233-1.125-.225-.682-.328-2.039.148-2.014.707-3.675 1.857-5.12 3.258-2.648 2.568-4.015 6.488-3.657 10.137.181 1.846 3.86 14.34 4.937 15.85 2.372 3.33 6.871 5.516 11.35 5.224 2.999-.195 6.097-1.394 8.107-3.18 1.492-1.325 1.32-1.181 2.47-2.693.347-.457.646-1.02.892-1.533h-.001z" fill="#DFE6EC"/><path fill-rule="evenodd" clip-rule="evenodd" d="M32.802 21.448c-4.417 1.345-7.63 5.451-7.63 10.308s3.213 8.963 7.63 10.308c-.994.302-2.049.465-3.142.465-5.95 0-10.773-4.823-10.773-10.773 0-5.95 4.823-10.773 10.773-10.773 1.093 0 2.148.162 3.142.465z" fill="#DFE6EC"/></g><defs><clipPath id="clip0_1009_19591"><rect width="71" height="35" rx="17.5" fill="#fff"/></clipPath></defs></svg>