<svg width="125" height="125" fill="none" xmlns="http://www.w3.org/2000/svg"><g clip-path="url(#clip0_778_13432)"><path fill-rule="evenodd" clip-rule="evenodd" d="M54.996 21.937a175.86 175.86 0 012.2-1.691l2.115-1.575a117.02 117.02 0 013.342 4.274l23.154 29.813-6.53 5.134c-.879.675-1.354 1.175-2.197 1.63l-1.732-2.294a70.113 70.113 0 01-1.745-2.268c-2.67-3.591-6.301-7.858-8.708-11.235-.585-.82-1.113-1.267-1.677-2.215 5.207-4.832 1.302-12.451-4.277-12.451-3.198 0-2.972.923-4.566 1.225-.324-.715-3.29-4.129-3.701-4.936l4.322-3.414v.003zm3.037 26.375c-2.41 0-5.454-1.262-6.886-2.398-1.732-1.379-2.965-2.824-4.046-5.269-1.03-2.337-1.182-5.383-.404-7.98.545-1.812 2.306-4.95 3.677-5.626l3.145 4.131c-.531.728-.892.998-1.357 2.044-1.504 3.387-.314 7.132 2.739 8.958 2.603 1.559 4.643 1.162 7.281.098l1.581 1.934c.327.464.388.559.725.959.316.373.502.558.725 1.005l-.39.305c-1.905 1.302-4.513 1.842-6.793 1.842l.003-.003zM57.4 30.36c3.515-.8 6.43 1.828 6.98 4.578.703 3.525-1.642 6.278-4.514 6.982-3.552.87-6.419-1.81-7.056-4.51-.85-3.597 1.79-6.413 4.59-7.05zM28.947 59.65c.465-3.631 3.96-9.589 6.336-12.492 2.346-2.866 6.785-6.88 10.3-8.328.873 2.82 1.035 3.34 2.749 5.623.41.545.972.958 1.272 1.427-3.822.013-7.008 1.291-10.198 2.805-4.001 1.898-7.946 6.206-10.034 10.3l-.425.665zm3.698 25.618c.215.317.135.15.401.391.513.464 1.235 1.35 2.311 2.237 1.562 1.286 3.602 2.66 5.587 3.485 3.82 1.593 7.72 2.507 12.414 1.964 6.937-.8 12.274-4.078 16.346-9.178.608-.762.938-1.353 1.546-2.157h17.914c-.176 1.413-3.316 5.764-4.267 6.95-5.178 6.441-13.285 11.261-22.344 11.851-9.95.648-18.387-2.75-24.935-9.223l-2.731-2.97c-.441-.56-2.101-2.786-2.245-3.35h.003zm8.65-81.121c.005-.73-.125-.487 1.636-1.08C47.41 1.564 53.551.3 58.301.214c.611-.01.627-.121 1.161-.156 1.737-.114 3.732-.08 5.356.132.725.096 1.814.059 2.62.13 4.14.365 7.862 1.05 11.86 2.162 5.736 1.596 11.057 3.989 15.61 6.69 1.321.784 2.147 1.382 3.37 2.203 2.101 1.413 2.871 2.07 4.757 3.535 3.116 2.422 7.21 7.074 9.49 10.073 1.612 2.122 3.007 4.258 4.423 6.714 2.385 4.142 5.138 10.832 6.291 15.977 1.5 6.696 2.13 12.838 1.551 20.211-.67 8.535-3.73 18.275-7.848 25.584-1.381 2.451-2.885 4.605-4.412 6.722-.407.564-.805 1.014-1.182 1.538-.425.598-.824 1.061-1.26 1.593-2.507 3.049-5.44 5.714-8.432 8.279-.943.809-2.135 1.561-3.22 2.352-8.009 5.828-18.274 9.66-28.319 10.719-13.203 1.389-26.43-1.776-36.45-7.429-3.026-1.707-5.72-3.443-8.355-5.51l-4.61-3.814c-1.129-.971-1.766-1.799-2.77-2.797-1.969-1.956-3.414-3.92-5.125-6.013l-2.234-3.271c.871-.109.483-.109 1.392 1.006.486.595.728.833 1.204 1.384.823.947 1.588 1.858 2.457 2.726 5.855 5.851 10.464 9.196 18.136 12.965 15.475 7.603 34.597 7.95 50.855.622 7.505-3.385 12.932-7.429 18.2-12.899.439-.455.885-.837 1.291-1.294 4.737-5.317 7.917-10.35 10.972-17.518 4.312-10.107 5.457-24.067 2.71-35.558-2.45-10.245-6.918-17.84-13.419-25.415-1.596-1.86-4.667-4.655-6.582-6.243-1.852-1.532-3.845-2.869-6.073-4.295C82.428 5.38 71.223 2.175 59.72 1.792c-3.417-.114-6.644.172-9.84.56-1.446.175-2.994.47-4.42.779-1.273.275-2.997.87-4.169 1.019l.003-.003zM78.398 114.84c.003.624-.05.532-.699.704l-2.959.921c-2.011.614-6.578 1.548-8.66 1.752-1.528.148-3.255.28-4.811.347-2.984.124-6.823-.262-9.734-.614-5.579-.678-11.142-2.499-16.179-4.711-1.527-.672-5.49-2.681-6.763-3.607-.861-.625-2.208-1.424-3.148-2.033-3.295-2.128-4.564-3.562-7.181-5.777-1.464-1.239-2.604-2.493-3.895-4.01-1.828-2.143-2.914-3.48-4.558-5.803-1.86-2.629-4.312-7.125-5.492-10.047-5.738-14.214-5.738-29.44-.124-43.268 1.758-4.33 4.906-9.59 7.693-13.15l3-3.477c.19-.199.385-.474.578-.715l3.252-3.229C27.52 9.895 40.143 4.63 52.088 3.398c6.428-.664 13.224-.262 19.201 1.117 8.48 1.956 14.845 4.949 21.691 9.427 1.995 1.304 5.305 4.03 7.181 5.774 1.081 1.003 1.36 1.54 2.532 2.647.818.773 5.262 6.51 5.531 7.341-.513-.045-.423-.127-.707-.51l-2.805-3.285c-.351-.4-.792-.828-1.143-1.19l-7.999-6.643c-1.046-.678-1.798-1.183-2.933-1.86-6.08-3.63-14.085-6.7-21.316-7.729C54.581 6.1 38.491 9.83 25.984 19.801c-4.285 3.417-6.22 5.497-9.622 9.681-1.493 1.837-2.689 3.758-3.905 5.806-.606 1.02-1.156 1.89-1.73 3.06-2.088 4.269-2.651 6.034-3.937 10.557-.6 2.112-1.153 6.052-1.339 8.37-.704 8.872.627 16.793 3.81 24.68.523 1.296 3.416 6.883 4.157 8.01 1.305 1.983 3.674 5.169 5.202 6.839 1.06 1.156.964 1.194 2.276 2.52 2.192 2.215 5.282 4.753 7.917 6.722l2.893 1.902c8.384 5.317 19.1 8.901 29.568 9.107 4.128.082 9.417-.262 13.346-1.215.983-.238 3-.905 3.773-1h.005zM68.16 84.44c.491-.601 1.522-1.763 1.793-2.425-9.224-.137-19.167-.005-28.532-.005-1.001 0-3.193.32-3.793-.26-.253-.402-.26-1.047.04-1.45.658-.397 13.314-.166 15.176-.166h38.287c1.315 0 6.806-.286 7.529.169.398.532.284 1.244-.11 1.575-.692.38-5.336.076-6.593.15-1.259 2.713-2.263 4.698-3.993 7.008-2.82 3.774-5.222 6.074-9.085 8.662-3.459 2.316-6.05 3.399-10.324 4.605-3.862 1.091-6.136.937-10.13.937-3.405 0-6.46-.693-9.292-1.664-5.185-1.774-9.649-4.529-13.418-8.35-2.306-2.337-3.185-3.493-4.899-6.108-4.176-6.37-5.836-14.074-5.342-21.82.263-4.113 1.663-9.433 3.47-12.815.62-1.162 1.224-2.475 1.954-3.488 2.182-3.03 2.08-3.155 4.84-6.037a24.257 24.257 0 012.886-2.56c1.108-.822 1.926-1.526 3.174-2.267.935-.556 2.44-1.546 3.51-1.932.029-2.162.411-4.287 1.312-5.939 1.084-1.993 1.522-2.427 3.055-4.007-.324-.614-.948-.958-.018-1.754.29-.25 1.129-.895 1.503-1.096-.313-.64-.619-.805-1.044-1.413-1.108-1.588-1.16-1.162 2.075-3.629 4.519-3.44 2.354-1.99 5.066.268.441-.273.792-.654 1.235-.974 1.57-1.14 1.597.161 3.228 2.083l7.383 9.453c.332.429.574.76.892 1.183.356.468.633.746.933 1.138l9.08 11.766c.377.487 7.245 9.107 7.295 9.48.122.857-1.177 1.22-2.218 2.29 4.574 5.975 4.827 4.302 1.33 7.232-.451.379-2.133 1.877-2.648 1.808-.64-.085-3.459-4.055-4.184-4.806-.64.362-1.937 1.675-2.726 1.66-.664-.191-9.75-12.744-11.032-13.937-2.15 1.055-3.542 2.04-6.514 2.204-2.769.156-5.043-.474-7.17-1.57-1.767-.91-.986-.883-3.451-.687-3.658.288-6.929 1.508-9.952 3.263-5.539 3.215-9.553 9.366-10.581 15.847-.52 3.28.03 8.458 1.145 11.573 2.457 6.86 8.955 12.73 16.521 14.302 5.066 1.053 10.743.416 14.877-1.744 3.066-1.601 2.718-1.432 5.297-3.515.781-.63 1.528-1.466 2.165-2.239h-.002z" fill="#F5F8FF"/></g><defs><clipPath id="clip0_778_13432"><path fill="#fff" d="M0 0h125v125H0z"/></clipPath></defs></svg>