<svg width="61" height="61" fill="none" xmlns="http://www.w3.org/2000/svg"><g clip-path="url(#clip0_821_3819)"><path fill-rule="evenodd" clip-rule="evenodd" d="M26.838 10.705c.364-.286.725-.56 1.074-.825l1.032-.769c.53.64 1.103 1.38 1.63 2.086l11.3 14.549-3.187 2.505c-.429.33-.66.573-1.072.796l-.845-1.12c-.26-.32-.587-.75-.852-1.107-1.303-1.752-3.075-3.834-4.25-5.482-.285-.4-.543-.619-.817-1.081 2.54-2.359.635-6.077-2.088-6.077-1.56 0-1.45.451-2.228.598-.158-.348-1.605-2.014-1.806-2.408l2.11-1.666zm1.482 12.87c-1.176 0-2.662-.615-3.36-1.17-.846-.672-1.447-1.377-1.975-2.57-.503-1.141-.577-2.628-.197-3.894.266-.885 1.125-2.417 1.794-2.746l1.535 2.016c-.259.355-.435.487-.662.997-.734 1.653-.153 3.48 1.337 4.372 1.27.76 2.266.567 3.553.047l.771.945c.16.226.19.272.354.467.155.182.245.272.354.49l-.19.15c-.93.635-2.203.898-3.315.898l.001-.001zm-.308-8.76c1.715-.39 3.137.893 3.405 2.235.344 1.72-.801 3.063-2.203 3.407-1.733.425-3.132-.883-3.443-2.2-.415-1.756.874-3.13 2.24-3.441zM14.126 29.11c.226-1.772 1.932-4.68 3.092-6.096 1.144-1.399 3.31-3.358 5.026-4.065.426 1.377.505 1.63 1.341 2.745.2.266.475.467.621.696-1.865.006-3.42.63-4.976 1.369-1.953.926-3.878 3.029-4.897 5.027l-.207.324zm1.804 12.5c.105.155.066.074.196.191.25.227.603.66 1.128 1.092.762.627 1.758 1.298 2.726 1.7 1.864.778 3.768 1.224 6.058.959 3.385-.39 5.99-1.99 7.977-4.479.297-.372.458-.66.755-1.053h8.741c-.085.69-1.618 2.813-2.082 3.392-2.526 3.144-6.483 5.495-10.904 5.783-4.855.317-8.972-1.342-12.168-4.5l-1.333-1.45c-.215-.273-1.025-1.36-1.095-1.635h.001zm4.221-39.587c.003-.356-.06-.237.799-.527 2.186-.733 5.183-1.35 7.5-1.392.3-.005.307-.06.567-.076a14.25 14.25 0 012.614.065c.354.046.886.028 1.278.063 2.021.178 3.838.513 5.789 1.055a31.76 31.76 0 017.617 3.265c.645.382 1.048.674 1.644 1.074 1.026.69 1.402 1.01 2.322 1.726 1.52 1.182 3.519 3.452 4.631 4.915a30.273 30.273 0 012.159 3.277c1.164 2.021 2.507 5.286 3.07 7.797.732 3.267 1.04 6.265.757 9.863-.327 4.165-1.82 8.918-3.83 12.485-.674 1.196-1.408 2.247-2.153 3.28-.199.275-.393.495-.577.75-.208.292-.402.518-.615.778-1.224 1.488-2.655 2.788-4.115 4.04-.46.395-1.042.762-1.57 1.148-3.91 2.844-8.919 4.714-13.82 5.23-6.444.678-12.899-.866-17.789-3.625-1.476-.833-2.79-1.68-4.077-2.689l-2.25-1.86c-.55-.475-.861-.879-1.351-1.366-.961-.954-1.666-1.913-2.501-2.934l-1.09-1.596c.425-.053.236-.053.679.49.237.291.355.407.587.676.402.462.775.907 1.2 1.33 2.857 2.856 5.106 4.488 8.85 6.327 7.552 3.71 16.883 3.88 24.817.304 3.663-1.652 6.311-3.626 8.882-6.295.214-.222.432-.408.63-.632 2.311-2.594 3.863-5.05 5.354-8.548 2.104-4.932 2.663-11.745 1.322-17.353-1.195-4.999-3.375-8.706-6.548-12.402-.779-.908-2.277-2.272-3.212-3.047-.904-.747-1.876-1.4-2.964-2.096-4.532-2.898-10-4.462-15.614-4.649-1.667-.056-3.242.084-4.802.274-.705.085-1.46.228-2.157.38-.62.134-1.462.424-2.034.497l.001-.002zm18.107 54.019c.002.304-.024.26-.34.343l-1.445.45c-.981.3-3.21.755-4.226.855-.746.072-1.588.136-2.348.169-1.456.06-3.33-.128-4.75-.3-2.723-.33-5.437-1.22-7.895-2.299-.746-.328-2.68-1.308-3.3-1.76-.42-.305-1.078-.695-1.537-.992-1.608-1.038-2.227-1.738-3.504-2.82-.715-.604-1.27-1.216-1.9-1.956-.893-1.046-1.423-1.698-2.225-2.832-.908-1.283-2.105-3.477-2.68-4.903-2.8-6.936-2.8-14.366-.061-21.114.858-2.113 2.394-4.68 3.754-6.418l1.464-1.697c.093-.097.188-.231.283-.349l1.586-1.575C13.43 4.829 19.59 2.258 25.42 1.658c3.137-.324 6.453-.128 9.37.545 4.138.954 7.244 2.415 10.585 4.6.974.637 2.59 1.967 3.505 2.818.527.49.663.752 1.235 1.292.4.377 2.568 3.177 2.7 3.582-.251-.022-.207-.062-.346-.249L51.1 12.643c-.17-.195-.386-.404-.557-.58L46.638 8.82c-.51-.331-.877-.578-1.431-.908-2.967-1.771-6.873-3.27-10.402-3.772-8.169-1.164-16.021.655-22.125 5.522-2.091 1.667-3.035 2.682-4.696 4.724-.728.896-1.311 1.834-1.905 2.834-.296.497-.564.922-.844 1.492-1.02 2.084-1.294 2.945-1.921 5.152-.293 1.03-.563 2.954-.654 4.085-.343 4.33.306 8.195 1.86 12.043.255.633 1.666 3.36 2.028 3.91.637.967 1.793 2.522 2.538 3.337.518.564.471.582 1.111 1.23 1.07 1.08 2.578 2.319 3.864 3.28l1.412.928c4.091 2.595 9.32 4.344 14.429 4.445 2.014.04 4.595-.128 6.513-.593.48-.117 1.463-.442 1.84-.488h.003zm-4.996-14.836c.24-.293.743-.86.875-1.183-4.501-.067-9.354-.003-13.924-.003-.488 0-1.558.157-1.85-.126-.124-.196-.128-.511.019-.708.321-.194 6.497-.081 7.406-.081h18.684c.642 0 3.321-.14 3.674.083.194.26.139.606-.053.768-.339.186-2.605.037-3.218.074-.614 1.323-1.104 2.292-1.948 3.42-1.377 1.841-2.55 2.963-4.434 4.226-1.688 1.13-2.952 1.659-5.038 2.248-1.885.532-2.995.457-4.943.457-1.662 0-3.153-.338-4.535-.812-2.53-.866-4.709-2.21-6.548-4.075-1.125-1.14-1.554-1.705-2.39-2.98-2.039-3.11-2.849-6.87-2.608-10.65.129-2.006.812-4.602 1.693-6.253.304-.567.598-1.207.954-1.702 1.065-1.479 1.015-1.54 2.363-2.946.4-.418.915-.883 1.407-1.249.541-.401.94-.745 1.55-1.106.456-.272 1.19-.755 1.712-.943.014-1.055.201-2.092.64-2.898.53-.973.744-1.185 1.491-1.956-.158-.3-.462-.467-.009-.856.142-.121.551-.437.734-.535-.153-.312-.302-.392-.51-.69-.54-.774-.566-.566 1.013-1.77 2.205-1.679 1.149-.971 2.472.13.216-.133.387-.319.603-.475.766-.556.78.079 1.575 1.017l3.603 4.613c.162.21.28.37.436.577.173.229.308.364.455.556l4.43 5.741c.185.238 3.536 4.445 3.56 4.627.06.418-.574.595-1.082 1.117 2.233 2.916 2.356 2.1.65 3.53-.22.184-1.041.915-1.293.881-.312-.04-1.688-1.978-2.041-2.345-.313.177-.946.818-1.33.81-.325-.093-4.758-6.219-5.385-6.801-1.048.515-1.728.996-3.178 1.076-1.351.076-2.461-.232-3.5-.766-.862-.444-.48-.431-1.683-.336-1.786.14-3.381.736-4.857 1.593-2.703 1.569-4.662 4.57-5.163 7.733-.255 1.6.014 4.128.558 5.648 1.2 3.347 4.37 6.212 8.063 6.979 2.472.514 5.242.203 7.26-.851 1.496-.782 1.326-.699 2.585-1.715.38-.308.745-.716 1.056-1.093h-.001z" fill="#F5F8FF"/></g><defs><clipPath id="clip0_821_3819"><path fill="#fff" d="M0 0h61v61H0z"/></clipPath></defs></svg>