<svg width="113" height="18" fill="none" xmlns="http://www.w3.org/2000/svg"><path d="M0 4.117h1.378v3.615c.431-.778 1.192-1.196 2.283-1.196 2.125 0 3.144 1.844 3.144 3.99 0 2.145-1.02 3.988-3.144 3.988-1.149 0-1.938-.475-2.355-1.267l-.043 1.094H0V4.117zm1.25 6.408c0 1.397.616 2.707 2.052 2.707 1.465 0 2.068-1.281 2.068-2.707 0-1.469-.603-2.765-2.068-2.765-1.436 0-2.053 1.325-2.053 2.765zM7.367 6.71h1.465l2.182 6.076 2.096-6.077h1.464l-3.058 8.525c-.301.864-.89 1.267-1.823 1.267h-.99v-1.195h.818c.402 0 .631-.158.775-.547l.258-.648h-.43L7.367 6.709zM18.53 3.878h2.631v1.378h.04a4.01 4.01 0 011.316-1.22c.523-.29 1.12-.434 1.787-.434a4.02 4.02 0 011.748.374c.537.25.943.69 1.218 1.32a4.37 4.37 0 011.218-1.182c.523-.341 1.139-.512 1.846-.512.537 0 1.034.066 1.493.197.458.131.85.341 1.178.63.328.289.583.67.766 1.142.184.459.275 1.017.275 1.673v6.81h-2.789V8.288c0-.341-.013-.663-.04-.964a2.051 2.051 0 00-.215-.788 1.295 1.295 0 00-.53-.531c-.223-.132-.53-.197-.924-.197-.392 0-.713.079-.962.236a1.643 1.643 0 00-.57.59c-.13.237-.222.512-.275.827-.039.302-.059.61-.059.926v5.669h-2.789v-5.71c0-.302-.006-.597-.02-.886a2.386 2.386 0 00-.176-.826 1.139 1.139 0 00-.491-.59c-.223-.158-.557-.237-1.002-.237-.13 0-.308.033-.53.098-.21.053-.42.164-.629.335-.196.157-.367.394-.51.709-.145.301-.217.702-.217 1.2v5.906H18.53V3.878zm19.214 5.098c0 .407.04.807.118 1.2.078.381.21.73.392 1.044.197.302.452.545.767.728.314.184.707.276 1.178.276s.864-.092 1.179-.276c.327-.183.582-.426.766-.728.196-.315.334-.663.412-1.043a6.126 6.126 0 000-2.402 2.952 2.952 0 00-.412-1.043 2.05 2.05 0 00-.766-.728c-.315-.197-.708-.296-1.179-.296-.471 0-.864.099-1.178.296-.315.183-.57.426-.767.728-.183.302-.314.65-.392 1.043a6.118 6.118 0 00-.118 1.201zm-2.79 0c0-.814.125-1.548.374-2.205a4.654 4.654 0 012.71-2.775c.642-.263 1.362-.394 2.161-.394.799 0 1.519.131 2.16.394.655.25 1.212.61 1.67 1.083a4.642 4.642 0 011.06 1.692c.25.657.374 1.391.374 2.205 0 .814-.124 1.548-.373 2.205a4.886 4.886 0 01-1.06 1.693 4.673 4.673 0 01-1.67 1.063c-.642.249-1.362.373-2.16.373-.8 0-1.52-.124-2.162-.373a4.708 4.708 0 01-1.65-1.063 4.886 4.886 0 01-1.06-1.693c-.249-.656-.373-1.391-.373-2.205zm13.501 1.772c0 .301.059.564.177.787.13.21.294.387.49.531.197.132.42.23.669.296a3.302 3.302 0 001.414.04c.223-.053.419-.126.59-.217a1.47 1.47 0 00.45-.394c.119-.17.178-.38.178-.63 0-.42-.282-.735-.845-.945-.55-.21-1.323-.42-2.318-.63a17.811 17.811 0 01-1.198-.315 4.612 4.612 0 01-1.021-.492 2.532 2.532 0 01-.727-.768c-.183-.314-.275-.695-.275-1.141 0-.656.124-1.194.373-1.614.262-.42.603-.748 1.022-.985.419-.249.89-.42 1.414-.511a8.175 8.175 0 011.61-.158c.55 0 1.08.053 1.592.158.523.105.988.282 1.394.531.406.25.74.584 1.002 1.004.275.407.439.925.49 1.555h-2.65c-.04-.538-.243-.899-.61-1.083-.366-.196-.799-.295-1.296-.295-.157 0-.327.013-.51.04a1.615 1.615 0 00-.511.118 1.009 1.009 0 00-.374.295c-.104.118-.157.282-.157.492 0 .25.092.453.275.61.184.158.42.289.707.394.301.092.642.177 1.022.256.38.079.766.164 1.159.256.406.092.798.203 1.178.334.393.132.74.309 1.041.532.301.21.544.479.727.807.183.315.275.709.275 1.181 0 .67-.138 1.233-.413 1.693a3.165 3.165 0 01-1.04 1.082c-.433.276-.93.466-1.493.571a8.024 8.024 0 01-1.69.178c-.589 0-1.165-.06-1.728-.178a4.667 4.667 0 01-1.512-.59 3.545 3.545 0 01-1.08-1.083c-.276-.46-.426-1.03-.453-1.712h2.652zM62.776 7.46c-.183-1.168-.87-1.752-2.062-1.752-.445 0-.819.105-1.12.315a2.39 2.39 0 00-.746.788 3.43 3.43 0 00-.393 1.063 5.538 5.538 0 000 2.264c.078.38.203.728.373 1.043.183.302.426.55.727.748.301.197.668.295 1.1.295.668 0 1.178-.184 1.532-.551.367-.38.596-.886.687-1.516h2.691c-.183 1.352-.707 2.382-1.571 3.09-.864.71-1.97 1.063-3.32 1.063-.76 0-1.46-.124-2.101-.373a4.776 4.776 0 01-1.61-1.083 4.91 4.91 0 01-1.042-1.634 5.788 5.788 0 01-.373-2.106c0-.788.111-1.516.334-2.185a4.943 4.943 0 011.021-1.752 4.572 4.572 0 011.63-1.161c.642-.276 1.375-.414 2.2-.414a6.25 6.25 0 011.729.236c.563.158 1.06.4 1.493.729.445.315.805.715 1.08 1.2.275.473.432 1.037.471 1.693h-2.73zm5.858 1.516c0 .407.039.807.117 1.2.079.381.21.73.393 1.044.197.302.452.545.766.728.315.184.707.276 1.179.276.471 0 .864-.092 1.178-.276.328-.183.583-.426.766-.728a3.16 3.16 0 00.413-1.043 6.118 6.118 0 000-2.402 2.95 2.95 0 00-.413-1.043 2.05 2.05 0 00-.766-.728c-.314-.197-.707-.296-1.178-.296-.472 0-.864.099-1.179.296-.314.183-.57.426-.766.728a3.22 3.22 0 00-.393 1.043 6.118 6.118 0 00-.117 1.201zm-2.79 0c0-.814.125-1.548.374-2.205a4.654 4.654 0 012.71-2.775c.642-.263 1.362-.394 2.16-.394.8 0 1.52.131 2.161.394.655.25 1.212.61 1.67 1.083a4.642 4.642 0 011.06 1.692c.25.657.374 1.391.374 2.205 0 .814-.125 1.548-.373 2.205a4.886 4.886 0 01-1.061 1.693 4.673 4.673 0 01-1.67 1.063c-.641.249-1.361.373-2.16.373-.799 0-1.52-.124-2.16-.373a4.708 4.708 0 01-1.65-1.063 4.886 4.886 0 01-1.061-1.693c-.25-.656-.374-1.391-.374-2.205zm22.949 5.079h-2.868l-1.807-6.83h-.04l-1.728 6.83h-2.887L76.24 3.878h2.947l1.866 6.909h.039l1.69-6.91h2.71l1.728 6.89h.04l1.865-6.89h2.868l-3.201 10.178zm10.242-6.181c-.131-.709-.367-1.247-.707-1.614-.328-.368-.832-.552-1.513-.552-.445 0-.818.08-1.12.237a2.14 2.14 0 00-.706.55c-.17.224-.295.46-.374.71a3.63 3.63 0 00-.117.669h4.537zm-4.537 1.771c.039.906.268 1.562.687 1.969.419.406 1.021.61 1.807.61.563 0 1.048-.138 1.453-.413.407-.29.655-.591.747-.906h2.455c-.393 1.22-.995 2.093-1.807 2.618-.812.525-1.794.787-2.946.787-.799 0-1.52-.124-2.16-.373a4.598 4.598 0 01-1.631-1.103 5.041 5.041 0 01-1.041-1.693 6.362 6.362 0 01-.354-2.165c0-.761.125-1.47.374-2.126a4.885 4.885 0 011.06-1.693 4.947 4.947 0 011.63-1.141 5.32 5.32 0 012.122-.414c.864 0 1.617.17 2.259.512a4.332 4.332 0 011.571 1.339c.419.564.72 1.207.904 1.929a7.22 7.22 0 01.196 2.263h-7.326zm15.442-.669c0-.433-.046-.846-.137-1.24a3.26 3.26 0 00-.432-1.043 2.15 2.15 0 00-.747-.709c-.288-.184-.641-.276-1.06-.276-.406 0-.76.092-1.061.276-.301.17-.55.407-.746.709a3.24 3.24 0 00-.433 1.043 5.491 5.491 0 00-.137 1.24c0 .42.046.827.137 1.22.092.394.236.742.433 1.044.196.301.445.544.746.728.301.17.655.256 1.061.256.419 0 .772-.085 1.06-.256.301-.184.55-.427.747-.728.196-.302.34-.65.432-1.044.091-.393.137-.8.137-1.22zM102.496 0h2.789v5.118h.039a2.93 2.93 0 011.375-1.142 4.65 4.65 0 011.827-.374c.511 0 1.015.105 1.512.315.498.21.943.532 1.336.965.406.433.733.99.982 1.673.249.67.373 1.47.373 2.401 0 .932-.124 1.74-.373 2.421-.249.67-.576 1.22-.982 1.654a3.78 3.78 0 01-1.336.964 3.853 3.853 0 01-1.512.316c-.746 0-1.414-.119-2.003-.355a2.542 2.542 0 01-1.336-1.2h-.039v1.299h-2.652V0z" fill="#141416"/></svg>