<svg width="113" height="18" viewBox="0 0 113 18" fill="none" xmlns="http://www.w3.org/2000/svg">
<g opacity="0.9">
<path d="M0 4.09766H1.37582V7.69486C1.80577 6.92096 2.56534 6.50535 3.65453 6.50535C5.7756 6.50535 6.79313 8.33978 6.79313 10.4752C6.79313 12.6106 5.7756 14.445 3.65453 14.445C2.50801 14.445 1.71978 13.9721 1.30417 13.1838L1.26117 14.273H0V4.09766ZM1.24684 10.4752C1.24684 11.8653 1.8631 13.1695 3.29625 13.1695C4.75806 13.1695 5.35998 11.894 5.35998 10.4752C5.35998 9.01336 4.75806 7.72353 3.29625 7.72353C1.8631 7.72353 1.24684 9.04203 1.24684 10.4752Z" fill="#ADC6E0"/>
<path d="M7.35395 6.67733H8.81576L10.9941 12.7252L13.0865 6.67733H14.5484L11.4958 15.1616C11.1948 16.0215 10.6072 16.4228 9.67565 16.4228H8.68678V15.2332H9.50367C9.90495 15.2332 10.1343 15.0756 10.2776 14.6886L10.5355 14.0437H10.1056L7.35395 6.67733Z" fill="#ADC6E0"/>
<path d="M18.4961 3.8778H21.1281V5.2557H21.1674C21.534 4.73078 21.9727 4.32398 22.4834 4.03527C23.0072 3.74657 23.603 3.60222 24.2708 3.60222C24.9124 3.60222 25.4951 3.72689 26.0189 3.97622C26.5558 4.22555 26.9617 4.66517 27.2367 5.29507C27.5379 4.84889 27.9438 4.4552 28.4545 4.11401C28.9783 3.77282 29.5937 3.60222 30.3008 3.60222C30.8377 3.60222 31.3353 3.66783 31.7936 3.79906C32.2519 3.93029 32.6447 4.14026 32.9721 4.42896C33.2995 4.71766 33.5548 5.09822 33.7381 5.57065C33.9214 6.02995 34.0131 6.58767 34.0131 7.24381V14.0546H31.224V8.28707C31.224 7.94588 31.2109 7.62437 31.1847 7.32255C31.1585 7.02072 31.0865 6.75826 30.9686 6.53517C30.8508 6.31209 30.674 6.13493 30.4383 6.0037C30.2157 5.87247 29.908 5.80686 29.5151 5.80686C29.1223 5.80686 28.8015 5.88559 28.5527 6.04307C28.317 6.18742 28.1271 6.38426 27.9831 6.6336C27.8521 6.86981 27.7605 7.14539 27.7081 7.46034C27.6688 7.76216 27.6492 8.07055 27.6492 8.3855V14.0546H24.86V8.34613C24.86 8.0443 24.8535 7.74904 24.8404 7.46034C24.8273 7.15851 24.7684 6.88293 24.6636 6.6336C24.572 6.38426 24.4083 6.18742 24.1726 6.04307C23.95 5.88559 23.6161 5.80686 23.1708 5.80686C23.0399 5.80686 22.8631 5.83966 22.6405 5.90528C22.431 5.95777 22.2215 6.06931 22.012 6.23991C21.8156 6.39739 21.6453 6.6336 21.5013 6.94854C21.3572 7.25037 21.2852 7.65062 21.2852 8.14929V14.0546H18.4961V3.8778Z" fill="#ADC6E0"/>
<path d="M37.7107 8.97602C37.7107 9.38283 37.75 9.78308 37.8285 10.1768C37.9071 10.5573 38.038 10.9051 38.2214 11.22C38.4178 11.5219 38.6731 11.7646 38.9874 11.9483C39.3017 12.1321 39.6945 12.2239 40.1659 12.2239C40.6373 12.2239 41.0301 12.1321 41.3444 11.9483C41.6718 11.7646 41.9271 11.5219 42.1104 11.22C42.3068 10.9051 42.4443 10.5573 42.5229 10.1768C42.6015 9.78308 42.6408 9.38283 42.6408 8.97602C42.6408 8.56921 42.6015 8.16897 42.5229 7.77528C42.4443 7.3816 42.3068 7.03384 42.1104 6.73202C41.9271 6.43019 41.6718 6.18742 41.3444 6.0037C41.0301 5.80686 40.6373 5.70844 40.1659 5.70844C39.6945 5.70844 39.3017 5.80686 38.9874 6.0037C38.6731 6.18742 38.4178 6.43019 38.2214 6.73202C38.038 7.03384 37.9071 7.3816 37.8285 7.77528C37.75 8.16897 37.7107 8.56921 37.7107 8.97602ZM34.9215 8.97602C34.9215 8.16241 35.0459 7.42753 35.2947 6.77139C35.5435 6.10212 35.8971 5.53784 36.3554 5.07854C36.8137 4.60612 37.3637 4.24524 38.0053 3.9959C38.6469 3.73345 39.3671 3.60222 40.1659 3.60222C40.9647 3.60222 41.6849 3.73345 42.3265 3.9959C42.9812 4.24524 43.5377 4.60612 43.996 5.07854C44.4543 5.53784 44.8079 6.10212 45.0567 6.77139C45.3055 7.42753 45.4299 8.16241 45.4299 8.97602C45.4299 9.78964 45.3055 10.5245 45.0567 11.1807C44.8079 11.8368 44.4543 12.4011 43.996 12.8735C43.5377 13.3328 42.9812 13.6871 42.3265 13.9365C41.6849 14.1858 40.9647 14.3105 40.1659 14.3105C39.3671 14.3105 38.6469 14.1858 38.0053 13.9365C37.3637 13.6871 36.8137 13.3328 36.3554 12.8735C35.8971 12.4011 35.5435 11.8368 35.2947 11.1807C35.0459 10.5245 34.9215 9.78964 34.9215 8.97602Z" fill="#ADC6E0"/>
<path d="M48.4219 10.7476C48.4219 11.0494 48.4808 11.3119 48.5987 11.535C48.7296 11.7449 48.8933 11.9221 49.0897 12.0665C49.2861 12.1977 49.5087 12.2961 49.7575 12.3617C50.0194 12.4273 50.2879 12.4601 50.5628 12.4601C50.7593 12.4601 50.9622 12.4405 51.1717 12.4011C51.3943 12.3486 51.5908 12.2764 51.761 12.1846C51.9443 12.0796 52.0949 11.9483 52.2127 11.7909C52.3306 11.6203 52.3895 11.4103 52.3895 11.161C52.3895 10.741 52.108 10.4261 51.5449 10.2161C50.995 10.0062 50.2224 9.7962 49.2272 9.58624C48.8213 9.49438 48.4219 9.38939 48.029 9.27129C47.6493 9.14006 47.3088 8.97602 47.0077 8.77918C46.7065 8.56922 46.4643 8.31332 46.2809 8.01149C46.0976 7.69655 46.0059 7.31598 46.0059 6.86981C46.0059 6.21367 46.1303 5.67563 46.3791 5.2557C46.641 4.83577 46.9815 4.5077 47.4005 4.27149C47.8195 4.02215 48.2909 3.85155 48.8147 3.7597C49.3385 3.65471 49.8754 3.60222 50.4253 3.60222C50.9753 3.60222 51.5056 3.65471 52.0163 3.7597C52.5401 3.86468 53.005 4.04184 53.4109 4.29117C53.8168 4.5405 54.1507 4.87514 54.4126 5.29507C54.6876 5.70187 54.8513 6.22023 54.9037 6.85012H52.252C52.2127 6.31209 52.0098 5.95121 51.6431 5.76749C51.2765 5.57065 50.8444 5.47223 50.3468 5.47223C50.1896 5.47223 50.0194 5.48535 49.8361 5.51159C49.6528 5.52472 49.4825 5.56409 49.3254 5.6297C49.1814 5.69531 49.057 5.79374 48.9522 5.92496C48.8475 6.04307 48.7951 6.2071 48.7951 6.41707C48.7951 6.6664 48.8867 6.86981 49.0701 7.02728C49.2534 7.18476 49.4891 7.31598 49.7772 7.42097C50.0783 7.51283 50.4188 7.59813 50.7985 7.67686C51.1783 7.7556 51.5646 7.8409 51.9574 7.93276C52.3633 8.02462 52.7562 8.13616 53.1359 8.26739C53.5287 8.39862 53.8758 8.57578 54.1769 8.79887C54.4781 9.00883 54.7203 9.27785 54.9037 9.60592C55.087 9.92087 55.1787 10.3146 55.1787 10.787C55.1787 11.4562 55.0412 12.0205 54.7662 12.4798C54.5043 12.926 54.1573 13.2869 53.7252 13.5625C53.293 13.838 52.7955 14.0283 52.2324 14.1333C51.6824 14.2514 51.1194 14.3105 50.5432 14.3105C49.9539 14.3105 49.3778 14.2514 48.8147 14.1333C48.2517 14.0152 47.7475 13.8184 47.3023 13.5428C46.8702 13.2672 46.5101 12.9063 46.222 12.4601C45.947 12.0008 45.7964 11.43 45.7702 10.7476H48.4219Z" fill="#ADC6E0"/>
<path d="M62.7429 7.46034C62.5596 6.2924 61.8721 5.70844 60.6805 5.70844C60.2353 5.70844 59.8621 5.81342 59.5609 6.02338C59.2597 6.22023 59.011 6.48268 58.8145 6.81075C58.6312 7.1257 58.5003 7.48002 58.4217 7.8737C58.3431 8.25427 58.3038 8.63483 58.3038 9.01539C58.3038 9.38283 58.3431 9.75683 58.4217 10.1374C58.5003 10.518 58.6247 10.8657 58.7949 11.1807C58.9782 11.4825 59.2205 11.7318 59.5216 11.9287C59.8228 12.1255 60.1895 12.2239 60.6216 12.2239C61.2894 12.2239 61.8001 12.0402 62.1536 11.6728C62.5203 11.2922 62.7494 10.787 62.8411 10.1571H65.532C65.3487 11.5087 64.8249 12.5389 63.9607 13.2475C63.0964 13.9561 61.99 14.3105 60.6412 14.3105C59.8817 14.3105 59.1812 14.1858 58.5395 13.9365C57.911 13.674 57.3741 13.3131 56.9289 12.8538C56.4837 12.3945 56.1367 11.8499 55.8879 11.22C55.6391 10.577 55.5147 9.87494 55.5147 9.11381C55.5147 8.32644 55.626 7.59812 55.8486 6.92886C56.0843 6.24647 56.4248 5.66251 56.87 5.17696C57.3152 4.67829 57.8586 4.29117 58.5003 4.01559C59.1419 3.74001 59.8752 3.60222 60.7001 3.60222C61.3025 3.60222 61.8787 3.68096 62.4286 3.83843C62.9917 3.99591 63.4893 4.23868 63.9214 4.56675C64.3666 4.8817 64.7267 5.28194 65.0017 5.76749C65.2767 6.23991 65.4338 6.80419 65.4731 7.46034H62.7429Z" fill="#ADC6E0"/>
<path d="M68.6004 8.97602C68.6004 9.38283 68.6397 9.78308 68.7183 10.1768C68.7969 10.5573 68.9278 10.9051 69.1111 11.22C69.3075 11.5219 69.5629 11.7646 69.8772 11.9483C70.1914 12.1321 70.5843 12.2239 71.0557 12.2239C71.5271 12.2239 71.9199 12.1321 72.2342 11.9483C72.5615 11.7646 72.8169 11.5219 73.0002 11.22C73.1966 10.9051 73.3341 10.5573 73.4127 10.1768C73.4912 9.78308 73.5305 9.38283 73.5305 8.97602C73.5305 8.56921 73.4912 8.16897 73.4127 7.77528C73.3341 7.3816 73.1966 7.03384 73.0002 6.73202C72.8169 6.43019 72.5615 6.18742 72.2342 6.0037C71.9199 5.80686 71.5271 5.70844 71.0557 5.70844C70.5843 5.70844 70.1914 5.80686 69.8772 6.0037C69.5629 6.18742 69.3075 6.43019 69.1111 6.73202C68.9278 7.03384 68.7969 7.3816 68.7183 7.77528C68.6397 8.16897 68.6004 8.56921 68.6004 8.97602ZM65.8113 8.97602C65.8113 8.16241 65.9357 7.42753 66.1845 6.77139C66.4333 6.10212 66.7868 5.53784 67.2452 5.07854C67.7035 4.60612 68.2534 4.24524 68.8951 3.9959C69.5367 3.73345 70.2569 3.60222 71.0557 3.60222C71.8544 3.60222 72.5746 3.73345 73.2163 3.9959C73.871 4.24524 74.4275 4.60612 74.8858 5.07854C75.3441 5.53784 75.6977 6.10212 75.9465 6.77139C76.1953 7.42753 76.3197 8.16241 76.3197 8.97602C76.3197 9.78964 76.1953 10.5245 75.9465 11.1807C75.6977 11.8368 75.3441 12.4011 74.8858 12.8735C74.4275 13.3328 73.871 13.6871 73.2163 13.9365C72.5746 14.1858 71.8544 14.3105 71.0557 14.3105C70.2569 14.3105 69.5367 14.1858 68.8951 13.9365C68.2534 13.6871 67.7035 13.3328 67.2452 12.8735C66.7868 12.4011 66.4333 11.8368 66.1845 11.1807C65.9357 10.5245 65.8113 9.78964 65.8113 8.97602Z" fill="#ADC6E0"/>
<path d="M88.7594 14.0546H85.8917L84.0846 7.22412H84.0453L82.3168 14.0546H79.4295L76.2083 3.8778H79.1545L81.0205 10.787H81.0598L82.749 3.8778H85.4595L87.188 10.7673H87.2273L89.0933 3.8778H91.961L88.7594 14.0546Z" fill="#ADC6E0"/>
<path d="M99.0016 7.8737C98.8707 7.16507 98.635 6.62704 98.2945 6.2596C97.9672 5.89216 97.463 5.70844 96.7821 5.70844C96.3369 5.70844 95.9637 5.78717 95.6625 5.94465C95.3744 6.089 95.1387 6.27272 94.9554 6.49581C94.7852 6.71889 94.6608 6.95511 94.5822 7.20444C94.5167 7.45377 94.4775 7.67686 94.4644 7.8737H99.0016ZM94.4644 9.64529C94.5037 10.5508 94.7328 11.2069 95.1518 11.6137C95.5709 12.0205 96.1732 12.2239 96.9589 12.2239C97.5219 12.2239 98.0064 12.0861 98.4124 11.8106C98.8183 11.5219 99.0671 11.22 99.1588 10.9051H101.614C101.221 12.1255 100.619 12.9982 99.8069 13.5231C98.9951 14.048 98.013 14.3105 96.8607 14.3105C96.0619 14.3105 95.3417 14.1858 94.7001 13.9365C94.0584 13.674 93.515 13.3066 93.0698 12.8341C92.6246 12.3617 92.2776 11.7974 92.0288 11.1413C91.7931 10.4852 91.6752 9.76339 91.6752 8.97602C91.6752 8.2149 91.7996 7.50627 92.0484 6.85012C92.2972 6.19398 92.6508 5.6297 93.1091 5.15728C93.5674 4.67173 94.1108 4.29117 94.7393 4.01559C95.381 3.74001 96.0881 3.60222 96.8607 3.60222C97.7249 3.60222 98.4778 3.77282 99.1195 4.11401C99.7611 4.44208 100.285 4.88826 100.691 5.45254C101.11 6.01682 101.411 6.65984 101.594 7.3816C101.778 8.10336 101.843 8.85792 101.791 9.64529H94.4644Z" fill="#ADC6E0"/>
<path d="M109.907 8.97602C109.907 8.54297 109.861 8.1296 109.77 7.73592C109.678 7.34223 109.534 6.99447 109.337 6.69265C109.141 6.39082 108.892 6.15461 108.591 5.98402C108.303 5.8003 107.949 5.70844 107.53 5.70844C107.125 5.70844 106.771 5.8003 106.47 5.98402C106.169 6.15461 105.92 6.39082 105.723 6.69265C105.527 6.99447 105.383 7.34223 105.291 7.73592C105.2 8.1296 105.154 8.54297 105.154 8.97602C105.154 9.39595 105.2 9.80276 105.291 10.1964C105.383 10.5901 105.527 10.9379 105.723 11.2397C105.92 11.5415 106.169 11.7843 106.47 11.968C106.771 12.1386 107.125 12.2239 107.53 12.2239C107.949 12.2239 108.303 12.1386 108.591 11.968C108.892 11.7843 109.141 11.5415 109.337 11.2397C109.534 10.9379 109.678 10.5901 109.77 10.1964C109.861 9.80276 109.907 9.39595 109.907 8.97602ZM102.463 0H105.252V5.11791H105.291C105.632 4.593 106.09 4.21243 106.666 3.97622C107.255 3.72689 107.864 3.60222 108.493 3.60222C109.004 3.60222 109.508 3.7072 110.005 3.91717C110.503 4.12713 110.948 4.44864 111.341 4.8817C111.747 5.31475 112.074 5.87247 112.323 6.55486C112.572 7.22412 112.696 8.02462 112.696 8.95634C112.696 9.88806 112.572 10.6951 112.323 11.3775C112.074 12.0468 111.747 12.5979 111.341 13.031C110.948 13.464 110.503 13.7855 110.005 13.9955C109.508 14.2055 109.004 14.3105 108.493 14.3105C107.747 14.3105 107.079 14.1924 106.489 13.9561C105.9 13.7199 105.455 13.3197 105.154 12.7554H105.115V14.0546H102.463V0Z" fill="#ADC6E0"/>
</g>
</svg>
