<svg width="131" height="131" fill="none" xmlns="http://www.w3.org/2000/svg"><path d="M0 0h5.24v5.24H0V0zm5.24 0h5.24v5.24H5.24V0zm5.24 0h5.24v5.24h-5.24V0zm5.24 0h5.24v5.24h-5.24V0zm5.24 0h5.24v5.24h-5.24V0z" fill="#141416"/><path d="M26.2 0h5.24v5.24H26.2V0zm5.24 0h5.24v5.24h-5.24V0zm10.48 0h5.24v5.24h-5.24V0zM52.4 0h5.24v5.24H52.4V0zm5.24 0h5.24v5.24h-5.24V0zm10.48 0h5.24v5.24h-5.24V0zm5.24 0h5.24v5.24h-5.24V0zm5.24 0h5.24v5.24H78.6V0zm5.24 0h5.24v5.24h-5.24V0zm10.48 0h5.24v5.24h-5.24V0zm5.24 0h5.24v5.24h-5.24V0zm5.24 0h5.24v5.24h-5.24V0zm5.24 0h5.24v5.24h-5.24V0zm5.24 0h5.24v5.24h-5.24V0zm5.24 0h5.24v5.24h-5.24V0zm5.24 0H131v5.24h-5.24V0zM0 5.24h5.24v5.24H0V5.24zm31.44 0h5.24v5.24h-5.24V5.24zm10.48 0h5.24v5.24h-5.24V5.24z" fill="#141416"/><path d="M47.16 5.24h5.24v5.24h-5.24V5.24zm20.96 0h5.24v5.24h-5.24V5.24zm10.48 0h5.24v5.24H78.6V5.24zm15.72 0h5.24v5.24h-5.24V5.24zm31.44 0H131v5.24h-5.24V5.24zM0 10.48h5.24v5.24H0v-5.24zm10.48 0h5.24v5.24h-5.24v-5.24zm5.24 0h5.24v5.24h-5.24v-5.24zm5.24 0h5.24v5.24h-5.24v-5.24zm10.48 0h5.24v5.24h-5.24v-5.24zm10.48 0h5.24v5.24h-5.24v-5.24z" fill="#141416"/><path d="M47.16 10.48h5.24v5.24h-5.24v-5.24zm5.24 0h5.24v5.24H52.4v-5.24zm5.24 0h5.24v5.24h-5.24v-5.24zm5.24 0h5.24v5.24h-5.24v-5.24zm10.48 0h5.24v5.24h-5.24v-5.24zm5.24 0h5.24v5.24H78.6v-5.24zm15.72 0h5.24v5.24h-5.24v-5.24zm10.48 0h5.24v5.24h-5.24v-5.24zm5.24 0h5.24v5.24h-5.24v-5.24zm5.24 0h5.24v5.24h-5.24v-5.24zm10.48 0H131v5.24h-5.24v-5.24zM0 15.72h5.24v5.24H0v-5.24zm10.48 0h5.24v5.24h-5.24v-5.24zm5.24 0h5.24v5.24h-5.24v-5.24zm5.24 0h5.24v5.24h-5.24v-5.24zm10.48 0h5.24v5.24h-5.24v-5.24zm15.72 0h5.24v5.24h-5.24v-5.24zm15.72 0h5.24v5.24h-5.24v-5.24zm10.48 0h5.24v5.24h-5.24v-5.24zm5.24 0h5.24v5.24H78.6v-5.24zm5.24 0h5.24v5.24h-5.24v-5.24zm10.48 0h5.24v5.24h-5.24v-5.24zm10.48 0h5.24v5.24h-5.24v-5.24zm5.24 0h5.24v5.24h-5.24v-5.24zm5.24 0h5.24v5.24h-5.24v-5.24zm10.48 0H131v5.24h-5.24v-5.24zM0 20.96h5.24v5.24H0v-5.24zm10.48 0h5.24v5.24h-5.24v-5.24zm5.24 0h5.24v5.24h-5.24v-5.24zm5.24 0h5.24v5.24h-5.24v-5.24zm10.48 0h5.24v5.24h-5.24v-5.24zm15.72 0h5.24v5.24h-5.24v-5.24zm5.24 0h5.24v5.24H52.4v-5.24zm5.24 0h5.24v5.24h-5.24v-5.24zm5.24 0h5.24v5.24h-5.24v-5.24zm5.24 0h5.24v5.24h-5.24v-5.24zm5.24 0h5.24v5.24h-5.24v-5.24zm20.96 0h5.24v5.24h-5.24v-5.24zm10.48 0h5.24v5.24h-5.24v-5.24zm5.24 0h5.24v5.24h-5.24v-5.24zm5.24 0h5.24v5.24h-5.24v-5.24zm10.48 0H131v5.24h-5.24v-5.24z" fill="#141416"/><path d="M0 26.2h5.24v5.24H0V26.2zm31.44 0h5.24v5.24h-5.24V26.2zm10.48 0h5.24v5.24h-5.24V26.2zm15.72 0h5.24v5.24h-5.24V26.2zm5.24 0h5.24v5.24h-5.24V26.2zm15.72 0h5.24v5.24H78.6V26.2zm5.24 0h5.24v5.24h-5.24V26.2zm10.48 0h5.24v5.24h-5.24V26.2zm31.44 0H131v5.24h-5.24V26.2zM0 31.44h5.24v5.24H0v-5.24zm5.24 0h5.24v5.24H5.24v-5.24zm5.24 0h5.24v5.24h-5.24v-5.24zm5.24 0h5.24v5.24h-5.24v-5.24zm5.24 0h5.24v5.24h-5.24v-5.24z" fill="#141416"/><path d="M26.2 31.44h5.24v5.24H26.2v-5.24zm5.24 0h5.24v5.24h-5.24v-5.24zm10.48 0h5.24v5.24h-5.24v-5.24zm10.48 0h5.24v5.24H52.4v-5.24zm10.48 0h5.24v5.24h-5.24v-5.24zm10.48 0h5.24v5.24h-5.24v-5.24zm10.48 0h5.24v5.24h-5.24v-5.24zm10.48 0h5.24v5.24h-5.24v-5.24zm5.24 0h5.24v5.24h-5.24v-5.24zm5.24 0h5.24v5.24h-5.24v-5.24zm5.24 0h5.24v5.24h-5.24v-5.24zm5.24 0h5.24v5.24h-5.24v-5.24zm5.24 0h5.24v5.24h-5.24v-5.24zm5.24 0H131v5.24h-5.24v-5.24zm-83.84 5.24h5.24v5.24h-5.24v-5.24zm10.48 0h5.24v5.24H52.4v-5.24zm10.48 0h5.24v5.24h-5.24v-5.24zm5.24 0h5.24v5.24h-5.24v-5.24zm5.24 0h5.24v5.24h-5.24v-5.24zm10.48 0h5.24v5.24h-5.24v-5.24zm-73.36 5.24h5.24v5.24h-5.24v-5.24zm5.24 0h5.24v5.24h-5.24v-5.24zm5.24 0h5.24v5.24h-5.24v-5.24zm10.48 0h5.24v5.24h-5.24v-5.24zm10.48 0h5.24v5.24h-5.24v-5.24zm10.48 0h5.24v5.24H52.4v-5.24zm5.24 0h5.24v5.24h-5.24v-5.24zm15.72 0h5.24v5.24h-5.24v-5.24zm5.24 0h5.24v5.24H78.6v-5.24zm10.48 0h5.24v5.24h-5.24v-5.24zm5.24 0h5.24v5.24h-5.24v-5.24zm5.24 0h5.24v5.24h-5.24v-5.24zm15.72 0h5.24v5.24h-5.24v-5.24zm5.24 0h5.24v5.24h-5.24v-5.24zm5.24 0H131v5.24h-5.24v-5.24zM0 47.16h5.24v5.24H0v-5.24z" fill="#141416"/><path d="M15.72 47.16h5.24v5.24h-5.24v-5.24zm10.48 0h5.24v5.24H26.2v-5.24zm15.72 0h5.24v5.24h-5.24v-5.24zm15.72 0h5.24v5.24h-5.24v-5.24zm20.96 0h5.24v5.24H78.6v-5.24zm5.24 0h5.24v5.24h-5.24v-5.24zm5.24 0h5.24v5.24h-5.24v-5.24zm15.72 0h5.24v5.24h-5.24v-5.24zm5.24 0h5.24v5.24h-5.24v-5.24zm10.48 0h5.24v5.24h-5.24v-5.24zm5.24 0H131v5.24h-5.24v-5.24zM0 52.4h5.24v5.24H0V52.4zm15.72 0h5.24v5.24h-5.24V52.4zm10.48 0h5.24v5.24H26.2V52.4zm5.24 0h5.24v5.24h-5.24V52.4zm15.72 0h5.24v5.24h-5.24V52.4zm5.24 0h5.24v5.24H52.4V52.4zm5.24 0h5.24v5.24h-5.24V52.4zm15.72 0h5.24v5.24h-5.24V52.4zm10.48 0h5.24v5.24h-5.24V52.4zm10.48 0h5.24v5.24h-5.24V52.4zm26.2 0h5.24v5.24h-5.24V52.4zM0 57.64h5.24v5.24H0v-5.24zm10.48 0h5.24v5.24h-5.24v-5.24zm5.24 0h5.24v5.24h-5.24v-5.24zm10.48 0h5.24v5.24H26.2v-5.24zm26.2 0h5.24v5.24H52.4v-5.24zm5.24 0h5.24v5.24h-5.24v-5.24zm10.48 0h5.24v5.24h-5.24v-5.24zm5.24 0h5.24v5.24h-5.24v-5.24zm5.24 0h5.24v5.24H78.6v-5.24zm31.44 0h5.24v5.24h-5.24v-5.24zm5.24 0h5.24v5.24h-5.24v-5.24zM0 62.88h5.24v5.24H0v-5.24zm5.24 0h5.24v5.24H5.24v-5.24zm5.24 0h5.24v5.24h-5.24v-5.24zm5.24 0h5.24v5.24h-5.24v-5.24zm5.24 0h5.24v5.24h-5.24v-5.24zm10.48 0h5.24v5.24h-5.24v-5.24zm15.72 0h5.24v5.24h-5.24v-5.24zm5.24 0h5.24v5.24H52.4v-5.24zm26.2 0h5.24v5.24H78.6v-5.24zm5.24 0h5.24v5.24h-5.24v-5.24zm10.48 0h5.24v5.24h-5.24v-5.24zm5.24 0h5.24v5.24h-5.24v-5.24zm10.48 0h5.24v5.24h-5.24v-5.24zm15.72 0H131v5.24h-5.24v-5.24zM0 68.12h5.24v5.24H0v-5.24zm10.48 0h5.24v5.24h-5.24v-5.24zm10.48 0h5.24v5.24h-5.24v-5.24zm15.72 0h5.24v5.24h-5.24v-5.24zm10.48 0h5.24v5.24h-5.24v-5.24zm10.48 0h5.24v5.24h-5.24v-5.24zm5.24 0h5.24v5.24h-5.24v-5.24zm10.48 0h5.24v5.24h-5.24v-5.24zm5.24 0h5.24v5.24H78.6v-5.24zm15.72 0h5.24v5.24h-5.24v-5.24zm5.24 0h5.24v5.24h-5.24v-5.24zm5.24 0h5.24v5.24h-5.24v-5.24zm5.24 0h5.24v5.24h-5.24v-5.24zm5.24 0h5.24v5.24h-5.24v-5.24zm5.24 0h5.24v5.24h-5.24v-5.24zM0 73.36h5.24v5.24H0v-5.24zm10.48 0h5.24v5.24h-5.24v-5.24zm5.24 0h5.24v5.24h-5.24v-5.24zm10.48 0h5.24v5.24H26.2v-5.24zm5.24 0h5.24v5.24h-5.24v-5.24zm5.24 0h5.24v5.24h-5.24v-5.24zm5.24 0h5.24v5.24h-5.24v-5.24zm10.48 0h5.24v5.24H52.4v-5.24zm10.48 0h5.24v5.24h-5.24v-5.24zm10.48 0h5.24v5.24h-5.24v-5.24zm5.24 0h5.24v5.24H78.6v-5.24zm5.24 0h5.24v5.24h-5.24v-5.24zm5.24 0h5.24v5.24h-5.24v-5.24zm10.48 0h5.24v5.24h-5.24v-5.24zm5.24 0h5.24v5.24h-5.24v-5.24zm10.48 0h5.24v5.24h-5.24v-5.24zM0 78.6h5.24v5.24H0V78.6zm10.48 0h5.24v5.24h-5.24V78.6zm5.24 0h5.24v5.24h-5.24V78.6zm5.24 0h5.24v5.24h-5.24V78.6zm26.2 0h5.24v5.24h-5.24V78.6zm5.24 0h5.24v5.24H52.4V78.6zm10.48 0h5.24v5.24h-5.24V78.6zm5.24 0h5.24v5.24h-5.24V78.6zm5.24 0h5.24v5.24h-5.24V78.6zm5.24 0h5.24v5.24H78.6V78.6zm26.2 0h5.24v5.24h-5.24V78.6zm10.48 0h5.24v5.24h-5.24V78.6zm10.48 0H131v5.24h-5.24V78.6zM0 83.84h5.24v5.24H0v-5.24zm10.48 0h5.24v5.24h-5.24v-5.24zm15.72 0h5.24v5.24H26.2v-5.24zm5.24 0h5.24v5.24h-5.24v-5.24zm5.24 0h5.24v5.24h-5.24v-5.24zm15.72 0h5.24v5.24H52.4v-5.24zm5.24 0h5.24v5.24h-5.24v-5.24zm5.24 0h5.24v5.24h-5.24v-5.24zm10.48 0h5.24v5.24h-5.24v-5.24zm5.24 0h5.24v5.24H78.6v-5.24zm5.24 0h5.24v5.24h-5.24v-5.24zm5.24 0h5.24v5.24h-5.24v-5.24zm5.24 0h5.24v5.24h-5.24v-5.24zm5.24 0h5.24v5.24h-5.24v-5.24zm5.24 0h5.24v5.24h-5.24v-5.24zm20.96 0H131v5.24h-5.24v-5.24zm-83.84 5.24h5.24v5.24h-5.24v-5.24zm15.72 0h5.24v5.24h-5.24v-5.24zm5.24 0h5.24v5.24h-5.24v-5.24zm5.24 0h5.24v5.24h-5.24v-5.24zm5.24 0h5.24v5.24h-5.24v-5.24zm5.24 0h5.24v5.24H78.6v-5.24zm5.24 0h5.24v5.24h-5.24v-5.24zm20.96 0h5.24v5.24h-5.24v-5.24zm5.24 0h5.24v5.24h-5.24v-5.24zm10.48 0h5.24v5.24h-5.24v-5.24zm5.24 0H131v5.24h-5.24v-5.24zM0 94.32h5.24v5.24H0v-5.24zm5.24 0h5.24v5.24H5.24v-5.24zm5.24 0h5.24v5.24h-5.24v-5.24zm5.24 0h5.24v5.24h-5.24v-5.24zm5.24 0h5.24v5.24h-5.24v-5.24z" fill="#141416"/><path d="M26.2 94.32h5.24v5.24H26.2v-5.24zm5.24 0h5.24v5.24h-5.24v-5.24zm15.72 0h5.24v5.24h-5.24v-5.24zm10.48 0h5.24v5.24h-5.24v-5.24zm10.48 0h5.24v5.24h-5.24v-5.24zm10.48 0h5.24v5.24H78.6v-5.24zm5.24 0h5.24v5.24h-5.24v-5.24zm10.48 0h5.24v5.24h-5.24v-5.24zm10.48 0h5.24v5.24h-5.24v-5.24zm5.24 0h5.24v5.24h-5.24v-5.24zm10.48 0h5.24v5.24h-5.24v-5.24zM0 99.56h5.24v5.24H0v-5.24zm31.44 0h5.24v5.24h-5.24v-5.24zm15.72 0h5.24v5.24h-5.24v-5.24zm36.68 0h5.24v5.24h-5.24v-5.24zm20.96 0h5.24v5.24h-5.24v-5.24zm5.24 0h5.24v5.24h-5.24v-5.24zm5.24 0h5.24v5.24h-5.24v-5.24zM0 104.8h5.24v5.24H0v-5.24zm10.48 0h5.24v5.24h-5.24v-5.24zm5.24 0h5.24v5.24h-5.24v-5.24zm5.24 0h5.24v5.24h-5.24v-5.24zm10.48 0h5.24v5.24h-5.24v-5.24zm10.48 0h5.24v5.24h-5.24v-5.24zm10.48 0h5.24v5.24H52.4v-5.24zm15.72 0h5.24v5.24h-5.24v-5.24zm5.24 0h5.24v5.24h-5.24v-5.24zm10.48 0h5.24v5.24h-5.24v-5.24zm5.24 0h5.24v5.24h-5.24v-5.24zm5.24 0h5.24v5.24h-5.24v-5.24zm5.24 0h5.24v5.24h-5.24v-5.24zm5.24 0h5.24v5.24h-5.24v-5.24zm10.48 0h5.24v5.24h-5.24v-5.24zM0 110.04h5.24v5.24H0v-5.24zm10.48 0h5.24v5.24h-5.24v-5.24zm5.24 0h5.24v5.24h-5.24v-5.24zm5.24 0h5.24v5.24h-5.24v-5.24zm10.48 0h5.24v5.24h-5.24v-5.24zm10.48 0h5.24v5.24h-5.24v-5.24z" fill="#141416"/><path d="M47.16 110.04h5.24v5.24h-5.24v-5.24zm20.96 0h5.24v5.24h-5.24v-5.24zm5.24 0h5.24v5.24h-5.24v-5.24zm5.24 0h5.24v5.24H78.6v-5.24zm5.24 0h5.24v5.24h-5.24v-5.24zm5.24 0h5.24v5.24h-5.24v-5.24zm20.96 0h5.24v5.24h-5.24v-5.24zm15.72 0H131v5.24h-5.24v-5.24zM0 115.28h5.24v5.24H0v-5.24zm10.48 0h5.24v5.24h-5.24v-5.24zm5.24 0h5.24v5.24h-5.24v-5.24zm5.24 0h5.24v5.24h-5.24v-5.24zm10.48 0h5.24v5.24h-5.24v-5.24zm10.48 0h5.24v5.24h-5.24v-5.24zm10.48 0h5.24v5.24H52.4v-5.24zm10.48 0h5.24v5.24h-5.24v-5.24zm20.96 0h5.24v5.24h-5.24v-5.24zm10.48 0h5.24v5.24h-5.24v-5.24zm10.48 0h5.24v5.24h-5.24v-5.24zm5.24 0h5.24v5.24h-5.24v-5.24zm5.24 0h5.24v5.24h-5.24v-5.24zm10.48 0H131v5.24h-5.24v-5.24zM0 120.52h5.24v5.24H0v-5.24zm31.44 0h5.24v5.24h-5.24v-5.24zm36.68 0h5.24v5.24h-5.24v-5.24zm5.24 0h5.24v5.24h-5.24v-5.24zm20.96 0h5.24v5.24h-5.24v-5.24zm5.24 0h5.24v5.24h-5.24v-5.24zm15.72 0h5.24v5.24h-5.24v-5.24zm10.48 0H131v5.24h-5.24v-5.24zM0 125.76h5.24V131H0v-5.24zm5.24 0h5.24V131H5.24v-5.24zm5.24 0h5.24V131h-5.24v-5.24zm5.24 0h5.24V131h-5.24v-5.24zm5.24 0h5.24V131h-5.24v-5.24z" fill="#141416"/><path d="M26.2 125.76h5.24V131H26.2v-5.24zm5.24 0h5.24V131h-5.24v-5.24zm20.96 0h5.24V131H52.4v-5.24zm15.72 0h5.24V131h-5.24v-5.24zm5.24 0h5.24V131h-5.24v-5.24zm5.24 0h5.24V131H78.6v-5.24zm10.48 0h5.24V131h-5.24v-5.24zm5.24 0h5.24V131h-5.24v-5.24zm26.2 0h5.24V131h-5.24v-5.24zm5.24 0H131V131h-5.24v-5.24z" fill="#141416"/></svg>