<svg xmlns="http://www.w3.org/2000/svg" width="113" height="113" fill="none"><path d="M0 0h4.52v4.52H0V0zm4.52 0h4.52v4.52H4.52V0zm4.52 0h4.52v4.52H9.04V0zm4.52 0h4.52v4.52h-4.52V0zm4.52 0h4.52v4.52h-4.52V0zm4.52 0h4.52v4.52H22.6V0zm4.52 0h4.52v4.52h-4.52V0zm9.04 0h4.52v4.52h-4.52V0zm9.04 0h4.52v4.52H45.2V0zm4.52 0h4.52v4.52h-4.52V0zm9.04 0h4.52v4.52h-4.52V0zm4.52 0h4.52v4.52h-4.52V0zm4.52 0h4.52v4.52H67.8V0zm4.52 0h4.52v4.52h-4.52V0zm9.04 0h4.52v4.52h-4.52V0zm4.52 0h4.52v4.52h-4.52V0zm4.52 0h4.52v4.52H90.4V0zm4.52 0h4.52v4.52h-4.52V0zm4.52 0h4.52v4.52h-4.52V0zm4.52 0h4.52v4.52h-4.52V0zm4.52 0H113v4.52h-4.52V0zM0 4.52h4.52v4.52H0V4.52zm27.12 0h4.52v4.52h-4.52V4.52zm9.04 0h4.52v4.52h-4.52V4.52zm4.52 0h4.52v4.52h-4.52V4.52zm18.08 0h4.52v4.52h-4.52V4.52zm9.04 0h4.52v4.52H67.8V4.52zm13.56 0h4.52v4.52h-4.52V4.52zm27.12 0H113v4.52h-4.52V4.52zM0 9.04h4.52v4.52H0V9.04zm9.04 0h4.52v4.52H9.04V9.04zm4.52 0h4.52v4.52h-4.52V9.04zm4.52 0h4.52v4.52h-4.52V9.04zm9.04 0h4.52v4.52h-4.52V9.04zm9.04 0h4.52v4.52h-4.52V9.04zm4.52 0h4.52v4.52h-4.52V9.04zm4.52 0h4.52v4.52H45.2V9.04zm4.52 0h4.52v4.52h-4.52V9.04zm4.52 0h4.52v4.52h-4.52V9.04zm9.04 0h4.52v4.52h-4.52V9.04zm4.52 0h4.52v4.52H67.8V9.04zm13.56 0h4.52v4.52h-4.52V9.04zm9.04 0h4.52v4.52H90.4V9.04zm4.52 0h4.52v4.52h-4.52V9.04zm4.52 0h4.52v4.52h-4.52V9.04zm9.04 0H113v4.52h-4.52V9.04zM0 13.56h4.52v4.52H0v-4.52zm9.04 0h4.52v4.52H9.04v-4.52zm4.52 0h4.52v4.52h-4.52v-4.52zm4.52 0h4.52v4.52h-4.52v-4.52zm9.04 0h4.52v4.52h-4.52v-4.52zm13.56 0h4.52v4.52h-4.52v-4.52zm13.56 0h4.52v4.52h-4.52v-4.52zm9.04 0h4.52v4.52h-4.52v-4.52zm4.52 0h4.52v4.52H67.8v-4.52zm4.52 0h4.52v4.52h-4.52v-4.52zm9.04 0h4.52v4.52h-4.52v-4.52zm9.04 0h4.52v4.52H90.4v-4.52zm4.52 0h4.52v4.52h-4.52v-4.52zm4.52 0h4.52v4.52h-4.52v-4.52zm9.04 0H113v4.52h-4.52v-4.52zM0 18.08h4.52v4.52H0v-4.52zm9.04 0h4.52v4.52H9.04v-4.52zm4.52 0h4.52v4.52h-4.52v-4.52zm4.52 0h4.52v4.52h-4.52v-4.52zm9.04 0h4.52v4.52h-4.52v-4.52zm13.56 0h4.52v4.52h-4.52v-4.52zm4.52 0h4.52v4.52H45.2v-4.52zm4.52 0h4.52v4.52h-4.52v-4.52zm4.52 0h4.52v4.52h-4.52v-4.52zm4.52 0h4.52v4.52h-4.52v-4.52zm4.52 0h4.52v4.52h-4.52v-4.52zm18.08 0h4.52v4.52h-4.52v-4.52zm9.04 0h4.52v4.52H90.4v-4.52zm4.52 0h4.52v4.52h-4.52v-4.52zm4.52 0h4.52v4.52h-4.52v-4.52zm9.04 0H113v4.52h-4.52v-4.52zM0 22.6h4.52v4.52H0V22.6zm27.12 0h4.52v4.52h-4.52V22.6zm9.04 0h4.52v4.52h-4.52V22.6zm13.56 0h4.52v4.52h-4.52V22.6zm4.52 0h4.52v4.52h-4.52V22.6zm13.56 0h4.52v4.52H67.8V22.6zm4.52 0h4.52v4.52h-4.52V22.6zm9.04 0h4.52v4.52h-4.52V22.6zm27.12 0H113v4.52h-4.52V22.6zM0 27.12h4.52v4.52H0v-4.52zm4.52 0h4.52v4.52H4.52v-4.52zm4.52 0h4.52v4.52H9.04v-4.52zm4.52 0h4.52v4.52h-4.52v-4.52zm4.52 0h4.52v4.52h-4.52v-4.52zm4.52 0h4.52v4.52H22.6v-4.52zm4.52 0h4.52v4.52h-4.52v-4.52zm9.04 0h4.52v4.52h-4.52v-4.52zm9.04 0h4.52v4.52H45.2v-4.52zm9.04 0h4.52v4.52h-4.52v-4.52zm9.04 0h4.52v4.52h-4.52v-4.52zm9.04 0h4.52v4.52h-4.52v-4.52zm9.04 0h4.52v4.52h-4.52v-4.52zm4.52 0h4.52v4.52h-4.52v-4.52zm4.52 0h4.52v4.52H90.4v-4.52zm4.52 0h4.52v4.52h-4.52v-4.52zm4.52 0h4.52v4.52h-4.52v-4.52zm4.52 0h4.52v4.52h-4.52v-4.52zm4.52 0H113v4.52h-4.52v-4.52z" fill="#ADC6E0"/><path d="M36.16 31.64h4.52v4.52h-4.52v-4.52zm9.04 0h4.52v4.52H45.2v-4.52zm9.04 0h4.52v4.52h-4.52v-4.52zm4.52 0h4.52v4.52h-4.52v-4.52zm4.52 0h4.52v4.52h-4.52v-4.52zm9.04 0h4.52v4.52h-4.52v-4.52zM9.04 36.16h4.52v4.52H9.04v-4.52zm4.52 0h4.52v4.52h-4.52v-4.52zm4.52 0h4.52v4.52h-4.52v-4.52zm9.04 0h4.52v4.52h-4.52v-4.52zm9.04 0h4.52v4.52h-4.52v-4.52zm9.04 0h4.52v4.52H45.2v-4.52zm4.52 0h4.52v4.52h-4.52v-4.52zm13.56 0h4.52v4.52h-4.52v-4.52zm4.52 0h4.52v4.52H67.8v-4.52zm9.04 0h4.52v4.52h-4.52v-4.52zm4.52 0h4.52v4.52h-4.52v-4.52zm4.52 0h4.52v4.52h-4.52v-4.52zm13.56 0h4.52v4.52h-4.52v-4.52zm4.52 0h4.52v4.52h-4.52v-4.52zm4.52 0H113v4.52h-4.52v-4.52zM0 40.68h4.52v4.52H0v-4.52zm13.56 0h4.52v4.52h-4.52v-4.52zm9.04 0h4.52v4.52H22.6v-4.52zm13.56 0h4.52v4.52h-4.52v-4.52zm13.56 0h4.52v4.52h-4.52v-4.52zm18.08 0h4.52v4.52H67.8v-4.52zm4.52 0h4.52v4.52h-4.52v-4.52zm4.52 0h4.52v4.52h-4.52v-4.52zm13.56 0h4.52v4.52H90.4v-4.52zm4.52 0h4.52v4.52h-4.52v-4.52zm9.04 0h4.52v4.52h-4.52v-4.52zm4.52 0H113v4.52h-4.52v-4.52zM0 45.2h4.52v4.52H0V45.2zm13.56 0h4.52v4.52h-4.52V45.2zm9.04 0h4.52v4.52H22.6V45.2zm4.52 0h4.52v4.52h-4.52V45.2zm13.56 0h4.52v4.52h-4.52V45.2zm4.52 0h4.52v4.52H45.2V45.2zm4.52 0h4.52v4.52h-4.52V45.2zm13.56 0h4.52v4.52h-4.52V45.2zm9.04 0h4.52v4.52h-4.52V45.2zm9.04 0h4.52v4.52h-4.52V45.2zm22.6 0h4.52v4.52h-4.52V45.2zM0 49.72h4.52v4.52H0v-4.52zm9.04 0h4.52v4.52H9.04v-4.52zm4.52 0h4.52v4.52h-4.52v-4.52zm9.04 0h4.52v4.52H22.6v-4.52zm22.6 0h4.52v4.52H45.2v-4.52zm4.52 0h4.52v4.52h-4.52v-4.52zm9.04 0h4.52v4.52h-4.52v-4.52zm4.52 0h4.52v4.52h-4.52v-4.52zm4.52 0h4.52v4.52H67.8v-4.52zm27.12 0h4.52v4.52h-4.52v-4.52zm4.52 0h4.52v4.52h-4.52v-4.52zM0 54.24h4.52v4.52H0v-4.52zm4.52 0h4.52v4.52H4.52v-4.52zm4.52 0h4.52v4.52H9.04v-4.52zm4.52 0h4.52v4.52h-4.52v-4.52zm4.52 0h4.52v4.52h-4.52v-4.52zm9.04 0h4.52v4.52h-4.52v-4.52zm13.56 0h4.52v4.52h-4.52v-4.52zm4.52 0h4.52v4.52H45.2v-4.52zm22.6 0h4.52v4.52H67.8v-4.52zm4.52 0h4.52v4.52h-4.52v-4.52zm9.04 0h4.52v4.52h-4.52v-4.52zm4.52 0h4.52v4.52h-4.52v-4.52zm9.04 0h4.52v4.52h-4.52v-4.52zm13.56 0H113v4.52h-4.52v-4.52z" fill="#ADC6E0"/><path d="M0 58.76h4.52v4.52H0v-4.52zm9.04 0h4.52v4.52H9.04v-4.52zm9.04 0h4.52v4.52h-4.52v-4.52zm13.56 0h4.52v4.52h-4.52v-4.52zm9.04 0h4.52v4.52h-4.52v-4.52zm9.04 0h4.52v4.52h-4.52v-4.52zm4.52 0h4.52v4.52h-4.52v-4.52zm9.04 0h4.52v4.52h-4.52v-4.52zm4.52 0h4.52v4.52H67.8v-4.52zm13.56 0h4.52v4.52h-4.52v-4.52zm4.52 0h4.52v4.52h-4.52v-4.52zm4.52 0h4.52v4.52H90.4v-4.52zm4.52 0h4.52v4.52h-4.52v-4.52zm4.52 0h4.52v4.52h-4.52v-4.52zm4.52 0h4.52v4.52h-4.52v-4.52zM0 63.28h4.52v4.52H0v-4.52zm9.04 0h4.52v4.52H9.04v-4.52zm4.52 0h4.52v4.52h-4.52v-4.52zm9.04 0h4.52v4.52H22.6v-4.52zm4.52 0h4.52v4.52h-4.52v-4.52zm4.52 0h4.52v4.52h-4.52v-4.52zm4.52 0h4.52v4.52h-4.52v-4.52zm9.04 0h4.52v4.52H45.2v-4.52zm9.04 0h4.52v4.52h-4.52v-4.52zm9.04 0h4.52v4.52h-4.52v-4.52zm4.52 0h4.52v4.52H67.8v-4.52zm4.52 0h4.52v4.52h-4.52v-4.52zm4.52 0h4.52v4.52h-4.52v-4.52zm9.04 0h4.52v4.52h-4.52v-4.52zm4.52 0h4.52v4.52H90.4v-4.52zm9.04 0h4.52v4.52h-4.52v-4.52zM0 67.8h4.52v4.52H0V67.8zm9.04 0h4.52v4.52H9.04V67.8zm4.52 0h4.52v4.52h-4.52V67.8zm4.52 0h4.52v4.52h-4.52V67.8zm22.6 0h4.52v4.52h-4.52V67.8zm4.52 0h4.52v4.52H45.2V67.8zm9.04 0h4.52v4.52h-4.52V67.8z" fill="#ADC6E0"/><path d="M58.76 67.8h4.52v4.52h-4.52V67.8zm4.52 0h4.52v4.52h-4.52V67.8zm4.52 0h4.52v4.52H67.8V67.8zm22.6 0h4.52v4.52H90.4V67.8zm9.04 0h4.52v4.52h-4.52V67.8zm9.04 0H113v4.52h-4.52V67.8zM0 72.32h4.52v4.52H0v-4.52zm9.04 0h4.52v4.52H9.04v-4.52zm13.56 0h4.52v4.52H22.6v-4.52zm4.52 0h4.52v4.52h-4.52v-4.52z" fill="#ADC6E0"/><path d="M31.64 72.32h4.52v4.52h-4.52v-4.52zm13.56 0h4.52v4.52H45.2v-4.52zm4.52 0h4.52v4.52h-4.52v-4.52zm4.52 0h4.52v4.52h-4.52v-4.52zm9.04 0h4.52v4.52h-4.52v-4.52zm4.52 0h4.52v4.52H67.8v-4.52zm4.52 0h4.52v4.52h-4.52v-4.52zm4.52 0h4.52v4.52h-4.52v-4.52zm4.52 0h4.52v4.52h-4.52v-4.52zm4.52 0h4.52v4.52h-4.52v-4.52zm4.52 0h4.52v4.52H90.4v-4.52zm18.08 0H113v4.52h-4.52v-4.52zm-72.32 4.52h4.52v4.52h-4.52v-4.52zm13.56 0h4.52v4.52h-4.52v-4.52zm4.52 0h4.52v4.52h-4.52v-4.52zm4.52 0h4.52v4.52h-4.52v-4.52zm4.52 0h4.52v4.52h-4.52v-4.52zm4.52 0h4.52v4.52H67.8v-4.52zm4.52 0h4.52v4.52h-4.52v-4.52zm18.08 0h4.52v4.52H90.4v-4.52zm4.52 0h4.52v4.52h-4.52v-4.52zm9.04 0h4.52v4.52h-4.52v-4.52zm4.52 0H113v4.52h-4.52v-4.52zM0 81.36h4.52v4.52H0v-4.52zm4.52 0h4.52v4.52H4.52v-4.52zm4.52 0h4.52v4.52H9.04v-4.52zm4.52 0h4.52v4.52h-4.52v-4.52zm4.52 0h4.52v4.52h-4.52v-4.52zm4.52 0h4.52v4.52H22.6v-4.52zm4.52 0h4.52v4.52h-4.52v-4.52zm13.56 0h4.52v4.52h-4.52v-4.52zm9.04 0h4.52v4.52h-4.52v-4.52zm9.04 0h4.52v4.52h-4.52v-4.52zm9.04 0h4.52v4.52H67.8v-4.52zm4.52 0h4.52v4.52h-4.52v-4.52zm9.04 0h4.52v4.52h-4.52v-4.52zm9.04 0h4.52v4.52H90.4v-4.52zm4.52 0h4.52v4.52h-4.52v-4.52zm9.04 0h4.52v4.52h-4.52v-4.52zM0 85.88h4.52v4.52H0v-4.52zm27.12 0h4.52v4.52h-4.52v-4.52zm13.56 0h4.52v4.52h-4.52v-4.52zm31.64 0h4.52v4.52h-4.52v-4.52zm18.08 0h4.52v4.52H90.4v-4.52zm4.52 0h4.52v4.52h-4.52v-4.52zm4.52 0h4.52v4.52h-4.52v-4.52zM0 90.4h4.52v4.52H0V90.4zm9.04 0h4.52v4.52H9.04V90.4zm4.52 0h4.52v4.52h-4.52V90.4zm4.52 0h4.52v4.52h-4.52V90.4zm9.04 0h4.52v4.52h-4.52V90.4zm9.04 0h4.52v4.52h-4.52V90.4zm9.04 0h4.52v4.52H45.2V90.4zm13.56 0h4.52v4.52h-4.52V90.4zm4.52 0h4.52v4.52h-4.52V90.4zm9.04 0h4.52v4.52h-4.52V90.4zm4.52 0h4.52v4.52h-4.52V90.4zm4.52 0h4.52v4.52h-4.52V90.4zm4.52 0h4.52v4.52h-4.52V90.4zm4.52 0h4.52v4.52H90.4V90.4zm9.04 0h4.52v4.52h-4.52V90.4zM0 94.92h4.52v4.52H0v-4.52zm9.04 0h4.52v4.52H9.04v-4.52zm4.52 0h4.52v4.52h-4.52v-4.52zm4.52 0h4.52v4.52h-4.52v-4.52zm9.04 0h4.52v4.52h-4.52v-4.52zm9.04 0h4.52v4.52h-4.52v-4.52zm4.52 0h4.52v4.52h-4.52v-4.52zm18.08 0h4.52v4.52h-4.52v-4.52zm4.52 0h4.52v4.52h-4.52v-4.52zm4.52 0h4.52v4.52H67.8v-4.52zm4.52 0h4.52v4.52h-4.52v-4.52zm4.52 0h4.52v4.52h-4.52v-4.52zm18.08 0h4.52v4.52h-4.52v-4.52zm13.56 0H113v4.52h-4.52v-4.52zM0 99.44h4.52v4.52H0v-4.52zm9.04 0h4.52v4.52H9.04v-4.52zm4.52 0h4.52v4.52h-4.52v-4.52zm4.52 0h4.52v4.52h-4.52v-4.52zm9.04 0h4.52v4.52h-4.52v-4.52zm9.04 0h4.52v4.52h-4.52v-4.52zm9.04 0h4.52v4.52H45.2v-4.52zm9.04 0h4.52v4.52h-4.52v-4.52zm18.08 0h4.52v4.52h-4.52v-4.52zm9.04 0h4.52v4.52h-4.52v-4.52zm9.04 0h4.52v4.52H90.4v-4.52zm4.52 0h4.52v4.52h-4.52v-4.52zm4.52 0h4.52v4.52h-4.52v-4.52zm9.04 0H113v4.52h-4.52v-4.52zM0 103.96h4.52v4.52H0v-4.52zm27.12 0h4.52v4.52h-4.52v-4.52zm31.64 0h4.52v4.52h-4.52v-4.52zm4.52 0h4.52v4.52h-4.52v-4.52zm18.08 0h4.52v4.52h-4.52v-4.52zm4.52 0h4.52v4.52h-4.52v-4.52zm13.56 0h4.52v4.52h-4.52v-4.52zm9.04 0H113v4.52h-4.52v-4.52zM0 108.48h4.52V113H0v-4.52zm4.52 0h4.52V113H4.52v-4.52zm4.52 0h4.52V113H9.04v-4.52zm4.52 0h4.52V113h-4.52v-4.52zm4.52 0h4.52V113h-4.52v-4.52zm4.52 0h4.52V113H22.6v-4.52zm4.52 0h4.52V113h-4.52v-4.52zm18.08 0h4.52V113H45.2v-4.52zm13.56 0h4.52V113h-4.52v-4.52zm4.52 0h4.52V113h-4.52v-4.52zm4.52 0h4.52V113H67.8v-4.52zm9.04 0h4.52V113h-4.52v-4.52zm4.52 0h4.52V113h-4.52v-4.52zm22.6 0h4.52V113h-4.52v-4.52zm4.52 0H113V113h-4.52v-4.52z" fill="#ADC6E0"/></svg>