<?xml version="1.0" encoding="utf-8"?><svg viewBox="0 0 90 69" xmlns="http://www.w3.org/2000/svg" xmlns:xlink="http://www.w3.org/1999/xlink"><style>:root>svg{display:none}:root>svg:target{display:block}</style><svg fill="none" viewBox="0 0 90 23" id="icon-arrow-to" xmlns="http://www.w3.org/2000/svg"><rect width="6.667" height="2.667" rx="1.333" transform="scale(-1 1) rotate(45 -60.096 -88.75)" fill="currentColor"/><rect width="16" height="2.667" rx="1.333" transform="scale(-1 1) rotate(-45 -30.999 113.468)" fill="currentColor"/><rect width="88" height="3" rx="1.5" transform="matrix(-1 0 0 1 88.686 10)" fill="currentColor"/></svg><svg fill="none" viewBox="0 0 14 18" id="icon-download" xmlns="http://www.w3.org/2000/svg"><path d="M7.538 0v12.977l5.654-5.562.808.7L7 15 0 8.114l.808-.699 5.654 5.562V0h1.076zM2 17h11v1H2z" fill="currentColor"/></svg><svg fill="none" viewBox="0 0 31 21" id="icon-eye" xmlns="http://www.w3.org/2000/svg"><path fill-rule="evenodd" clip-rule="evenodd" d="M15.167 0C21.088 0 26.9 3.354 30.173 9.83a1.487 1.487 0 010 1.34C26.9 17.646 21.088 21 15.167 21 9.245 21 3.433 17.646.16 11.17a1.487 1.487 0 010-1.34C3.433 3.353 9.245 0 15.167 0zm3.064 13.473a4.136 4.136 0 001.27-2.97 4.136 4.136 0 00-1.27-2.97 4.404 4.404 0 00-3.064-1.23c-1.15 0-2.251.442-3.064 1.23a4.136 4.136 0 00-1.27 2.97c0 1.114.457 2.182 1.27 2.97a4.404 4.404 0 003.064 1.23c1.15 0 2.252-.443 3.064-1.23z" fill="currentColor"/></svg><svg fill="none" viewBox="0 0 72 61" id="icon-tg" xmlns="http://www.w3.org/2000/svg"><path d="M4.95 26.26c19.327-8.608 32.215-14.284 38.663-17.026C62.025 1.405 65.851.045 68.344 0c.549-.01 1.775.13 2.57.788.67.557.855 1.308.943 1.836.088.528.198 1.73.111 2.668-.998 10.717-5.315 36.725-7.511 48.729-.93 5.08-2.76 6.782-4.531 6.949-3.049.287-5.517-1.512-8.264-3.514-.722-.526-1.463-1.066-2.239-1.586-3.046-2.042-5.4-3.68-7.76-5.324a522.495 522.495 0 00-7.035-4.837c-5.634-3.795-3.276-6.12-.13-9.219l.191-.19c.45-.442.912-.902 1.367-1.385.232-.246 1.367-1.325 2.967-2.846 5.132-4.878 15.05-14.305 15.3-15.396.042-.179.08-.846-.308-1.198-.387-.352-.96-.232-1.373-.136-.585.136-9.906 6.435-27.965 18.896-2.645 1.858-5.042 2.763-7.19 2.715-2.366-.052-6.92-1.368-10.305-2.493-.497-.165-.982-.32-1.45-.471-3.44-1.106-5.967-1.919-5.715-3.981.15-1.22 1.794-2.469 4.933-3.745z" fill="currentColor"/></svg><svg fill="none" viewBox="0 0 69 69" id="icon-vk" xmlns="http://www.w3.org/2000/svg"><path d="M4.83 4.83C0 9.706 0 17.503 0 33.12v2.76c0 15.594 0 23.391 4.83 28.29C9.706 69 17.503 69 33.12 69h2.76c15.594 0 23.391 0 28.29-4.83C69 59.294 69 51.497 69 35.88v-2.76c0-15.594 0-23.391-4.83-28.29C59.294 0 51.497 0 35.88 0h-2.76C17.526 0 9.729 0 4.83 4.83zm6.808 16.169h7.912c.253 13.156 6.049 18.722 10.649 19.872V20.999h7.429v11.339c4.531-.483 9.315-5.658 10.925-11.362h7.406a21.928 21.928 0 01-10.074 14.329 22.693 22.693 0 0111.799 14.398h-8.165c-1.748-5.451-6.118-9.683-11.891-10.258v10.258h-.92c-15.732 0-24.702-10.764-25.07-28.704z" fill="currentColor"/></svg></svg>