<?xml version="1.0" encoding="utf-8"?><svg viewBox="0 0 603 579" xmlns="http://www.w3.org/2000/svg" xmlns:xlink="http://www.w3.org/1999/xlink"><style>:root>svg{display:none}:root>svg:target{display:block}</style><svg fill="none" viewBox="0 0 33 10" id="icon-arrow-back" xmlns="http://www.w3.org/2000/svg"><path d="M.529 4.529a.667.667 0 000 .942L4.77 9.714a.667.667 0 00.943-.943L1.943 5l3.771-3.771a.667.667 0 10-.943-.943L.53 4.529zM33 4.333H1v1.334h32V4.333z" fill="currentColor"/></svg><svg fill="none" viewBox="0 0 21 20" id="icon-arrow-link" xmlns="http://www.w3.org/2000/svg"><path fill-rule="evenodd" clip-rule="evenodd" d="M10.54 20c5.523 0 10-4.477 10-10s-4.477-10-10-10-10 4.477-10 10 4.477 10 10 10zm2.559-12.878l-6.441 6.44.525.527 6.441-6.441v5.52l.742.048V6.38H7.53l.048.74h5.52z" fill="currentColor"/></svg><svg fill="none" viewBox="0 0 24 23" id="icon-arrow-next" xmlns="http://www.w3.org/2000/svg"><rect width="6.667" height="2.667" rx="1.333" transform="scale(-1 1) rotate(45 -27.096 -9.08)" fill="currentColor"/><rect width="16" height="2.667" rx="1.333" transform="scale(-1 1) rotate(-45 2.001 33.8)" fill="currentColor"/></svg><svg fill="none" viewBox="0 0 90 23" id="icon-arrow-to" xmlns="http://www.w3.org/2000/svg"><rect width="6.667" height="2.667" rx="1.333" transform="scale(-1 1) rotate(45 -60.096 -88.75)" fill="currentColor"/><rect width="16" height="2.667" rx="1.333" transform="scale(-1 1) rotate(-45 -30.999 113.468)" fill="currentColor"/><rect width="88" height="3" rx="1.5" transform="matrix(-1 0 0 1 88.686 10)" fill="currentColor"/></svg><svg fill="none" viewBox="0 0 43 23" id="icon-arrow-to-sm" xmlns="http://www.w3.org/2000/svg"><rect width="6.667" height="2.667" rx="1.333" transform="scale(-1 1) rotate(45 -36.753 -32.394)" fill="currentColor"/><rect width="16" height="2.667" rx="1.333" transform="scale(-1 1) rotate(-45 -7.656 57.113)" fill="currentColor"/><rect width="42" height="3" rx="1.5" transform="matrix(-1 0 0 1 42.314 10)" fill="currentColor"/></svg><svg fill="none" viewBox="0 0 13 13" id="icon-arrow-top-right" xmlns="http://www.w3.org/2000/svg"><rect width="5" height="2" rx="1" transform="matrix(0 1 1 0 10 8)" fill="currentColor"/><rect width="12" height="2" rx="1" transform="matrix(-1 0 0 1 12 .5)" fill="currentColor"/><rect width="16.25" height="2" rx="1" transform="scale(-1 1) rotate(45 -5.959 -13.378)" fill="currentColor"/></svg><svg fill="none" viewBox="0 0 21 21" id="icon-attach" xmlns="http://www.w3.org/2000/svg"><path fill-rule="evenodd" clip-rule="evenodd" d="M15.637 5.363a2.625 2.625 0 00-3.711 0l-6.563 6.562a2.625 2.625 0 103.712 3.712l.73-.728a.984.984 0 011.39 1.39l-.728.73a4.594 4.594 0 01-6.496-6.496l6.562-6.563a4.594 4.594 0 016.497 6.497l-2.588 2.588a2.79 2.79 0 01-3.946-3.944l2.59-2.588a.985.985 0 111.391 1.391l-2.588 2.59a.82.82 0 001.16 1.159l2.588-2.588a2.625 2.625 0 000-3.712z" fill="currentColor"/></svg><svg fill="none" viewBox="0 0 17 9" id="icon-caret" xmlns="http://www.w3.org/2000/svg"><path d="M16.092.934L9.253 7.772a1 1 0 01-1.414 0L1 .934" stroke="currentColor" stroke-linecap="round"/></svg><svg fill="none" viewBox="0 0 27 27" id="icon-close" xmlns="http://www.w3.org/2000/svg"><path d="M23.097 2.8L24.2 3.903 3.903 24.198 2.8 23.096 23.097 2.8z" fill="currentColor"/><path d="M3.903 2.8L24.2 23.095 23.097 24.2 2.8 3.903 3.903 2.8z" fill="currentColor"/></svg><svg fill="none" viewBox="0 0 14 18" id="icon-download" xmlns="http://www.w3.org/2000/svg"><path d="M7.538 0v12.977l5.654-5.562.808.7L7 15 0 8.114l.808-.699 5.654 5.562V0h1.076zM2 17h11v1H2z" fill="currentColor"/></svg><svg fill="none" viewBox="0 0 31 21" id="icon-eye" xmlns="http://www.w3.org/2000/svg"><path fill-rule="evenodd" clip-rule="evenodd" d="M15.167 0C21.088 0 26.9 3.354 30.173 9.83a1.487 1.487 0 010 1.34C26.9 17.646 21.088 21 15.167 21 9.245 21 3.433 17.646.16 11.17a1.487 1.487 0 010-1.34C3.433 3.353 9.245 0 15.167 0zm3.064 13.473a4.136 4.136 0 001.27-2.97 4.136 4.136 0 00-1.27-2.97 4.404 4.404 0 00-3.064-1.23c-1.15 0-2.251.442-3.064 1.23a4.136 4.136 0 00-1.27 2.97c0 1.114.457 2.182 1.27 2.97a4.404 4.404 0 003.064 1.23c1.15 0 2.252-.443 3.064-1.23z" fill="currentColor"/></svg><svg fill="none" viewBox="0 0 36 36" id="icon-gallery-add" xmlns="http://www.w3.org/2000/svg"><rect width="36" height="36" rx="18" fill="#000"/><path d="M17.707 24v-5.242H13v-1.516h4.707V12h1.586v5.242H24v1.516h-4.707V24h-1.586z" fill="#fff"/></svg><svg fill="none" viewBox="0 0 36 36" id="icon-gallery-in" xmlns="http://www.w3.org/2000/svg"><rect width="36" height="36" rx="18" fill="#000"/><rect width="5" height="2" rx="1" transform="scale(1 -1) rotate(45 25.148 12.54)" fill="#fff"/><rect width="12" height="2" rx="1" transform="scale(1 -1) rotate(-45 -16.97 -20.485)" fill="#fff"/><rect width="16.25" height="2" rx="1" transform="matrix(1 0 0 -1 9.932 18.707)" fill="#fff"/></svg><svg fill="none" viewBox="0 0 36 36" id="icon-gallery-or" xmlns="http://www.w3.org/2000/svg"><rect width="36" height="36" rx="18" fill="#000"/><path d="M8.255 22.15c-1.635 0-2.505-1.125-2.235-2.925l.87-5.475h1.62l-.84 5.31c-.165 1.08.345 1.71 1.35 1.71 1.02 0 1.755-.66 1.935-1.815l.825-5.205h1.62L12.095 22H10.49l.255-1.575h-.03C10.4 21.52 9.5 22.15 8.255 22.15zm4.824-.075l.24-1.485h.33c.795 0 1.215-.585 1.485-2.1l.84-4.74h5.775L20.444 22h-1.62l1.08-6.765h-2.58l-.6 3.345c-.435 2.385-1.47 3.495-3.225 3.495h-.42zm11.964.075c-1.635 0-2.505-1.125-2.235-2.925l.87-5.475h1.62l-.84 5.31c-.165 1.08.345 1.71 1.35 1.71 1.02 0 1.755-.66 1.935-1.815l.825-5.205h1.62L28.883 22h-1.605l.255-1.575h-.03c-.315 1.095-1.215 1.725-2.46 1.725z" fill="#fff"/></svg><svg fill="none" viewBox="0 0 603 579" id="icon-heart" xmlns="http://www.w3.org/2000/svg"><path d="M199.959.249a59.439 59.439 0 01-.73-.249c-2.621.51-4.362 2.11-4.412 4.959-.05 2.54 1.071 4.659 3.952 4.759 3.281.11 5.392-1.56 5.542-4.99.136-2.974-2.052-3.708-4.352-4.48zM424.905 10.858c4.208.271 6.198 2.51 6.068 6.128-.13 3.659-1.971 6.338-6.053 6.458-3.312.1-5.833-3.019-5.633-6.748.2-3.777 2.329-5.607 5.618-5.838zM424.905 10.858h-.005.01-.005zM556.168 33.432c3.622.19 7.144-3.26 7.144-7.378l-.01-.01c-.421-3.04-2.461-5.469-6.073-5.239-3.702.24-6.693 2.17-6.743 6.508-.04 3.73 1.901 5.919 5.682 6.119zM365.293 37.8c.03 3.9 3.102 7.32 6.553 7.32 3.672-.01 6.593-3.23 6.533-7.19-.07-4.378-3.071-7.787-6.733-7.647-3.561.14-6.383 3.489-6.353 7.518z" fill="currentColor"/><path fill-rule="evenodd" clip-rule="evenodd" d="M133.92 399.213c-1.431-2.639-1.711-5.728-.75-8.228 1.729-4.508-.124-7.92-2.03-11.43l-.003-.007-.175-.322-.094-.175c-.087-.16-.174-.321-.26-.483-1.52-2.859-3.521-4.029-6.342-1.519-2.341 2.079-4.913 1.929-7.434.59-2.851-1.51-4.752-.82-6.873 1.599-3.791 4.319-8.193 4.739-11.845 1.71-4.622-3.839-5.873-9.958-1.99-13.957 3.28-3.379 3.39-5.918 1.11-9.827-2.131-3.649-1.261-7.759.92-11.438.153-.258.318-.514.483-.77l.001-.001c.994-1.54 1.987-3.081.246-5.017-1.15-1.28-2.64-1.46-4.121-1.31-2.282.247-2.343 1.834-2.401 3.368-.018.458-.035.91-.11 1.321-.961 5.209-4.192 9.188-8.544 9.748-4.563.579-7.044-2.63-8.844-6.049-1.251-2.369-2.742-3.069-5.163-2.639-3.201.57-5.862-.55-6.903-3.559-.087-.253-.179-.509-.272-.768-.943-2.626-1.98-5.513 1.153-7.87 1.27-.95 1.99-2.42 1.26-3.989-1.28-2.72-.69-5.169.65-7.619.61-1.119.78-2.219-.46-3.069-.95-.65-1.78-.31-2.771.13-8.534 3.819-11.035 2.67-13.156-6.368-.59-2.51-1.46-2.97-3.752-2-3.861 1.64-7.743 2.62-10.544-1.889-2.101-3.38-1.39-9.288 1.89-12.897 1.501-1.65 1.351-2.41-.09-4.019-4.542-5.069-4.522-8.908.07-14.007 1.671-1.849 2.151-3.199.28-5.019-.47-.45-1.05-1.059-1.1-1.629-.47-5.389-3.702-6.189-8.474-6.069-4.522.11-8.253-4.719-8.403-9.567-.02-.597.015-1.196.05-1.794.091-1.538.182-3.072-.66-4.555-2.132-3.759-1.751-6.578 1.94-9.698 4.972-4.199 4.622-14.516.14-19.255-.85-.9-1.85-1.51-3.091-1.25-1.834.378-1.908 1.881-1.978 3.302l-.013.248c-.19 3.869-1.09 7.308-5.192 8.867-2.782 1.06-5.503 1.4-7.874-.979-3.021-3.04-2.771-6.699-1.52-10.228 1.04-2.919 3.291-5.429 6.672-4.819 3.312.6 3.712-.76 3.742-3.359.07-6.528 2.101-11.697 9.304-13.417 1.13-.27 2.181-1.489 2.962-2.509.19-.25.41-.513.638-.786 1.061-1.266 2.287-2.73 1.332-3.923-1.258-1.58-2.906-.539-4.383.394-.309.195-.61.385-.899.546-5.582 3.119-9.944 2.749-12.966-1.17-3.071-3.979-2.59-8.918 1.21-12.557 3.502-3.369 7.704-2.969 12.857 1.23l.066.054.066.055.03.025.001.001.001.001c.588.491 1.167.975 2.357.554-.254-1.667-.388-3.359-.52-5.052-.398-5.039-.795-10.086-4.382-14.494-1.261-1.549-2.131-2.209-4.022-1.679-3.742 1.05-6.633-.13-8.124-3.799-1.61-3.949-.2-7.049 2.971-9.678 3.182-2.639 6.153-1.72 9.175.15.263.167.485.404.709.642.124.133.249.266.381.388.206.184.404.396.602.609.822.879 1.651 1.767 3.11.76 1.51-1.039 1.43-2.529.86-4.029-1.43-3.739-.87-6.848 2.711-9.087 2.411-1.51 1.441-2.84-.5-3.37-5.132-1.389-7.133-4.848-6.323-9.727.77-4.639 4.943-7.588 10.435-7.338 2.71.125 3.834-1.374 5.041-2.983l.002-.003c.138-.184.277-.369.42-.554 1.425-1.832.415-2.992-.63-4.192-.26-.299-.524-.601-.751-.916-4.752-6.619-1.851-13.037 6.252-13.707 2.112-.17 3.502-.71 3.902-2.91.12-.65.34-1.279.56-1.909 2.111-6.058 5.153-8.438 10.415-8.148 3.742.21 7.854 4.649 8.764 9.588.51 2.78.96 5.578 1.22 8.388.17 1.86.911 2.72 2.782 2.68 1.95-.04 2.741-1.12 2.491-2.89-.79-5.629.34-10.578 4.752-14.507.56-.5 1.22-1.2.56-2.15-1.13-1.629-2.66-1.209-4.041-.639-3.992 1.66-7.404 1.37-10.145-2.35-2.891-3.928-2.421-8.257 1.36-11.557 3.312-2.889 7.454-2.859 10.635.66 2.091 2.32 3.812 3.01 7.114 2.58 3.711-.48 7.663.85 8.714 5.658.025.114.05.232.074.351.317 1.507.708 3.367 2.757 3.098 2-.266 2.466-2.005 2.907-3.653v-.002h.001c.088-.33.175-.654.273-.964.662-2.085-.628-2.592-2.146-3.188a40.168 40.168 0 01-.405-.16c-7.273-2.95-9.174-10.368-3.872-14.887 2.962-2.53 6.143-3.22 9.515-.61.18.139.36.291.541.445 1.069.906 2.166 1.835 3.62.065 3.522-4.289 7.384-2.78 11.135-.46 3.002 1.85 4.442 2.19 4.783-2.32.63-8.207 7.653-11.597 14.216-6.888 2.931 2.1 3.942 1.31 5.032-1.39.58-1.439 1.711-2.419 3.021-3.229 3.198-1.972 6.355-1.486 9.683-.974.755.116 1.518.234 2.293.325 1.405.165 2.79-.522 4.234-1.24 2.041-1.013 4.199-2.084 6.701-.89.217.105.456.208.7.313.924.4 1.928.834 2.181 1.507 1.761 4.688 3.622 3.389 6.723.97 6.673-5.2 16.397-1 18.088 7.518.068.34.117.684.164 1.015.266 1.873.474 3.337 3.688 1.544 2.081-1.16 4.692.77 6.113 2.45 1.76 2.079 3.431 2.189 5.672 1.409 7.563-2.64 14.347 3.07 13.376 9.818-.58 4.05 1.768 5.593 4.1 7.127 1.25.822 2.495 1.64 3.283 2.84.821 1.24 1.891-.48 2.371-1.51 1.661-3.558 4.342-6.278 8.304-5.978 5.913.44 8.314 3.18 9.414 9.668.441 2.61 1.011 4.549 4.252 3.989 6.883-1.17 11.025 2.35 13.706 8.248 1.535-.803 2.05-2.144 2.557-3.464.207-.538.412-1.072.685-1.565 2.351-4.269 6.633-6.009 9.904-4.02 3.472 2.12 4.372 8.499 1.631 11.898-.73.9-1.511 1.85-2.471 2.44-2.131 1.31-2.331 2.489-.35 4.159 3.261 2.739 2.641 5.878.38 8.817-1.551 2.01-2.571 3.959-2.201 7.768.783-.893 1.448-1.698 2.052-2.429 1.132-1.37 2.047-2.477 3.11-3.409 3.062-2.679 6.493-3.499 9.935-.67 2.841 2.339 3.101 7.188 0 10.308-3.542 3.539-3.462 5.268 1.65 6.368 3.012.65 3.952 3.339 4.622 5.989l.007.025c.418 1.672.864 3.454 2.875 3.534 2 .088 3.117-1.34 4.196-2.718.27-.345.537-.687.816-1.001 1.122-1.273.331-2.276-.479-3.302-.15-.191-.302-.383-.441-.577-4.242-5.909-1.381-13.147 5.812-14.237 2.231-.34 3.092-1.12 3.742-3.129l.079-.245c1.193-3.711 2.404-7.472 6.114-9.673 1.578-.939.988-1.984.422-2.985-.169-.3-.336-.596-.442-.884-.971-2.65-1.331-5.169.89-7.398 2.091-2.09 4.452-2.92 7.183-1.24 1.481.91 2.481.65 3.152-.94.08-.19.171-.373.262-.555.057-.115.114-.23.168-.344.983-2.094 2.918-2.922 4.763-3.71 1.29-.552 2.536-1.085 3.38-2.019.974-1.079.973-2.636.971-4.32-.002-1.826-.004-3.802 1.24-5.478 4.803-6.468 10.765-7.958 17.648-3.479 3.122 2.03 6.303 2.44 10.195 1.92-.37-.984-.94-1.809-1.493-2.608-.806-1.167-1.575-2.28-1.628-3.75-.241-6.33 5.682-10.048 11.735-6.84 2.791 1.48 3.721 1.16 5.202-1.479 2.641-4.699 7.013-5.638 12.526-3.279 5.812 2.49 6.713 1.99 7.213-3.959s6.413-8.928 11.285-5.309c2.651 1.97 3.311 1.63 4.252-1.28 1.07-3.309 3.892-5.178 7.213-5.278 3.292-.1 5.322 1.95 6.373 5.269.731 2.294 2.407 2.134 4.142 1.97 1.138-.109 2.302-.22 3.241.359 1.59.975 2.448-.684 3.167-2.074l.055-.105c3.261-6.289 8.914-7.119 13.286-1.54 2.061 2.63 2.661 1.91 4.101-.15 2.562-3.63 6.053-6.009 10.615-5.039 5.002 1.07 8.924 3.75 9.664 9.418.341 2.6 1.421 2.16 2.842.75.94-.94 1.911-1.87 2.981-2.64 2.351-1.7 4.772-1.2 7.013.19 2.071 1.29 2.731 3.2 1.991 5.609-.229.74-.331 1.521-.449 2.428-.058.441-.119.911-.201 1.421 7.153-1.53 13.256-.35 17.208 6.369.536.911 1.255.631 1.984.347.223-.087.447-.174.667-.227 9.694-2.38 11.305-1.72 15.657 6.658 1.001 1.94 2.491 1.865 4.11 1.785.192-.01.387-.02.582-.026 4.942-.15 9.324.27 10.364 6.669.456 2.79 2.312 1.555 3.627.68.188-.125.365-.243.525-.34 3.572-2.16 6.993-2.15 10.225.39 3.001 2.36 5.272 5.248 3.812 9.427-1.561 4.48-4.993 6.909-9.555 6.489-3.581-.335-6.125 1.235-8.76 2.861l-.436.27-.408.248c-1.951 1.18-1.481 2.61-.41 4.209 1.253 1.883 2.253 1.122 3.565.123l.056-.043c4.963-3.79 9.185-4.11 11.866-1.03 2.841 3.26 2.241 7.108-1.841 11.987-.182.213-.293.485-.461.897-.101.245-.221.541-.39.903.86-.057 1.717-.146 2.566-.234 4.224-.436 8.266-.854 11.531 2.733 3.731 4.099 4.072 8.528 1.691 13.257 1.07.884 2.166.838 3.222.793.425-.018.842-.036 1.25.007 4.091.42 7.643 1.959 8.924 6.078 1.34 4.299-.831 7.579-3.972 10.558-.493.468-1.246.76-2.003 1.054-1.654.642-3.327 1.292-2.359 3.795 1.18 3.029 3.491 4.649 7.333 4.769 7.123.219 9.895 7.118 5.333 13.006-2.071 2.68-2.402 3.55 1.22 5.019 6.373 2.59 6.993 10.728 1.421 15.027-1.421 1.099-3.152 1.889-4.842 2.539-3.042 1.18-4.993 2.259-.751 4.639 2.741 1.539 2.411 4.259 1.691 6.658-.85 2.839-3.161 4.169-6.073 4.419-3.741.31-6.593 4.029-5.752 7.548.32 1.35 1.01 2.56 2.351 3.05 1.093.401 1.644-.301 2.196-1.004.176-.224.352-.448.545-.636 5.082-5.059 13.726-4.299 17.888 1.55 2.381 3.349 2.041 7.558-1.131 10.297-1.74 1.5-3.771 2.729-5.812 3.819-5.283 2.839-5.913 4.749-3.012 9.978 2.151 3.879 1.381 8.538-2.261 11.137l-.266.191c-3.266 2.34-6.598 4.729-11.059 4.398-1.72-.13-3.191.3-2.761 2.899 1.341 7.998-.58 11.188-7.973 14.047-.386.147-.75.345-1.251.615-.279.151-.6.324-.99.525 3.921 3.339 6.312 6.918 3.871 12.077-.68 1.445.848 1.824 2.033 2.119l.15.037.075.019.069.018a9.626 9.626 0 01.244.066c3.482.99 5.913 3.049 5.013 6.798-.971 4.039-3.362 7.489-8.004 7.849-3.862.299-6.143-2.06-7.203-5.649-.032-.11-.066-.219-.1-.328l-.052-.165c-.098-.312-.196-.622-.268-.937-.085-.353-.105-.766-.125-1.182-.06-1.294-.122-2.615-2.166-2.237-1.771.33-2.131 2.1-2.231 3.959-.48 9.028-6.473 13.107-14.957 10.008-2.481-.91-3.672-.47-4.752 1.719-.73 1.49-1.661 2.9-2.641 4.229-2.071 2.79-1.561 4.549 1.901 5.339 4.602 1.04 7.503 3.519 7.063 8.658-.42 4.899-3.372 8.248-8.884 8.278-4.642.03-5.323 1.849-5.423 5.828-.17 6.439-8.213 13.197-16.497 13.467-4.282.14-6.973.71-7.243 5.529-.06 1.06-.691 2.419-1.521 3.049-3.932 2.989-3.462 5.049.77 7.318 3.422 1.83 5.693 4.779 4.222 9.058-1.12 3.249-3.021 6.529-6.543 6.859-3.831.349-7.653-.9-9.184-5.339-.87-2.54-1.841-1.85-3.481-.34-5.213 4.809-7.674 4.689-13.176-.07a.822.822 0 01-.093-.102 2.91 2.91 0 01-.067-.088c-.05-.068-.1-.135-.16-.19-1.891-1.758-2.832-.562-3.843.723-.144.183-.289.368-.439.547l-.189.224c-5.976 7.086-6.078 7.207-4.523 8.434 4.192 3.299 3.721 6.998 1.25 11.027-2.471 4.019-6.573 5.809-10.655 3.709-2.294-1.189-3.365-.501-4.922.5l-.155.099-.078.05c-.22.14-.451.285-.697.431-3.618 2.153-4.139 5.429-4.658 8.692-.316 1.981-.63 3.957-1.635 5.674 1.01.493 1.683.026 2.338-.428.435-.302.862-.597 1.374-.601.699-.005 1.42-.087 2.142-.169 2.422-.274 4.859-.55 6.532 2.068 2 3.119.76 6.039-1.051 8.838-1.641 2.549-3.852 4.499-6.913 4.039-3.191-.48-4.542-3.219-4.962-6.179-.38-2.749-.731-5.098-4.452-3.509-.54.23-1.511.21-1.931-.12-4.552-3.629-6.383-.5-8.314 3.08-1.741 3.229-4.822 4.918-8.083 6.388-.307.139-.691.229-1.086.321-1.142.268-2.376.556-2.086 2.108.32 1.68 1.181 3.96 3.272 3.98 5.692.06 6.002 3.639 5.532 7.808-.36 3.179-5.082 7.218-8.594 7.218-4.422 0-8.083-1.64-8.574-6.539-.45-4.448-2.851-5.398-6.723-5.188-2.161.12-3.881.29-4.652 2.719-.87 2.749-2.631 4.989-4.662 6.998-2.121 2.09-1.791 3.17 1.241 3.859 6.443 1.46 9.534 9.598 4.742 14.867-4.312 4.739-8.194 4.949-12.496.09-.242-.273-.449-.609-.657-.947-.591-.962-1.193-1.939-2.644-1.533-1.186.338-1.392 1.433-1.59 2.488a10.66 10.66 0 01-.181.842c-1.391 5.108-4.352 8.777-9.834 9.297-5.163.49-8.884-1.819-11.015-6.798-1.091-2.529-9.795-3.219-11.725-1.2-.661.69-.861 1.56-.351 2.27 2.171 3.019 2.652 6.318 2.291 9.957-.26 2.65 2.031 3.01 3.802 2.67 3.652-.71 4.682 1.339 5.393 4.209.85 3.409.34 6.648-1.161 9.707-2.121 4.339-6.073 5.299-11.535 2.41-2.571-1.36-3.582-1.32-4.642 1.589-3.842 10.558-11.415 12.097-18.909 3.919-1.891-2.069-2.881-.839-3.791.68-.348.583-.586 1.254-.822 1.918-.335.943-.666 1.875-1.299 2.531-3.222 3.319-3.602 6.119.63 8.798 1.541.97 1.521 2.37.81 3.909-1.6 3.489-3.811 6.359-7.893 6.838-2.992.35-5.373.94-6.473 4.329l-.139.423c-.795 2.411-1.324 4.019 1.95 5.456 3.201 1.41 3.861 6.588 1.68 10.238-1.88 3.149-4.882 3.969-8.193 2.559-3.662-1.57-5.493-4.299-3.962-8.398.071-.192.151-.378.228-.558.437-1.016.799-1.86-.908-2.581-.166-.07-.326-.142-.48-.211-1.171-.522-2.078-.926-3.492.151l-.228.174c-2.553 1.95-5.398 4.123-8.516.725-3.361-3.659-3.862-8.807.14-12.107 4.452-3.669 3.702-7.368 2.521-11.707-.32-1.19-.67-2.319-2.081-2.439-1.236-.103-1.374.809-1.503 1.651v.002l-.014.091-.013.085-.01.06-.03.17c-.721 3.689-3.512 5.089-6.693 5.899-3.012.77-5.833.53-6.743-3.119-.841-3.36-.411-6.369 3.471-7.689.228-.077.473-.108.716-.138.258-.032.513-.064.745-.151.417-.162.893-.279 1.372-.396 1.269-.311 2.562-.629 2.86-1.804.387-1.508-.781-1.915-1.936-2.317-.514-.18-1.026-.358-1.396-.632-4.332-3.209-5.132-6.509-1.761-10.938 1.851-2.439.471-2.889-1.34-3.189-1.621-.27-3.322-.19-4.982-.09-4.793.27-8.614-1.259-11.956-4.929-1.622-1.781-3.677-3.038-5.748-4.304-2.437-1.491-4.896-2.994-6.697-5.383-1.221-1.62-3.032-.32-4.142 1.15-1.241 1.649-2.811 2.729-4.812 3.369-3.872 1.249-7.564 1.119-9.685-2.66-1.891-3.359-1.75-7.048 1.121-10.157.239-.258.523-.515.811-.776 1.258-1.137 2.595-2.347.609-3.973-.457-.376-.897-.845-1.345-1.323-1.651-1.762-3.417-3.646-6.588-1.436-3.131 2.179-6.453 3.649-9.955.4-3.321-3.08-4.462-6.649-2.291-10.758 1.251-2.369.741-4.089-1.05-5.758l-.07-.065-.075-.07c-.449-.417-.952-.882-1.106-1.405-1.83-6.279-5.032-9.618-12.455-8.268-3.922.71-6.623-2.819-7.103-6.928-.3-2.57-1.131-4.679-3.612-5.449-2.046-.629-2.906.727-3.759 2.071-.326.515-.652 1.029-1.043 1.428-.422.434-.729.976-1.037 1.521a12.06 12.06 0 01-.594.978c-2.211 3.16-4.852 5.719-9.094 4.619-4.302-1.119-6.063-4.669-6.553-8.598-.51-4.049 1.421-7.088 5.473-8.438 1.34-.439 2.671-.949 2.571-2.559-.1-1.49-1.461-2.269-2.691-2.639-1.401-.42-2.952-.54-4.422-.48-8.244.33-11.586-3.659-9.575-11.537.073-.283.235-.577.398-.871.419-.759.843-1.527-.238-2.139-.68-.38-2.061-.1-2.821.36-4.122 2.51-7.823 2.29-11.295-1.189-.79-.79-1.851-1.74-2.581.169l.06.1-.02-.01zM550.286 261.17h-.002c-1.307.322-2.612.644-3.94.767-3.776.347-4.797 3.195-5.74 5.828a30.384 30.384 0 01-.603 1.59c-.803 1.894.586 2.271 1.985 2.651.64.174 1.281.348 1.717.668.493.369.886.881 1.266 1.376l.065.084c2.731 3.539 4.152 2.799 8.143.2 6.123-3.994 4.327-7.057 2.095-10.865l-.003-.006-.011-.018-.007-.013c-.219-.374-.443-.755-.663-1.145l-.052-.094-.038-.067-.003-.005c-.582-1.041-1.028-1.84-2.368-1.384-.616.131-1.229.282-1.841.433zM457.845 44.11c-.264.279-.525.56-.785.84-2.741 2.96-5.336 5.76-9.86 4.098-.68-.25-1.451-.07-1.521.72-.047.53-.137 1.072-.228 1.617-.271 1.636-.547 3.297.308 4.721.672 1.112 1.735.752 2.792.394.455-.154.909-.307 1.33-.344l.428-.035c2.352-.194 4.644-.383 6.785 1.125 1.704 1.196 2.911.143 4.068-.867.235-.206.469-.41.705-.593 1.14-.88 1.94-2.119.72-3.389-1.489-1.548-2.378-3.445-3.306-5.423-.443-.946-.896-1.91-1.426-2.865h-.01zM192.066 68.922c.086-.016.222-.022.379-.03.431-.022 1.017-.05 1.142-.3 1.084-2.258-.236-3.578-1.588-4.93-1.168-1.167-2.359-2.358-2.044-4.197.18-1.03-1.751-1.43-2.721-.38-1.841 2-2.791 4.659-2.711 7.178.056 1.982 1.531 2.011 3.001 2.04.628.013 1.256.025 1.771.19.521.168 1.078.232 1.744.308.318.037.661.076 1.037.131l-.01-.01zm-49.262-8.907c.32 1.207-4.088 4.647-5.944 4.738-.453-.177-.979-.249-1.516-.322-1.311-.178-2.684-.365-3.195-2.117-.32-1.1 4.982-5.979 6.203-5.639 1.851.52 3.882 1.2 4.452 3.34z" fill="currentColor"/><path d="M303.376 570.902c.03 4.299-3.582 8.098-7.724 8.098-4.472 0-8.654-4.889-8.544-9.988.081-3.909 3.162-7.278 6.693-7.348 5.313-.1 9.535 3.969 9.575 9.238zM133.834 399.154l.016-.04v-.01l.017.024.025.038.007.011c.005.008.007.012.001.007l-.066-.03zM128.558 394.954c1.525 1.841 3.148 3.251 5.276 4.2-1.277 3.344-2.76 6.484-6.367 8.048-2.461 1.069-4.852 1.399-6.983-.43-2.711-2.33-3.872-5.479-3.101-8.918.61-2.769 2.091-5.409 5.062-6.269 2.724-.787 4.467 1.351 5.886 3.092l.001.001c.076.093.151.186.226.276zM141.973 447.442c-.07-3.889 2.792-6.539 7.094-6.579 3.901-.04 7.193 2.61 7.233 5.809.05 4.369-3.922 8.938-7.714 8.868-3.391-.06-6.533-3.909-6.613-8.098zM521.095 351.915c4.03-.5 6.711.72 6.611 5.489-.1 4.688-2.781 7.458-7.363 7.378-3.812-.06-6.593-3.1-6.573-7.169.02-4.026 2.268-5.806 7.325-5.698zM229.793 65.894c4.051.1 7.133-2.48 7.223-6.009l-.01-.01c.08-3.539-3.002-6.958-6.393-7.078-3.322-.12-6.573 3.26-6.453 6.899.12 3.589 1.591 6.108 5.633 6.198zM25.861 85.15c-.1-3.52 3.082-6.909 6.543-6.789 3.862.13 6.243 2.09 6.563 6.059.25 3.119-3.341 6.798-6.583 6.888-3.541.1-6.432-2.62-6.523-6.159zM378.599 492.819c-.004 3.826-3.264 7.26-6.993 6.91-4.062-.38-5.582-3.219-5.572-6.978.01-3.819 2.251-5.849 5.852-6.109 4.272-.32 6.703 2.089 6.713 6.177zM330.348 528.992c3.601.32 7.003-3.119 7.133-7.398-.15-3.339-2.381-5.459-6.123-5.839-3.331-.34-6.162 3.24-6.313 7.418-.14 3.73 1.951 5.519 5.303 5.819zM269.931 67.054c-.07-3.93-2.501-5.449-7.194-5.539-3.151.04-4.932 2.86-5.062 6.349-.11 3.039 1.211 5.918 5.092 6.028 3.522.09 7.224-3.399 7.164-6.838zM217.457 27.003c.06 4.06-2.211 6.159-6.023 6.309-4.001.15-5.582-2.79-5.672-6.148-.09-3.49 1.911-6 5.572-6.459 3.372-.42 6.013 2.44 6.113 6.299h.01zM297.163 98.946c3.392-.12 5.913-2.06 6.153-5.369-.02-4.328-2.071-6.498-5.633-7.028-2.801-.41-6.123 3.41-6.092 6.708.03 3.66 2.16 5.81 5.572 5.69zM37.117 54.467v-.002c.152 3.744 1.903 5.91 5.432 6.17 3.272.25 6.743-3.019 6.603-6.178-.17-3.77-2.431-5.789-6.123-5.859-3.98-.07-5.392 2.629-5.912 5.867v-.008.01zM278.274 561.234c3.592.03 5.823-2.059 6.213-5.718h.01c-.42-3.689-2.131-6.219-5.953-6.169-3.821.04-5.722 2.729-5.872 6.199-.15 3.539 2.171 5.668 5.602 5.688zM502.425 405.212c-.521 2.969-2.011 5.469-5.923 5.469-3.722 0-6.163-1.76-5.923-5.639.22-3.599 2.421-5.599 6.213-5.619 3.612-.02 5.553 1.65 5.633 5.789zM601.849 98.356c.26-3.319-1.621-4.799-4.782-4.909l.01-.01c-3.432.05-5.913 1.67-6.163 5.12-.23 3.138 1.701 5.598 4.932 5.698 3.642.12 5.713-2.28 6.003-5.899zM46.4 367.701c-3.731-.19-5.182-2.409-5.202-5.549-.02-3.089 1.22-5.728 4.833-5.588 3.331.13 5.772 1.989 5.792 5.548.02 3.47-2.01 5.439-5.422 5.589zM577.508 352.745c-.07 4.018-2.911 4.748-5.692 5.358-3.555-.063-5.213-1.972-5.263-5.008-.06-3.579 2.081-5.699 5.603-5.549 2.991.13 5.422 1.46 5.352 5.199zM210.904 496.59c3.352.67 5.883 2.279 6.123 5.749.23 3.289-2.021 4.808-5.062 4.878-3.322.08-4.732-2.019-4.862-5.088-.12-2.81 1.07-4.759 3.801-5.539z" fill="currentColor"/></svg><svg fill="none" viewBox="0 0 10 9" id="icon-like-filled" xmlns="http://www.w3.org/2000/svg"><path d="M0 3.06c0 2.542 2.01 3.896 3.481 5.11C4 8.596 4.5 9 5 9s1-.403 1.519-.831C7.99 6.957 10 5.602 10 3.06S7.25-1.286 5 1.159c-2.25-2.445-5-.642-5 1.9z" fill="currentColor"/></svg><svg fill="none" viewBox="0 0 38 35" id="icon-search" xmlns="http://www.w3.org/2000/svg"><path d="M11 15.5a7.5 7.5 0 1015 0 7.5 7.5 0 00-15 0z" stroke="currentColor" stroke-width="2"/><path d="M25 22l3 3" stroke="currentColor" stroke-width="2" stroke-linecap="round" stroke-linejoin="round"/></svg><svg fill="none" viewBox="0 0 72 61" id="icon-tg" xmlns="http://www.w3.org/2000/svg"><path d="M4.95 26.26c19.327-8.608 32.215-14.284 38.663-17.026C62.025 1.405 65.851.045 68.344 0c.549-.01 1.775.13 2.57.788.67.557.855 1.308.943 1.836.088.528.198 1.73.111 2.668-.998 10.717-5.315 36.725-7.511 48.729-.93 5.08-2.76 6.782-4.531 6.949-3.049.287-5.517-1.512-8.264-3.514-.722-.526-1.463-1.066-2.239-1.586-3.046-2.042-5.4-3.68-7.76-5.324a522.495 522.495 0 00-7.035-4.837c-5.634-3.795-3.276-6.12-.13-9.219l.191-.19c.45-.442.912-.902 1.367-1.385.232-.246 1.367-1.325 2.967-2.846 5.132-4.878 15.05-14.305 15.3-15.396.042-.179.08-.846-.308-1.198-.387-.352-.96-.232-1.373-.136-.585.136-9.906 6.435-27.965 18.896-2.645 1.858-5.042 2.763-7.19 2.715-2.366-.052-6.92-1.368-10.305-2.493-.497-.165-.982-.32-1.45-.471-3.44-1.106-5.967-1.919-5.715-3.981.15-1.22 1.794-2.469 4.933-3.745z" fill="currentColor"/></svg><svg fill="none" viewBox="0 0 69 69" id="icon-vk" xmlns="http://www.w3.org/2000/svg"><path d="M4.83 4.83C0 9.706 0 17.503 0 33.12v2.76c0 15.594 0 23.391 4.83 28.29C9.706 69 17.503 69 33.12 69h2.76c15.594 0 23.391 0 28.29-4.83C69 59.294 69 51.497 69 35.88v-2.76c0-15.594 0-23.391-4.83-28.29C59.294 0 51.497 0 35.88 0h-2.76C17.526 0 9.729 0 4.83 4.83zm6.808 16.169h7.912c.253 13.156 6.049 18.722 10.649 19.872V20.999h7.429v11.339c4.531-.483 9.315-5.658 10.925-11.362h7.406a21.928 21.928 0 01-10.074 14.329 22.693 22.693 0 0111.799 14.398h-8.165c-1.748-5.451-6.118-9.683-11.891-10.258v10.258h-.92c-15.732 0-24.702-10.764-25.07-28.704z" fill="currentColor"/></svg></svg>